<svg width="655" height="359" viewBox="0 0 655 359" fill="none" xmlns="http://www.w3.org/2000/svg">
<path d="M504 57.6445V320.145" stroke="#999999" stroke-width="0.5"/>
<path d="M576 1H432C430.343 1 429 2.1705 429 3.61438V55.0305C429 56.4744 430.343 57.6449 432 57.6449H576C577.657 57.6449 579 56.4744 579 55.0305V3.61438C579 2.1705 577.657 1 576 1Z" fill="#E1F5FE" stroke="#01579B"/>
<path d="M486.976 27.3167C486.908 26.7409 486.631 26.2939 486.146 25.9758C485.661 25.6576 485.067 25.4985 484.362 25.4985C483.847 25.4985 483.396 25.5818 483.01 25.7485C482.627 25.9152 482.328 26.1443 482.112 26.436C481.9 26.7277 481.794 27.0591 481.794 27.4303C481.794 27.7409 481.868 28.008 482.016 28.2314C482.167 28.4511 482.36 28.6349 482.595 28.7826C482.83 28.9265 483.076 29.0458 483.334 29.1405C483.591 29.2314 483.828 29.3053 484.044 29.3621L485.226 29.6803C485.529 29.7599 485.866 29.8697 486.237 30.0099C486.612 30.15 486.97 30.3413 487.311 30.5837C487.656 30.8224 487.94 31.1292 488.163 31.5042C488.387 31.8792 488.499 32.3394 488.499 32.8849C488.499 33.5136 488.334 34.0818 488.004 34.5894C487.679 35.097 487.201 35.5004 486.572 35.7996C485.947 36.0989 485.188 36.2485 484.294 36.2485C483.461 36.2485 482.739 36.114 482.129 35.8451C481.523 35.5761 481.046 35.2011 480.697 34.7201C480.353 34.239 480.158 33.6803 480.112 33.0439H481.567C481.605 33.4833 481.752 33.847 482.01 34.1349C482.271 34.4189 482.601 34.6311 482.999 34.7712C483.4 34.9076 483.832 34.9758 484.294 34.9758C484.832 34.9758 485.315 34.8886 485.743 34.7144C486.171 34.5364 486.51 34.2902 486.76 33.9758C487.01 33.6576 487.135 33.2864 487.135 32.8621C487.135 32.4758 487.027 32.1614 486.811 31.9189C486.595 31.6765 486.311 31.4796 485.959 31.328C485.607 31.1765 485.226 31.0439 484.817 30.9303L483.385 30.5212C482.476 30.2599 481.756 29.8867 481.226 29.4019C480.696 28.9171 480.43 28.2826 480.43 27.4985C480.43 26.847 480.607 26.2788 480.959 25.7939C481.315 25.3053 481.792 24.9265 482.391 24.6576C482.993 24.3849 483.665 24.2485 484.408 24.2485C485.158 24.2485 485.824 24.383 486.408 24.6519C486.991 24.9171 487.453 25.2807 487.794 25.7428C488.139 26.2049 488.321 26.7296 488.339 27.3167H486.976ZM494.293 36.2258C493.452 36.2258 492.726 36.0402 492.116 35.6689C491.51 35.2939 491.043 34.7712 490.713 34.1008C490.387 33.4265 490.224 32.6424 490.224 31.7485C490.224 30.8546 490.387 30.0667 490.713 29.3849C491.043 28.6992 491.501 28.1652 492.088 27.7826C492.679 27.3962 493.368 27.203 494.156 27.203C494.611 27.203 495.06 27.2788 495.503 27.4303C495.946 27.5818 496.349 27.828 496.713 28.1689C497.077 28.5061 497.366 28.953 497.582 29.5099C497.798 30.0667 497.906 30.7523 497.906 31.5667V32.1349H491.179V30.9758H496.543C496.543 30.4833 496.444 30.0439 496.247 29.6576C496.054 29.2712 495.777 28.9663 495.418 28.7428C495.062 28.5193 494.641 28.4076 494.156 28.4076C493.622 28.4076 493.16 28.5402 492.77 28.8053C492.384 29.0667 492.086 29.4076 491.878 29.828C491.67 30.2485 491.565 30.6992 491.565 31.1803V31.953C491.565 32.6121 491.679 33.1708 491.906 33.6292C492.137 34.0837 492.457 34.4303 492.866 34.6689C493.276 34.9038 493.751 35.0212 494.293 35.0212C494.645 35.0212 494.963 34.972 495.247 34.8735C495.535 34.7712 495.783 34.6197 495.991 34.4189C496.2 34.2144 496.361 33.9606 496.474 33.6576L497.77 34.0212C497.634 34.4606 497.404 34.847 497.082 35.1803C496.76 35.5099 496.363 35.7674 495.889 35.953C495.416 36.1349 494.884 36.2258 494.293 36.2258ZM499.946 36.0439V27.3167H501.241V28.6349H501.332C501.491 28.203 501.779 27.8527 502.196 27.5837C502.613 27.3148 503.082 27.1803 503.605 27.1803C503.704 27.1803 503.827 27.1822 503.974 27.186C504.122 27.1898 504.234 27.1955 504.31 27.203V28.5667C504.264 28.5553 504.16 28.5383 503.997 28.5155C503.838 28.489 503.67 28.4758 503.491 28.4758C503.067 28.4758 502.688 28.5648 502.355 28.7428C502.026 28.9171 501.764 29.1595 501.571 29.4701C501.382 29.7769 501.287 30.1273 501.287 30.5212V36.0439H499.946ZM513.301 27.3167L510.074 36.0439H508.71L505.483 27.3167H506.938L509.347 34.2712H509.438L511.847 27.3167H513.301ZM518.418 36.2258C517.577 36.2258 516.851 36.0402 516.241 35.6689C515.635 35.2939 515.168 34.7712 514.838 34.1008C514.512 33.4265 514.349 32.6424 514.349 31.7485C514.349 30.8546 514.512 30.0667 514.838 29.3849C515.168 28.6992 515.626 28.1652 516.213 27.7826C516.804 27.3962 517.493 27.203 518.281 27.203C518.736 27.203 519.185 27.2788 519.628 27.4303C520.071 27.5818 520.474 27.828 520.838 28.1689C521.202 28.5061 521.491 28.953 521.707 29.5099C521.923 30.0667 522.031 30.7523 522.031 31.5667V32.1349H515.304V30.9758H520.668C520.668 30.4833 520.569 30.0439 520.372 29.6576C520.179 29.2712 519.902 28.9663 519.543 28.7428C519.187 28.5193 518.766 28.4076 518.281 28.4076C517.747 28.4076 517.285 28.5402 516.895 28.8053C516.509 29.0667 516.211 29.4076 516.003 29.828C515.795 30.2485 515.69 30.6992 515.69 31.1803V31.953C515.69 32.6121 515.804 33.1708 516.031 33.6292C516.262 34.0837 516.582 34.4303 516.991 34.6689C517.401 34.9038 517.876 35.0212 518.418 35.0212C518.77 35.0212 519.088 34.972 519.372 34.8735C519.66 34.7712 519.908 34.6197 520.116 34.4189C520.325 34.2144 520.486 33.9606 520.599 33.6576L521.895 34.0212C521.759 34.4606 521.529 34.847 521.207 35.1803C520.885 35.5099 520.488 35.7674 520.014 35.953C519.541 36.1349 519.009 36.2258 518.418 36.2258ZM524.071 36.0439V27.3167H525.366V28.6349H525.457C525.616 28.203 525.904 27.8527 526.321 27.5837C526.738 27.3148 527.207 27.1803 527.73 27.1803C527.829 27.1803 527.952 27.1822 528.099 27.186C528.247 27.1898 528.359 27.1955 528.435 27.203V28.5667C528.389 28.5553 528.285 28.5383 528.122 28.5155C527.963 28.489 527.795 28.4758 527.616 28.4758C527.192 28.4758 526.813 28.5648 526.48 28.7428C526.151 28.9171 525.889 29.1595 525.696 29.4701C525.507 29.7769 525.412 30.1273 525.412 30.5212V36.0439H524.071Z" fill="black"/>
<path d="M276 57.6445V320.145" stroke="#999999" stroke-width="0.5"/>
<path d="M348 1H204C202.343 1 201 2.1705 201 3.61438V55.0305C201 56.4744 202.343 57.6449 204 57.6449H348C349.657 57.6449 351 56.4744 351 55.0305V3.61438C351 2.1705 349.657 1 348 1Z" fill="#E1F5FE" stroke="#01579B"/>
<path d="M264.913 28.0439H263.504C263.421 27.6386 263.275 27.2826 263.067 26.9758C262.862 26.6689 262.612 26.4114 262.317 26.203C262.025 25.9909 261.701 25.8318 261.345 25.7258C260.989 25.6197 260.618 25.5667 260.232 25.5667C259.527 25.5667 258.889 25.7447 258.317 26.1008C257.749 26.4568 257.296 26.9814 256.959 27.6746C256.625 28.3678 256.459 29.2182 256.459 30.2258C256.459 31.2333 256.625 32.0837 256.959 32.7769C257.296 33.4701 257.749 33.9947 258.317 34.3508C258.889 34.7068 259.527 34.8849 260.232 34.8849C260.618 34.8849 260.989 34.8318 261.345 34.7258C261.701 34.6197 262.025 34.4625 262.317 34.2542C262.612 34.0421 262.862 33.7826 263.067 33.4758C263.275 33.1652 263.421 32.8091 263.504 32.4076H264.913C264.807 33.0023 264.614 33.5345 264.334 34.0042C264.054 34.4739 263.705 34.8735 263.288 35.203C262.872 35.5288 262.404 35.7769 261.885 35.9474C261.37 36.1178 260.819 36.203 260.232 36.203C259.239 36.203 258.357 35.9606 257.584 35.4758C256.811 34.9909 256.203 34.3015 255.76 33.4076C255.317 32.5136 255.095 31.453 255.095 30.2258C255.095 28.9985 255.317 27.9379 255.76 27.0439C256.203 26.15 256.811 25.4606 257.584 24.9758C258.357 24.4909 259.239 24.2485 260.232 24.2485C260.819 24.2485 261.37 24.3337 261.885 24.5042C262.404 24.6746 262.872 24.9246 263.288 25.2542C263.705 25.5799 264.054 25.9777 264.334 26.4474C264.614 26.9133 264.807 27.4455 264.913 28.0439ZM268.349 24.4076V36.0439H267.009V24.4076H268.349ZM270.805 36.0439V27.3167H272.146V36.0439H270.805ZM271.487 25.8621C271.226 25.8621 271 25.7731 270.811 25.5951C270.625 25.4171 270.533 25.203 270.533 24.953C270.533 24.703 270.625 24.489 270.811 24.311C271 24.133 271.226 24.0439 271.487 24.0439C271.749 24.0439 271.972 24.133 272.158 24.311C272.347 24.489 272.442 24.703 272.442 24.953C272.442 25.203 272.347 25.4171 272.158 25.5951C271.972 25.7731 271.749 25.8621 271.487 25.8621ZM278.261 36.2258C277.42 36.2258 276.695 36.0402 276.085 35.6689C275.479 35.2939 275.011 34.7712 274.682 34.1008C274.356 33.4265 274.193 32.6424 274.193 31.7485C274.193 30.8546 274.356 30.0667 274.682 29.3849C275.011 28.6992 275.47 28.1652 276.057 27.7826C276.648 27.3962 277.337 27.203 278.125 27.203C278.58 27.203 279.028 27.2788 279.472 27.4303C279.915 27.5818 280.318 27.828 280.682 28.1689C281.045 28.5061 281.335 28.953 281.551 29.5099C281.767 30.0667 281.875 30.7523 281.875 31.5667V32.1349H275.148V30.9758H280.511C280.511 30.4833 280.413 30.0439 280.216 29.6576C280.023 29.2712 279.746 28.9663 279.386 28.7428C279.03 28.5193 278.61 28.4076 278.125 28.4076C277.591 28.4076 277.129 28.5402 276.739 28.8053C276.352 29.0667 276.055 29.4076 275.847 29.828C275.638 30.2485 275.534 30.6992 275.534 31.1803V31.953C275.534 32.6121 275.648 33.1708 275.875 33.6292C276.106 34.0837 276.426 34.4303 276.835 34.6689C277.244 34.9038 277.72 35.0212 278.261 35.0212C278.614 35.0212 278.932 34.972 279.216 34.8735C279.504 34.7712 279.752 34.6197 279.96 34.4189C280.169 34.2144 280.33 33.9606 280.443 33.6576L281.739 34.0212C281.602 34.4606 281.373 34.847 281.051 35.1803C280.729 35.5099 280.331 35.7674 279.858 35.953C279.384 36.1349 278.852 36.2258 278.261 36.2258ZM285.256 30.7939V36.0439H283.915V27.3167H285.21V28.6803H285.324C285.528 28.2371 285.839 27.8811 286.256 27.6121C286.672 27.3394 287.21 27.203 287.869 27.203C288.46 27.203 288.977 27.3242 289.42 27.5667C289.864 27.8053 290.208 28.1689 290.455 28.6576C290.701 29.1424 290.824 29.7561 290.824 30.4985V36.0439H289.483V30.5894C289.483 29.9038 289.305 29.3697 288.949 28.9871C288.593 28.6008 288.104 28.4076 287.483 28.4076C287.055 28.4076 286.672 28.5004 286.335 28.686C286.002 28.8716 285.739 29.1424 285.545 29.4985C285.352 29.8546 285.256 30.2864 285.256 30.7939ZM297.07 27.3167V28.453H292.547V27.3167H297.07ZM293.865 25.2258H295.206V33.5439C295.206 33.9227 295.261 34.2068 295.371 34.3962C295.484 34.5818 295.628 34.7068 295.803 34.7712C295.981 34.8318 296.168 34.8621 296.365 34.8621C296.513 34.8621 296.634 34.8546 296.729 34.8394C296.823 34.8205 296.899 34.8053 296.956 34.7939L297.229 35.9985C297.138 36.0326 297.011 36.0667 296.848 36.1008C296.685 36.1386 296.479 36.1576 296.229 36.1576C295.85 36.1576 295.479 36.0761 295.115 35.9133C294.755 35.7504 294.456 35.5023 294.217 35.1689C293.982 34.8356 293.865 34.4152 293.865 33.9076V25.2258Z" fill="black"/>
<path d="M76 57V319.5" stroke="#999999" stroke-width="0.5"/>
<path d="M148 1H4C2.34315 1 1 2.15539 1 3.58065V54.3333C1 55.7586 2.34315 56.914 4 56.914H148C149.657 56.914 151 55.7586 151 54.3333V3.58065C151 2.15539 149.657 1 148 1Z" fill="#E1F5FE" stroke="#01579B"/>
<path d="M67.3033 24.1488H68.7124V31.8533C68.7124 32.6488 68.5249 33.359 68.1499 33.984C67.7786 34.6052 67.254 35.0958 66.576 35.4556C65.898 35.8117 65.1025 35.9897 64.1896 35.9897C63.2768 35.9897 62.4813 35.8117 61.8033 35.4556C61.1252 35.0958 60.5987 34.6052 60.2237 33.984C59.8525 33.359 59.6669 32.6488 59.6669 31.8533V24.1488H61.076V31.7397C61.076 32.3079 61.201 32.8136 61.451 33.2567C61.701 33.6961 62.0571 34.0427 62.5192 34.2965C62.9851 34.5465 63.5419 34.6715 64.1896 34.6715C64.8374 34.6715 65.3942 34.5465 65.8601 34.2965C66.326 34.0427 66.6821 33.6961 66.9283 33.2567C67.1783 32.8136 67.3033 32.3079 67.3033 31.7397V24.1488ZM77.5263 29.0124L76.3217 29.3533C76.246 29.1526 76.1342 28.9575 75.9865 28.7681C75.8426 28.5749 75.6456 28.4158 75.3956 28.2908C75.1456 28.1658 74.8255 28.1033 74.4354 28.1033C73.9013 28.1033 73.4562 28.2264 73.1001 28.4727C72.7479 28.7151 72.5717 29.0238 72.5717 29.3988C72.5717 29.7321 72.6929 29.9954 72.9354 30.1886C73.1778 30.3817 73.5566 30.5427 74.0717 30.6715L75.3672 30.9897C76.1475 31.1791 76.7289 31.4689 77.1115 31.859C77.4941 32.2454 77.6854 32.7435 77.6854 33.3533C77.6854 33.8533 77.5414 34.3003 77.2536 34.6942C76.9695 35.0882 76.5717 35.3988 76.0604 35.6261C75.549 35.8533 74.9543 35.967 74.2763 35.967C73.3861 35.967 72.6494 35.7738 72.0661 35.3874C71.4827 35.0011 71.1134 34.4367 70.9581 33.6942L72.2308 33.3761C72.352 33.8458 72.5812 34.198 72.9183 34.4329C73.2592 34.6677 73.7043 34.7852 74.2536 34.7852C74.8786 34.7852 75.3748 34.6526 75.7422 34.3874C76.1134 34.1185 76.299 33.7965 76.299 33.4215C76.299 33.1185 76.1929 32.8647 75.9808 32.6602C75.7687 32.4518 75.4429 32.2965 75.0036 32.1942L73.549 31.8533C72.7498 31.6639 72.1626 31.3704 71.7876 30.9727C71.4164 30.5711 71.2308 30.0692 71.2308 29.467C71.2308 28.9745 71.3691 28.5389 71.6456 28.1602C71.9259 27.7814 72.3066 27.484 72.7876 27.2681C73.2725 27.0522 73.8217 26.9442 74.4354 26.9442C75.299 26.9442 75.977 27.1336 76.4695 27.5124C76.9657 27.8912 77.3179 28.3912 77.5263 29.0124ZM83.3629 35.967C82.522 35.967 81.7966 35.7814 81.1868 35.4102C80.5807 35.0352 80.1129 34.5124 79.7834 33.842C79.4576 33.1677 79.2947 32.3836 79.2947 31.4897C79.2947 30.5958 79.4576 29.8079 79.7834 29.1261C80.1129 28.4405 80.5713 27.9064 81.1584 27.5238C81.7493 27.1374 82.4387 26.9442 83.2266 26.9442C83.6811 26.9442 84.13 27.02 84.5732 27.1715C85.0163 27.323 85.4197 27.5692 85.7834 27.9102C86.147 28.2473 86.4368 28.6942 86.6527 29.2511C86.8686 29.8079 86.9766 30.4935 86.9766 31.3079V31.8761H80.2493V30.717H85.6129C85.6129 30.2245 85.5144 29.7852 85.3175 29.3988C85.1243 29.0124 84.8478 28.7075 84.4879 28.484C84.1319 28.2605 83.7114 28.1488 83.2266 28.1488C82.6925 28.1488 82.2304 28.2814 81.8402 28.5465C81.4538 28.8079 81.1565 29.1488 80.9482 29.5692C80.7398 29.9897 80.6357 30.4405 80.6357 30.9215V31.6942C80.6357 32.3533 80.7493 32.9121 80.9766 33.3704C81.2076 33.8249 81.5277 34.1715 81.9368 34.4102C82.3459 34.645 82.8213 34.7624 83.3629 34.7624C83.7152 34.7624 84.0334 34.7132 84.3175 34.6147C84.6054 34.5124 84.8535 34.3609 85.0618 34.1602C85.2701 33.9556 85.4311 33.7018 85.5447 33.3988L86.8402 33.7624C86.7038 34.2018 86.4747 34.5882 86.1527 34.9215C85.8307 35.2511 85.433 35.5086 84.9595 35.6942C84.486 35.8761 83.9538 35.967 83.3629 35.967ZM89.0163 35.7852V27.0579H90.3118V28.3761H90.4027C90.5618 27.9442 90.8497 27.5939 91.2663 27.3249C91.683 27.056 92.1527 26.9215 92.6754 26.9215C92.7739 26.9215 92.897 26.9234 93.0447 26.9272C93.1925 26.931 93.3042 26.9367 93.38 26.9442V28.3079C93.3345 28.2965 93.2304 28.2795 93.0675 28.2567C92.9084 28.2302 92.7398 28.217 92.5618 28.217C92.1375 28.217 91.7588 28.306 91.4254 28.484C91.0959 28.6583 90.8345 28.9007 90.6413 29.2113C90.4519 29.5181 90.3572 29.8685 90.3572 30.2624V35.7852H89.0163Z" fill="black"/>
<path d="M576 256H432C430.343 256 429 257.343 429 259V318C429 319.657 430.343 321 432 321H576C577.657 321 579 319.657 579 318V259C579 257.343 577.657 256 576 256Z" fill="#E1F5FE" stroke="#01579B"/>
<path d="M486.976 285.273C486.908 284.697 486.631 284.25 486.146 283.932C485.661 283.614 485.067 283.455 484.362 283.455C483.847 283.455 483.396 283.538 483.01 283.705C482.627 283.871 482.328 284.1 482.112 284.392C481.9 284.684 481.794 285.015 481.794 285.386C481.794 285.697 481.868 285.964 482.016 286.188C482.167 286.407 482.36 286.591 482.595 286.739C482.83 286.883 483.076 287.002 483.334 287.097C483.591 287.187 483.828 287.261 484.044 287.318L485.226 287.636C485.529 287.716 485.866 287.826 486.237 287.966C486.612 288.106 486.97 288.297 487.311 288.54C487.656 288.778 487.94 289.085 488.163 289.46C488.387 289.835 488.499 290.295 488.499 290.841C488.499 291.47 488.334 292.038 488.004 292.545C487.679 293.053 487.201 293.456 486.572 293.756C485.947 294.055 485.188 294.205 484.294 294.205C483.461 294.205 482.739 294.07 482.129 293.801C481.523 293.532 481.046 293.157 480.697 292.676C480.353 292.195 480.158 291.636 480.112 291H481.567C481.605 291.439 481.752 291.803 482.01 292.091C482.271 292.375 482.601 292.587 482.999 292.727C483.4 292.864 483.832 292.932 484.294 292.932C484.832 292.932 485.315 292.845 485.743 292.67C486.171 292.492 486.51 292.246 486.76 291.932C487.01 291.614 487.135 291.242 487.135 290.818C487.135 290.432 487.027 290.117 486.811 289.875C486.595 289.633 486.311 289.436 485.959 289.284C485.607 289.133 485.226 289 484.817 288.886L483.385 288.477C482.476 288.216 481.756 287.843 481.226 287.358C480.696 286.873 480.43 286.239 480.43 285.455C480.43 284.803 480.607 284.235 480.959 283.75C481.315 283.261 481.792 282.883 482.391 282.614C482.993 282.341 483.665 282.205 484.408 282.205C485.158 282.205 485.824 282.339 486.408 282.608C486.991 282.873 487.453 283.237 487.794 283.699C488.139 284.161 488.321 284.686 488.339 285.273H486.976ZM494.293 294.182C493.452 294.182 492.726 293.996 492.116 293.625C491.51 293.25 491.043 292.727 490.713 292.057C490.387 291.383 490.224 290.598 490.224 289.705C490.224 288.811 490.387 288.023 490.713 287.341C491.043 286.655 491.501 286.121 492.088 285.739C492.679 285.352 493.368 285.159 494.156 285.159C494.611 285.159 495.06 285.235 495.503 285.386C495.946 285.538 496.349 285.784 496.713 286.125C497.077 286.462 497.366 286.909 497.582 287.466C497.798 288.023 497.906 288.708 497.906 289.523V290.091H491.179V288.932H496.543C496.543 288.439 496.444 288 496.247 287.614C496.054 287.227 495.777 286.922 495.418 286.699C495.062 286.475 494.641 286.364 494.156 286.364C493.622 286.364 493.16 286.496 492.77 286.761C492.384 287.023 492.086 287.364 491.878 287.784C491.67 288.205 491.565 288.655 491.565 289.136V289.909C491.565 290.568 491.679 291.127 491.906 291.585C492.137 292.04 492.457 292.386 492.866 292.625C493.276 292.86 493.751 292.977 494.293 292.977C494.645 292.977 494.963 292.928 495.247 292.83C495.535 292.727 495.783 292.576 495.991 292.375C496.2 292.17 496.361 291.917 496.474 291.614L497.77 291.977C497.634 292.417 497.404 292.803 497.082 293.136C496.76 293.466 496.363 293.723 495.889 293.909C495.416 294.091 494.884 294.182 494.293 294.182ZM499.946 294V285.273H501.241V286.591H501.332C501.491 286.159 501.779 285.809 502.196 285.54C502.613 285.271 503.082 285.136 503.605 285.136C503.704 285.136 503.827 285.138 503.974 285.142C504.122 285.146 504.234 285.152 504.31 285.159V286.523C504.264 286.511 504.16 286.494 503.997 286.472C503.838 286.445 503.67 286.432 503.491 286.432C503.067 286.432 502.688 286.521 502.355 286.699C502.026 286.873 501.764 287.116 501.571 287.426C501.382 287.733 501.287 288.083 501.287 288.477V294H499.946ZM513.301 285.273L510.074 294H508.71L505.483 285.273H506.938L509.347 292.227H509.438L511.847 285.273H513.301ZM518.418 294.182C517.577 294.182 516.851 293.996 516.241 293.625C515.635 293.25 515.168 292.727 514.838 292.057C514.512 291.383 514.349 290.598 514.349 289.705C514.349 288.811 514.512 288.023 514.838 287.341C515.168 286.655 515.626 286.121 516.213 285.739C516.804 285.352 517.493 285.159 518.281 285.159C518.736 285.159 519.185 285.235 519.628 285.386C520.071 285.538 520.474 285.784 520.838 286.125C521.202 286.462 521.491 286.909 521.707 287.466C521.923 288.023 522.031 288.708 522.031 289.523V290.091H515.304V288.932H520.668C520.668 288.439 520.569 288 520.372 287.614C520.179 287.227 519.902 286.922 519.543 286.699C519.187 286.475 518.766 286.364 518.281 286.364C517.747 286.364 517.285 286.496 516.895 286.761C516.509 287.023 516.211 287.364 516.003 287.784C515.795 288.205 515.69 288.655 515.69 289.136V289.909C515.69 290.568 515.804 291.127 516.031 291.585C516.262 292.04 516.582 292.386 516.991 292.625C517.401 292.86 517.876 292.977 518.418 292.977C518.77 292.977 519.088 292.928 519.372 292.83C519.66 292.727 519.908 292.576 520.116 292.375C520.325 292.17 520.486 291.917 520.599 291.614L521.895 291.977C521.759 292.417 521.529 292.803 521.207 293.136C520.885 293.466 520.488 293.723 520.014 293.909C519.541 294.091 519.009 294.182 518.418 294.182ZM524.071 294V285.273H525.366V286.591H525.457C525.616 286.159 525.904 285.809 526.321 285.54C526.738 285.271 527.207 285.136 527.73 285.136C527.829 285.136 527.952 285.138 528.099 285.142C528.247 285.146 528.359 285.152 528.435 285.159V286.523C528.389 286.511 528.285 286.494 528.122 286.472C527.963 286.445 527.795 286.432 527.616 286.432C527.192 286.432 526.813 286.521 526.48 286.699C526.151 286.873 525.889 287.116 525.696 287.426C525.507 287.733 525.412 288.083 525.412 288.477V294H524.071Z" fill="black"/>
<path d="M348 256H204C202.343 256 201 257.343 201 259V318C201 319.657 202.343 321 204 321H348C349.657 321 351 319.657 351 318V259C351 257.343 349.657 256 348 256Z" fill="#E1F5FE" stroke="#01579B"/>
<path d="M264.913 286H263.504C263.421 285.595 263.275 285.239 263.067 284.932C262.862 284.625 262.612 284.367 262.317 284.159C262.025 283.947 261.701 283.788 261.345 283.682C260.989 283.576 260.618 283.523 260.232 283.523C259.527 283.523 258.889 283.701 258.317 284.057C257.749 284.413 257.296 284.938 256.959 285.631C256.625 286.324 256.459 287.174 256.459 288.182C256.459 289.189 256.625 290.04 256.959 290.733C257.296 291.426 257.749 291.951 258.317 292.307C258.889 292.663 259.527 292.841 260.232 292.841C260.618 292.841 260.989 292.788 261.345 292.682C261.701 292.576 262.025 292.419 262.317 292.21C262.612 291.998 262.862 291.739 263.067 291.432C263.275 291.121 263.421 290.765 263.504 290.364H264.913C264.807 290.958 264.614 291.491 264.334 291.96C264.054 292.43 263.705 292.83 263.288 293.159C262.872 293.485 262.404 293.733 261.885 293.903C261.37 294.074 260.819 294.159 260.232 294.159C259.239 294.159 258.357 293.917 257.584 293.432C256.811 292.947 256.203 292.258 255.76 291.364C255.317 290.47 255.095 289.409 255.095 288.182C255.095 286.955 255.317 285.894 255.76 285C256.203 284.106 256.811 283.417 257.584 282.932C258.357 282.447 259.239 282.205 260.232 282.205C260.819 282.205 261.37 282.29 261.885 282.46C262.404 282.631 262.872 282.881 263.288 283.21C263.705 283.536 264.054 283.934 264.334 284.403C264.614 284.869 264.807 285.402 264.913 286ZM268.349 282.364V294H267.009V282.364H268.349ZM270.805 294V285.273H272.146V294H270.805ZM271.487 283.818C271.226 283.818 271 283.729 270.811 283.551C270.625 283.373 270.533 283.159 270.533 282.909C270.533 282.659 270.625 282.445 270.811 282.267C271 282.089 271.226 282 271.487 282C271.749 282 271.972 282.089 272.158 282.267C272.347 282.445 272.442 282.659 272.442 282.909C272.442 283.159 272.347 283.373 272.158 283.551C271.972 283.729 271.749 283.818 271.487 283.818ZM278.261 294.182C277.42 294.182 276.695 293.996 276.085 293.625C275.479 293.25 275.011 292.727 274.682 292.057C274.356 291.383 274.193 290.598 274.193 289.705C274.193 288.811 274.356 288.023 274.682 287.341C275.011 286.655 275.47 286.121 276.057 285.739C276.648 285.352 277.337 285.159 278.125 285.159C278.58 285.159 279.028 285.235 279.472 285.386C279.915 285.538 280.318 285.784 280.682 286.125C281.045 286.462 281.335 286.909 281.551 287.466C281.767 288.023 281.875 288.708 281.875 289.523V290.091H275.148V288.932H280.511C280.511 288.439 280.413 288 280.216 287.614C280.023 287.227 279.746 286.922 279.386 286.699C279.03 286.475 278.61 286.364 278.125 286.364C277.591 286.364 277.129 286.496 276.739 286.761C276.352 287.023 276.055 287.364 275.847 287.784C275.638 288.205 275.534 288.655 275.534 289.136V289.909C275.534 290.568 275.648 291.127 275.875 291.585C276.106 292.04 276.426 292.386 276.835 292.625C277.244 292.86 277.72 292.977 278.261 292.977C278.614 292.977 278.932 292.928 279.216 292.83C279.504 292.727 279.752 292.576 279.96 292.375C280.169 292.17 280.33 291.917 280.443 291.614L281.739 291.977C281.602 292.417 281.373 292.803 281.051 293.136C280.729 293.466 280.331 293.723 279.858 293.909C279.384 294.091 278.852 294.182 278.261 294.182ZM285.256 288.75V294H283.915V285.273H285.21V286.636H285.324C285.528 286.193 285.839 285.837 286.256 285.568C286.672 285.295 287.21 285.159 287.869 285.159C288.46 285.159 288.977 285.28 289.42 285.523C289.864 285.761 290.208 286.125 290.455 286.614C290.701 287.098 290.824 287.712 290.824 288.455V294H289.483V288.545C289.483 287.86 289.305 287.326 288.949 286.943C288.593 286.557 288.104 286.364 287.483 286.364C287.055 286.364 286.672 286.456 286.335 286.642C286.002 286.828 285.739 287.098 285.545 287.455C285.352 287.811 285.256 288.242 285.256 288.75ZM297.07 285.273V286.409H292.547V285.273H297.07ZM293.865 283.182H295.206V291.5C295.206 291.879 295.261 292.163 295.371 292.352C295.484 292.538 295.628 292.663 295.803 292.727C295.981 292.788 296.168 292.818 296.365 292.818C296.513 292.818 296.634 292.811 296.729 292.795C296.823 292.777 296.899 292.761 296.956 292.75L297.229 293.955C297.138 293.989 297.011 294.023 296.848 294.057C296.685 294.095 296.479 294.114 296.229 294.114C295.85 294.114 295.479 294.032 295.115 293.869C294.755 293.706 294.456 293.458 294.217 293.125C293.982 292.792 293.865 292.371 293.865 291.864V283.182Z" fill="black"/>
<path d="M148 256H4C2.34315 256 1 257.343 1 259V318C1 319.657 2.34315 321 4 321H148C149.657 321 151 319.657 151 318V259C151 257.343 149.657 256 148 256Z" fill="#E1F5FE" stroke="#01579B"/>
<path d="M67.3033 282.364H68.7124V290.068C68.7124 290.864 68.5249 291.574 68.1499 292.199C67.7786 292.82 67.254 293.311 66.576 293.67C65.898 294.027 65.1025 294.205 64.1896 294.205C63.2768 294.205 62.4813 294.027 61.8033 293.67C61.1252 293.311 60.5987 292.82 60.2237 292.199C59.8525 291.574 59.6669 290.864 59.6669 290.068V282.364H61.076V289.955C61.076 290.523 61.201 291.028 61.451 291.472C61.701 291.911 62.0571 292.258 62.5192 292.511C62.9851 292.761 63.5419 292.886 64.1896 292.886C64.8374 292.886 65.3942 292.761 65.8601 292.511C66.326 292.258 66.6821 291.911 66.9283 291.472C67.1783 291.028 67.3033 290.523 67.3033 289.955V282.364ZM77.5263 287.227L76.3217 287.568C76.246 287.367 76.1342 287.172 75.9865 286.983C75.8426 286.79 75.6456 286.631 75.3956 286.506C75.1456 286.381 74.8255 286.318 74.4354 286.318C73.9013 286.318 73.4562 286.441 73.1001 286.688C72.7479 286.93 72.5717 287.239 72.5717 287.614C72.5717 287.947 72.6929 288.21 72.9354 288.403C73.1778 288.597 73.5566 288.758 74.0717 288.886L75.3672 289.205C76.1475 289.394 76.7289 289.684 77.1115 290.074C77.4941 290.46 77.6854 290.958 77.6854 291.568C77.6854 292.068 77.5414 292.515 77.2536 292.909C76.9695 293.303 76.5717 293.614 76.0604 293.841C75.549 294.068 74.9543 294.182 74.2763 294.182C73.3861 294.182 72.6494 293.989 72.0661 293.602C71.4827 293.216 71.1134 292.652 70.9581 291.909L72.2308 291.591C72.352 292.061 72.5812 292.413 72.9183 292.648C73.2592 292.883 73.7043 293 74.2536 293C74.8786 293 75.3748 292.867 75.7422 292.602C76.1134 292.333 76.299 292.011 76.299 291.636C76.299 291.333 76.1929 291.08 75.9808 290.875C75.7687 290.667 75.4429 290.511 75.0036 290.409L73.549 290.068C72.7498 289.879 72.1626 289.585 71.7876 289.188C71.4164 288.786 71.2308 288.284 71.2308 287.682C71.2308 287.189 71.3691 286.754 71.6456 286.375C71.9259 285.996 72.3066 285.699 72.7876 285.483C73.2725 285.267 73.8217 285.159 74.4354 285.159C75.299 285.159 75.977 285.348 76.4695 285.727C76.9657 286.106 77.3179 286.606 77.5263 287.227ZM83.3629 294.182C82.522 294.182 81.7966 293.996 81.1868 293.625C80.5807 293.25 80.1129 292.727 79.7834 292.057C79.4576 291.383 79.2947 290.598 79.2947 289.705C79.2947 288.811 79.4576 288.023 79.7834 287.341C80.1129 286.655 80.5713 286.121 81.1584 285.739C81.7493 285.352 82.4387 285.159 83.2266 285.159C83.6811 285.159 84.13 285.235 84.5732 285.386C85.0163 285.538 85.4197 285.784 85.7834 286.125C86.147 286.462 86.4368 286.909 86.6527 287.466C86.8686 288.023 86.9766 288.708 86.9766 289.523V290.091H80.2493V288.932H85.6129C85.6129 288.439 85.5144 288 85.3175 287.614C85.1243 287.227 84.8478 286.922 84.4879 286.699C84.1319 286.475 83.7114 286.364 83.2266 286.364C82.6925 286.364 82.2304 286.496 81.8402 286.761C81.4538 287.023 81.1565 287.364 80.9482 287.784C80.7398 288.205 80.6357 288.655 80.6357 289.136V289.909C80.6357 290.568 80.7493 291.127 80.9766 291.585C81.2076 292.04 81.5277 292.386 81.9368 292.625C82.3459 292.86 82.8213 292.977 83.3629 292.977C83.7152 292.977 84.0334 292.928 84.3175 292.83C84.6054 292.727 84.8535 292.576 85.0618 292.375C85.2701 292.17 85.4311 291.917 85.5447 291.614L86.8402 291.977C86.7038 292.417 86.4747 292.803 86.1527 293.136C85.8307 293.466 85.433 293.723 84.9595 293.909C84.486 294.091 83.9538 294.182 83.3629 294.182ZM89.0163 294V285.273H90.3118V286.591H90.4027C90.5618 286.159 90.8497 285.809 91.2663 285.54C91.683 285.271 92.1527 285.136 92.6754 285.136C92.7739 285.136 92.897 285.138 93.0447 285.142C93.1925 285.146 93.3042 285.152 93.38 285.159V286.523C93.3345 286.511 93.2304 286.494 93.0675 286.472C92.9084 286.445 92.7398 286.432 92.5618 286.432C92.1375 286.432 91.7588 286.521 91.4254 286.699C91.0959 286.873 90.8345 287.116 90.6413 287.426C90.4519 287.733 90.3572 288.083 90.3572 288.477V294H89.0163Z" fill="black"/>
<path d="M73.86 111H19.14C18.5104 111 18 112.798 18 115.015V193.985C18 196.202 18.5104 198 19.14 198H73.86C74.4896 198 75 196.202 75 193.985V115.015C75 112.798 74.4896 111 73.86 111Z" fill="#FCA5A5" stroke="#EF4444"/>
<path d="M36.576 159.379L34.7031 152.833H36.2148L37.2983 157.381H37.3526L38.5479 152.833H39.8423L41.0344 157.391H41.0919L42.1754 152.833H43.6871L41.8142 159.379H40.4655L39.2191 155.099H39.1679L37.9247 159.379H36.576ZM44.8968 159.379H43.4138L45.6734 152.833H47.4568L49.7132 159.379H48.2302L46.5907 154.329H46.5396L44.8968 159.379ZM44.8041 156.806H48.307V157.886H44.8041V156.806ZM51.8849 152.833V159.379H50.501V152.833H51.8849ZM52.7742 153.974V152.833H58.1499V153.974H56.146V159.379H54.7781V153.974H52.7742Z" fill="#E7000B"/>
<path d="M113.373 90.75V96H112.032V87.2727H113.327V88.6364H113.441C113.646 88.1932 113.956 87.8371 114.373 87.5682C114.79 87.2955 115.327 87.1591 115.987 87.1591C116.577 87.1591 117.094 87.2803 117.538 87.5227C117.981 87.7614 118.326 88.125 118.572 88.6136C118.818 89.0985 118.941 89.7121 118.941 90.4545V96H117.6V90.5455C117.6 89.8598 117.422 89.3258 117.066 88.9432C116.71 88.5568 116.221 88.3636 115.6 88.3636C115.172 88.3636 114.79 88.4564 114.452 88.642C114.119 88.8277 113.856 89.0985 113.663 89.4545C113.469 89.8106 113.373 90.2424 113.373 90.75ZM123.96 96.2045C123.406 96.2045 122.905 96.1004 122.454 95.892C122.003 95.6799 121.645 95.375 121.38 94.9773C121.115 94.5758 120.982 94.0909 120.982 93.5227C120.982 93.0227 121.081 92.6174 121.278 92.3068C121.475 91.9924 121.738 91.7462 122.067 91.5682C122.397 91.3902 122.761 91.2576 123.158 91.1705C123.56 91.0795 123.963 91.0076 124.369 90.9545C124.899 90.8864 125.329 90.8352 125.658 90.8011C125.992 90.7633 126.234 90.7008 126.386 90.6136C126.541 90.5265 126.619 90.375 126.619 90.1591V90.1136C126.619 89.553 126.465 89.1174 126.158 88.8068C125.855 88.4962 125.395 88.3409 124.778 88.3409C124.138 88.3409 123.636 88.4811 123.272 88.7614C122.908 89.0417 122.653 89.3409 122.505 89.6591L121.232 89.2045C121.46 88.6742 121.763 88.2614 122.141 87.9659C122.524 87.6667 122.941 87.4583 123.391 87.3409C123.846 87.2197 124.293 87.1591 124.732 87.1591C125.013 87.1591 125.335 87.1932 125.698 87.2614C126.066 87.3258 126.42 87.4602 126.761 87.6648C127.105 87.8693 127.391 88.178 127.619 88.5909C127.846 89.0038 127.96 89.5568 127.96 90.25V96H126.619V94.8182H126.55C126.46 95.0076 126.308 95.2102 126.096 95.4261C125.884 95.642 125.602 95.8258 125.249 95.9773C124.897 96.1288 124.467 96.2045 123.96 96.2045ZM124.164 95C124.694 95 125.141 94.8958 125.505 94.6875C125.872 94.4792 126.149 94.2102 126.335 93.8807C126.524 93.5511 126.619 93.2045 126.619 92.8409V91.6136C126.562 91.6818 126.437 91.7443 126.244 91.8011C126.054 91.8542 125.835 91.9015 125.585 91.9432C125.338 91.9811 125.098 92.0152 124.863 92.0455C124.632 92.072 124.444 92.0947 124.3 92.1136C123.952 92.1591 123.626 92.233 123.323 92.3352C123.024 92.4337 122.781 92.5833 122.596 92.7841C122.414 92.9811 122.323 93.25 122.323 93.5909C122.323 94.0568 122.496 94.4091 122.84 94.6477C123.189 94.8826 123.63 95 124.164 95ZM137.231 87.2727L134.004 96H132.64L129.413 87.2727H130.867L133.276 94.2273H133.367L135.776 87.2727H137.231ZM139.001 96V87.2727H140.342V96H139.001ZM139.683 85.8182C139.421 85.8182 139.196 85.7292 139.006 85.5511C138.821 85.3731 138.728 85.1591 138.728 84.9091C138.728 84.6591 138.821 84.4451 139.006 84.267C139.196 84.089 139.421 84 139.683 84C139.944 84 140.167 84.089 140.353 84.267C140.542 84.4451 140.637 84.6591 140.637 84.9091C140.637 85.1591 140.542 85.3731 140.353 85.5511C140.167 85.7292 139.944 85.8182 139.683 85.8182ZM146.32 99.4545C145.673 99.4545 145.116 99.3712 144.65 99.2045C144.184 99.0417 143.796 98.8258 143.485 98.5568C143.178 98.2917 142.934 98.0076 142.752 97.7045L143.82 96.9545C143.942 97.1136 144.095 97.2955 144.281 97.5C144.466 97.7083 144.72 97.8883 145.042 98.0398C145.368 98.1951 145.794 98.2727 146.32 98.2727C147.025 98.2727 147.606 98.1023 148.065 97.7614C148.523 97.4205 148.752 96.8864 148.752 96.1591V94.3864H148.638C148.54 94.5455 148.4 94.7424 148.218 94.9773C148.04 95.2083 147.782 95.4148 147.445 95.5966C147.112 95.7746 146.661 95.8636 146.093 95.8636C145.388 95.8636 144.756 95.697 144.195 95.3636C143.638 95.0303 143.197 94.5455 142.871 93.9091C142.549 93.2727 142.388 92.5 142.388 91.5909C142.388 90.697 142.546 89.9186 142.86 89.2557C143.174 88.589 143.612 88.0739 144.173 87.7102C144.733 87.3428 145.381 87.1591 146.116 87.1591C146.684 87.1591 147.135 87.2538 147.468 87.4432C147.805 87.6288 148.063 87.8409 148.241 88.0795C148.423 88.3144 148.563 88.5076 148.661 88.6591H148.798V87.2727H150.093V96.25C150.093 97 149.923 97.6098 149.582 98.0795C149.245 98.553 148.79 98.8996 148.218 99.1193C147.65 99.3428 147.017 99.4545 146.32 99.4545ZM146.275 94.6591C146.813 94.6591 147.267 94.536 147.638 94.2898C148.01 94.0436 148.292 93.6894 148.485 93.2273C148.678 92.7652 148.775 92.2121 148.775 91.5682C148.775 90.9394 148.68 90.3845 148.491 89.9034C148.301 89.4223 148.021 89.0455 147.65 88.7727C147.279 88.5 146.82 88.3636 146.275 88.3636C145.707 88.3636 145.233 88.5076 144.854 88.7955C144.479 89.0833 144.197 89.4697 144.008 89.9545C143.822 90.4394 143.729 90.9773 143.729 91.5682C143.729 92.1742 143.824 92.7102 144.013 93.1761C144.207 93.6383 144.491 94.0019 144.866 94.267C145.245 94.5284 145.714 94.6591 146.275 94.6591ZM155.116 96.2045C154.563 96.2045 154.061 96.1004 153.61 95.892C153.159 95.6799 152.801 95.375 152.536 94.9773C152.271 94.5758 152.138 94.0909 152.138 93.5227C152.138 93.0227 152.237 92.6174 152.434 92.3068C152.631 91.9924 152.894 91.7462 153.224 91.5682C153.553 91.3902 153.917 91.2576 154.315 91.1705C154.716 91.0795 155.12 91.0076 155.525 90.9545C156.055 90.8864 156.485 90.8352 156.815 90.8011C157.148 90.7633 157.39 90.7008 157.542 90.6136C157.697 90.5265 157.775 90.375 157.775 90.1591V90.1136C157.775 89.553 157.621 89.1174 157.315 88.8068C157.012 88.4962 156.551 88.3409 155.934 88.3409C155.294 88.3409 154.792 88.4811 154.428 88.7614C154.065 89.0417 153.809 89.3409 153.661 89.6591L152.388 89.2045C152.616 88.6742 152.919 88.2614 153.298 87.9659C153.68 87.6667 154.097 87.4583 154.548 87.3409C155.002 87.2197 155.449 87.1591 155.888 87.1591C156.169 87.1591 156.491 87.1932 156.854 87.2614C157.222 87.3258 157.576 87.4602 157.917 87.6648C158.262 87.8693 158.548 88.178 158.775 88.5909C159.002 89.0038 159.116 89.5568 159.116 90.25V96H157.775V94.8182H157.707C157.616 95.0076 157.464 95.2102 157.252 95.4261C157.04 95.642 156.758 95.8258 156.406 95.9773C156.053 96.1288 155.623 96.2045 155.116 96.2045ZM155.32 95C155.851 95 156.298 94.8958 156.661 94.6875C157.029 94.4792 157.305 94.2102 157.491 93.8807C157.68 93.5511 157.775 93.2045 157.775 92.8409V91.6136C157.718 91.6818 157.593 91.7443 157.4 91.8011C157.21 91.8542 156.991 91.9015 156.741 91.9432C156.495 91.9811 156.254 92.0152 156.019 92.0455C155.788 92.072 155.601 92.0947 155.457 92.1136C155.108 92.1591 154.782 92.233 154.479 92.3352C154.18 92.4337 153.938 92.5833 153.752 92.7841C153.57 92.9811 153.479 93.25 153.479 93.5909C153.479 94.0568 153.652 94.4091 153.996 94.6477C154.345 94.8826 154.786 95 155.32 95ZM165.359 87.2727V88.4091H160.836V87.2727H165.359ZM162.154 85.1818H163.495V93.5C163.495 93.8788 163.55 94.1629 163.66 94.3523C163.773 94.5379 163.917 94.6629 164.092 94.7273C164.27 94.7879 164.457 94.8182 164.654 94.8182C164.802 94.8182 164.923 94.8106 165.018 94.7955C165.112 94.7765 165.188 94.7614 165.245 94.75L165.518 95.9545C165.427 95.9886 165.3 96.0227 165.137 96.0568C164.974 96.0947 164.768 96.1136 164.518 96.1136C164.139 96.1136 163.768 96.0322 163.404 95.8693C163.044 95.7064 162.745 95.4583 162.506 95.125C162.272 94.7917 162.154 94.3712 162.154 93.8636V85.1818ZM170.941 96.1818C170.1 96.1818 169.375 95.9962 168.765 95.625C168.159 95.25 167.691 94.7273 167.362 94.0568C167.036 93.3826 166.873 92.5985 166.873 91.7045C166.873 90.8106 167.036 90.0227 167.362 89.3409C167.691 88.6553 168.149 88.1212 168.737 87.7386C169.327 87.3523 170.017 87.1591 170.805 87.1591C171.259 87.1591 171.708 87.2348 172.151 87.3864C172.594 87.5379 172.998 87.7841 173.362 88.125C173.725 88.4621 174.015 88.9091 174.231 89.4659C174.447 90.0227 174.555 90.7083 174.555 91.5227V92.0909H167.827V90.9318H173.191C173.191 90.4394 173.093 90 172.896 89.6136C172.702 89.2273 172.426 88.9223 172.066 88.6989C171.71 88.4754 171.29 88.3636 170.805 88.3636C170.271 88.3636 169.808 88.4962 169.418 88.7614C169.032 89.0227 168.735 89.3636 168.526 89.7841C168.318 90.2045 168.214 90.6553 168.214 91.1364V91.9091C168.214 92.5682 168.327 93.1269 168.555 93.5852C168.786 94.0398 169.106 94.3864 169.515 94.625C169.924 94.8598 170.399 94.9773 170.941 94.9773C171.293 94.9773 171.612 94.928 171.896 94.8295C172.183 94.7273 172.432 94.5758 172.64 94.375C172.848 94.1705 173.009 93.9167 173.123 93.6136L174.418 93.9773C174.282 94.4167 174.053 94.803 173.731 95.1364C173.409 95.4659 173.011 95.7235 172.538 95.9091C172.064 96.0909 171.532 96.1818 170.941 96.1818ZM184.89 87.2727V88.4091H180.367V87.2727H184.89ZM181.685 85.1818H183.026V93.5C183.026 93.8788 183.081 94.1629 183.191 94.3523C183.305 94.5379 183.449 94.6629 183.623 94.7273C183.801 94.7879 183.988 94.8182 184.185 94.8182C184.333 94.8182 184.454 94.8106 184.549 94.7955C184.644 94.7765 184.719 94.7614 184.776 94.75L185.049 95.9545C184.958 95.9886 184.831 96.0227 184.668 96.0568C184.505 96.0947 184.299 96.1136 184.049 96.1136C183.67 96.1136 183.299 96.0322 182.935 95.8693C182.576 95.7064 182.276 95.4583 182.038 95.125C181.803 94.7917 181.685 94.3712 181.685 93.8636V85.1818ZM190.359 96.1818C189.571 96.1818 188.879 95.9943 188.285 95.6193C187.694 95.2443 187.232 94.7197 186.898 94.0455C186.569 93.3712 186.404 92.5833 186.404 91.6818C186.404 90.7727 186.569 89.9792 186.898 89.3011C187.232 88.6231 187.694 88.0966 188.285 87.7216C188.879 87.3466 189.571 87.1591 190.359 87.1591C191.147 87.1591 191.836 87.3466 192.427 87.7216C193.022 88.0966 193.484 88.6231 193.813 89.3011C194.147 89.9792 194.313 90.7727 194.313 91.6818C194.313 92.5833 194.147 93.3712 193.813 94.0455C193.484 94.7197 193.022 95.2443 192.427 95.6193C191.836 95.9943 191.147 96.1818 190.359 96.1818ZM190.359 94.9773C190.957 94.9773 191.45 94.8239 191.836 94.517C192.222 94.2102 192.508 93.8068 192.694 93.3068C192.879 92.8068 192.972 92.2652 192.972 91.6818C192.972 91.0985 192.879 90.5549 192.694 90.0511C192.508 89.5473 192.222 89.1402 191.836 88.8295C191.45 88.5189 190.957 88.3636 190.359 88.3636C189.76 88.3636 189.268 88.5189 188.881 88.8295C188.495 89.1402 188.209 89.5473 188.023 90.0511C187.838 90.5549 187.745 91.0985 187.745 91.6818C187.745 92.2652 187.838 92.8068 188.023 93.3068C188.209 93.8068 188.495 94.2102 188.881 94.517C189.268 94.8239 189.76 94.9773 190.359 94.9773ZM200.86 96V87.2727H202.156V88.5909H202.246C202.406 88.1591 202.693 87.8087 203.11 87.5398C203.527 87.2708 203.996 87.1364 204.519 87.1364C204.618 87.1364 204.741 87.1383 204.888 87.142C205.036 87.1458 205.148 87.1515 205.224 87.1591V88.5227C205.178 88.5114 205.074 88.4943 204.911 88.4716C204.752 88.4451 204.584 88.4318 204.406 88.4318C203.981 88.4318 203.603 88.5208 203.269 88.6989C202.94 88.8731 202.678 89.1155 202.485 89.4261C202.296 89.733 202.201 90.0833 202.201 90.4773V96H200.86ZM210.093 96.1818C209.305 96.1818 208.614 95.9943 208.019 95.6193C207.428 95.2443 206.966 94.7197 206.633 94.0455C206.303 93.3712 206.138 92.5833 206.138 91.6818C206.138 90.7727 206.303 89.9792 206.633 89.3011C206.966 88.6231 207.428 88.0966 208.019 87.7216C208.614 87.3466 209.305 87.1591 210.093 87.1591C210.881 87.1591 211.57 87.3466 212.161 87.7216C212.756 88.0966 213.218 88.6231 213.548 89.3011C213.881 89.9792 214.048 90.7727 214.048 91.6818C214.048 92.5833 213.881 93.3712 213.548 94.0455C213.218 94.7197 212.756 95.2443 212.161 95.6193C211.57 95.9943 210.881 96.1818 210.093 96.1818ZM210.093 94.9773C210.692 94.9773 211.184 94.8239 211.57 94.517C211.957 94.2102 212.243 93.8068 212.428 93.3068C212.614 92.8068 212.707 92.2652 212.707 91.6818C212.707 91.0985 212.614 90.5549 212.428 90.0511C212.243 89.5473 211.957 89.1402 211.57 88.8295C211.184 88.5189 210.692 88.3636 210.093 88.3636C209.495 88.3636 209.002 88.5189 208.616 88.8295C208.229 89.1402 207.943 89.5473 207.758 90.0511C207.572 90.5549 207.479 91.0985 207.479 91.6818C207.479 92.2652 207.572 92.8068 207.758 93.3068C207.943 93.8068 208.229 94.2102 208.616 94.517C209.002 94.8239 209.495 94.9773 210.093 94.9773ZM221.594 92.4318V87.2727H222.935V96H221.594V94.5227H221.504C221.299 94.9659 220.981 95.3428 220.549 95.6534C220.117 95.9602 219.572 96.1136 218.913 96.1136C218.367 96.1136 217.882 95.9943 217.458 95.7557C217.034 95.5133 216.701 95.1496 216.458 94.6648C216.216 94.1761 216.094 93.5606 216.094 92.8182V87.2727H217.435V92.7273C217.435 93.3636 217.613 93.8712 217.969 94.25C218.329 94.6288 218.788 94.8182 219.344 94.8182C219.678 94.8182 220.017 94.733 220.362 94.5625C220.71 94.392 221.002 94.1307 221.237 93.7784C221.475 93.4261 221.594 92.9773 221.594 92.4318ZM229.187 87.2727V88.4091H224.664V87.2727H229.187ZM225.982 85.1818H227.323V93.5C227.323 93.8788 227.378 94.1629 227.488 94.3523C227.602 94.5379 227.746 94.6629 227.92 94.7273C228.098 94.7879 228.285 94.8182 228.482 94.8182C228.63 94.8182 228.751 94.8106 228.846 94.7955C228.941 94.7765 229.016 94.7614 229.073 94.75L229.346 95.9545C229.255 95.9886 229.128 96.0227 228.965 96.0568C228.802 96.0947 228.596 96.1136 228.346 96.1136C227.967 96.1136 227.596 96.0322 227.232 95.8693C226.872 95.7064 226.573 95.4583 226.335 95.125C226.1 94.7917 225.982 94.3712 225.982 93.8636V85.1818ZM234.769 96.1818C233.928 96.1818 233.203 95.9962 232.593 95.625C231.987 95.25 231.519 94.7273 231.19 94.0568C230.864 93.3826 230.701 92.5985 230.701 91.7045C230.701 90.8106 230.864 90.0227 231.19 89.3409C231.519 88.6553 231.978 88.1212 232.565 87.7386C233.156 87.3523 233.845 87.1591 234.633 87.1591C235.087 87.1591 235.536 87.2348 235.979 87.3864C236.423 87.5379 236.826 87.7841 237.19 88.125C237.553 88.4621 237.843 88.9091 238.059 89.4659C238.275 90.0227 238.383 90.7083 238.383 91.5227V92.0909H231.656V90.9318H237.019C237.019 90.4394 236.921 90 236.724 89.6136C236.531 89.2273 236.254 88.9223 235.894 88.6989C235.538 88.4754 235.118 88.3636 234.633 88.3636C234.099 88.3636 233.637 88.4962 233.246 88.7614C232.86 89.0227 232.563 89.3636 232.354 89.7841C232.146 90.2045 232.042 90.6553 232.042 91.1364V91.9091C232.042 92.5682 232.156 93.1269 232.383 93.5852C232.614 94.0398 232.934 94.3864 233.343 94.625C233.752 94.8598 234.228 94.9773 234.769 94.9773C235.121 94.9773 235.44 94.928 235.724 94.8295C236.012 94.7273 236.26 94.5758 236.468 94.375C236.676 94.1705 236.837 93.9167 236.951 93.6136L238.246 93.9773C238.11 94.4167 237.881 94.803 237.559 95.1364C237.237 95.4659 236.839 95.7235 236.366 95.9091C235.892 96.0909 235.36 96.1818 234.769 96.1818Z" fill="black"/>
<path d="M272 112L264.5 107.67V116.33L272 112ZM77 112V112.75H265.25V112V111.25H77V112Z" fill="black"/>
<path d="M121.923 221V212.273H123.218V213.591H123.309C123.468 213.159 123.756 212.809 124.173 212.54C124.589 212.271 125.059 212.136 125.582 212.136C125.68 212.136 125.803 212.138 125.951 212.142C126.099 212.146 126.21 212.152 126.286 212.159V213.523C126.241 213.511 126.137 213.494 125.974 213.472C125.815 213.445 125.646 213.432 125.468 213.432C125.044 213.432 124.665 213.521 124.332 213.699C124.002 213.873 123.741 214.116 123.548 214.426C123.358 214.733 123.263 215.083 123.263 215.477V221H121.923ZM131.156 221.182C130.368 221.182 129.676 220.994 129.082 220.619C128.491 220.244 128.029 219.72 127.695 219.045C127.366 218.371 127.201 217.583 127.201 216.682C127.201 215.773 127.366 214.979 127.695 214.301C128.029 213.623 128.491 213.097 129.082 212.722C129.676 212.347 130.368 212.159 131.156 212.159C131.943 212.159 132.633 212.347 133.224 212.722C133.818 213.097 134.281 213.623 134.61 214.301C134.943 214.979 135.11 215.773 135.11 216.682C135.11 217.583 134.943 218.371 134.61 219.045C134.281 219.72 133.818 220.244 133.224 220.619C132.633 220.994 131.943 221.182 131.156 221.182ZM131.156 219.977C131.754 219.977 132.246 219.824 132.633 219.517C133.019 219.21 133.305 218.807 133.491 218.307C133.676 217.807 133.769 217.265 133.769 216.682C133.769 216.098 133.676 215.555 133.491 215.051C133.305 214.547 133.019 214.14 132.633 213.83C132.246 213.519 131.754 213.364 131.156 213.364C130.557 213.364 130.065 213.519 129.678 213.83C129.292 214.14 129.006 214.547 128.82 215.051C128.635 215.555 128.542 216.098 128.542 216.682C128.542 217.265 128.635 217.807 128.82 218.307C129.006 218.807 129.292 219.21 129.678 219.517C130.065 219.824 130.557 219.977 131.156 219.977ZM142.657 217.432V212.273H143.998V221H142.657V219.523H142.566C142.362 219.966 142.043 220.343 141.612 220.653C141.18 220.96 140.634 221.114 139.975 221.114C139.43 221.114 138.945 220.994 138.521 220.756C138.096 220.513 137.763 220.15 137.521 219.665C137.278 219.176 137.157 218.561 137.157 217.818V212.273H138.498V217.727C138.498 218.364 138.676 218.871 139.032 219.25C139.392 219.629 139.85 219.818 140.407 219.818C140.74 219.818 141.079 219.733 141.424 219.562C141.772 219.392 142.064 219.131 142.299 218.778C142.538 218.426 142.657 217.977 142.657 217.432ZM150.249 212.273V213.409H145.727V212.273H150.249ZM147.045 210.182H148.386V218.5C148.386 218.879 148.441 219.163 148.55 219.352C148.664 219.538 148.808 219.663 148.982 219.727C149.16 219.788 149.348 219.818 149.545 219.818C149.692 219.818 149.814 219.811 149.908 219.795C150.003 219.777 150.079 219.761 150.136 219.75L150.408 220.955C150.317 220.989 150.191 221.023 150.028 221.057C149.865 221.095 149.658 221.114 149.408 221.114C149.03 221.114 148.658 221.032 148.295 220.869C147.935 220.706 147.636 220.458 147.397 220.125C147.162 219.792 147.045 219.371 147.045 218.864V210.182ZM155.832 221.182C154.991 221.182 154.265 220.996 153.656 220.625C153.049 220.25 152.582 219.727 152.252 219.057C151.926 218.383 151.763 217.598 151.763 216.705C151.763 215.811 151.926 215.023 152.252 214.341C152.582 213.655 153.04 213.121 153.627 212.739C154.218 212.352 154.907 212.159 155.695 212.159C156.15 212.159 156.599 212.235 157.042 212.386C157.485 212.538 157.888 212.784 158.252 213.125C158.616 213.462 158.906 213.909 159.121 214.466C159.337 215.023 159.445 215.708 159.445 216.523V217.091H152.718V215.932H158.082C158.082 215.439 157.983 215 157.786 214.614C157.593 214.227 157.317 213.922 156.957 213.699C156.601 213.475 156.18 213.364 155.695 213.364C155.161 213.364 154.699 213.496 154.309 213.761C153.923 214.023 153.625 214.364 153.417 214.784C153.209 215.205 153.104 215.655 153.104 216.136V216.909C153.104 217.568 153.218 218.127 153.445 218.585C153.676 219.04 153.996 219.386 154.406 219.625C154.815 219.86 155.29 219.977 155.832 219.977C156.184 219.977 156.502 219.928 156.786 219.83C157.074 219.727 157.322 219.576 157.531 219.375C157.739 219.17 157.9 218.917 158.013 218.614L159.309 218.977C159.173 219.417 158.943 219.803 158.621 220.136C158.299 220.466 157.902 220.723 157.428 220.909C156.955 221.091 156.423 221.182 155.832 221.182ZM165.985 221V212.273H167.281V213.591H167.371C167.531 213.159 167.818 212.809 168.235 212.54C168.652 212.271 169.121 212.136 169.644 212.136C169.743 212.136 169.866 212.138 170.013 212.142C170.161 212.146 170.273 212.152 170.349 212.159V213.523C170.303 213.511 170.199 213.494 170.036 213.472C169.877 213.445 169.709 213.432 169.531 213.432C169.106 213.432 168.728 213.521 168.394 213.699C168.065 213.873 167.803 214.116 167.61 214.426C167.421 214.733 167.326 215.083 167.326 215.477V221H165.985ZM175.332 221.182C174.491 221.182 173.765 220.996 173.156 220.625C172.549 220.25 172.082 219.727 171.752 219.057C171.426 218.383 171.263 217.598 171.263 216.705C171.263 215.811 171.426 215.023 171.752 214.341C172.082 213.655 172.54 213.121 173.127 212.739C173.718 212.352 174.407 212.159 175.195 212.159C175.65 212.159 176.099 212.235 176.542 212.386C176.985 212.538 177.388 212.784 177.752 213.125C178.116 213.462 178.406 213.909 178.621 214.466C178.837 215.023 178.945 215.708 178.945 216.523V217.091H172.218V215.932H177.582C177.582 215.439 177.483 215 177.286 214.614C177.093 214.227 176.817 213.922 176.457 213.699C176.101 213.475 175.68 213.364 175.195 213.364C174.661 213.364 174.199 213.496 173.809 213.761C173.423 214.023 173.125 214.364 172.917 214.784C172.709 215.205 172.604 215.655 172.604 216.136V216.909C172.604 217.568 172.718 218.127 172.945 218.585C173.176 219.04 173.496 219.386 173.906 219.625C174.315 219.86 174.79 219.977 175.332 219.977C175.684 219.977 176.002 219.928 176.286 219.83C176.574 219.727 176.822 219.576 177.031 219.375C177.239 219.17 177.4 218.917 177.513 218.614L178.809 218.977C178.673 219.417 178.443 219.803 178.121 220.136C177.799 220.466 177.402 220.723 176.928 220.909C176.455 221.091 175.923 221.182 175.332 221.182ZM182.326 215.75V221H180.985V212.273H182.281V213.636H182.394C182.599 213.193 182.909 212.837 183.326 212.568C183.743 212.295 184.281 212.159 184.94 212.159C185.531 212.159 186.048 212.28 186.491 212.523C186.934 212.761 187.279 213.125 187.525 213.614C187.771 214.098 187.894 214.712 187.894 215.455V221H186.553V215.545C186.553 214.86 186.375 214.326 186.019 213.943C185.663 213.557 185.174 213.364 184.553 213.364C184.125 213.364 183.743 213.456 183.406 213.642C183.072 213.828 182.809 214.098 182.616 214.455C182.423 214.811 182.326 215.242 182.326 215.75ZM193.64 221.182C192.913 221.182 192.271 220.998 191.714 220.631C191.157 220.259 190.721 219.737 190.407 219.062C190.093 218.384 189.935 217.583 189.935 216.659C189.935 215.742 190.093 214.947 190.407 214.273C190.721 213.598 191.159 213.078 191.719 212.71C192.28 212.343 192.928 212.159 193.663 212.159C194.231 212.159 194.68 212.254 195.009 212.443C195.343 212.629 195.596 212.841 195.771 213.08C195.949 213.314 196.087 213.508 196.185 213.659H196.299V209.364H197.64V221H196.344V219.659H196.185C196.087 219.818 195.947 220.019 195.765 220.261C195.583 220.5 195.324 220.714 194.987 220.903C194.649 221.089 194.201 221.182 193.64 221.182ZM193.822 219.977C194.36 219.977 194.814 219.837 195.185 219.557C195.557 219.273 195.839 218.881 196.032 218.381C196.225 217.877 196.322 217.295 196.322 216.636C196.322 215.985 196.227 215.415 196.038 214.926C195.848 214.434 195.568 214.051 195.197 213.778C194.826 213.502 194.367 213.364 193.822 213.364C193.254 213.364 192.78 213.509 192.401 213.801C192.026 214.089 191.744 214.481 191.555 214.977C191.369 215.47 191.276 216.023 191.276 216.636C191.276 217.258 191.371 217.822 191.56 218.33C191.754 218.833 192.038 219.235 192.413 219.534C192.791 219.83 193.261 219.977 193.822 219.977ZM203.941 221.182C203.1 221.182 202.375 220.996 201.765 220.625C201.159 220.25 200.691 219.727 200.362 219.057C200.036 218.383 199.873 217.598 199.873 216.705C199.873 215.811 200.036 215.023 200.362 214.341C200.691 213.655 201.149 213.121 201.737 212.739C202.327 212.352 203.017 212.159 203.805 212.159C204.259 212.159 204.708 212.235 205.151 212.386C205.594 212.538 205.998 212.784 206.362 213.125C206.725 213.462 207.015 213.909 207.231 214.466C207.447 215.023 207.555 215.708 207.555 216.523V217.091H200.827V215.932H206.191C206.191 215.439 206.093 215 205.896 214.614C205.702 214.227 205.426 213.922 205.066 213.699C204.71 213.475 204.29 213.364 203.805 213.364C203.271 213.364 202.808 213.496 202.418 213.761C202.032 214.023 201.735 214.364 201.526 214.784C201.318 215.205 201.214 215.655 201.214 216.136V216.909C201.214 217.568 201.327 218.127 201.555 218.585C201.786 219.04 202.106 219.386 202.515 219.625C202.924 219.86 203.399 219.977 203.941 219.977C204.293 219.977 204.612 219.928 204.896 219.83C205.183 219.727 205.432 219.576 205.64 219.375C205.848 219.17 206.009 218.917 206.123 218.614L207.418 218.977C207.282 219.417 207.053 219.803 206.731 220.136C206.409 220.466 206.011 220.723 205.538 220.909C205.064 221.091 204.532 221.182 203.941 221.182ZM209.594 221V212.273H210.89V213.591H210.981C211.14 213.159 211.428 212.809 211.844 212.54C212.261 212.271 212.731 212.136 213.254 212.136C213.352 212.136 213.475 212.138 213.623 212.142C213.771 212.146 213.882 212.152 213.958 212.159V213.523C213.913 213.511 213.808 213.494 213.646 213.472C213.487 213.445 213.318 213.432 213.14 213.432C212.716 213.432 212.337 213.521 212.004 213.699C211.674 213.873 211.413 214.116 211.219 214.426C211.03 214.733 210.935 215.083 210.935 215.477V221H209.594ZM218.941 221.182C218.1 221.182 217.375 220.996 216.765 220.625C216.159 220.25 215.691 219.727 215.362 219.057C215.036 218.383 214.873 217.598 214.873 216.705C214.873 215.811 215.036 215.023 215.362 214.341C215.691 213.655 216.149 213.121 216.737 212.739C217.327 212.352 218.017 212.159 218.805 212.159C219.259 212.159 219.708 212.235 220.151 212.386C220.594 212.538 220.998 212.784 221.362 213.125C221.725 213.462 222.015 213.909 222.231 214.466C222.447 215.023 222.555 215.708 222.555 216.523V217.091H215.827V215.932H221.191C221.191 215.439 221.093 215 220.896 214.614C220.702 214.227 220.426 213.922 220.066 213.699C219.71 213.475 219.29 213.364 218.805 213.364C218.271 213.364 217.808 213.496 217.418 213.761C217.032 214.023 216.735 214.364 216.526 214.784C216.318 215.205 216.214 215.655 216.214 216.136V216.909C216.214 217.568 216.327 218.127 216.555 218.585C216.786 219.04 217.106 219.386 217.515 219.625C217.924 219.86 218.399 219.977 218.941 219.977C219.293 219.977 219.612 219.928 219.896 219.83C220.183 219.727 220.432 219.576 220.64 219.375C220.848 219.17 221.009 218.917 221.123 218.614L222.418 218.977C222.282 219.417 222.053 219.803 221.731 220.136C221.409 220.466 221.011 220.723 220.538 220.909C220.064 221.091 219.532 221.182 218.941 221.182ZM227.89 221.182C227.163 221.182 226.521 220.998 225.964 220.631C225.407 220.259 224.971 219.737 224.657 219.062C224.343 218.384 224.185 217.583 224.185 216.659C224.185 215.742 224.343 214.947 224.657 214.273C224.971 213.598 225.409 213.078 225.969 212.71C226.53 212.343 227.178 212.159 227.913 212.159C228.481 212.159 228.93 212.254 229.259 212.443C229.593 212.629 229.846 212.841 230.021 213.08C230.199 213.314 230.337 213.508 230.435 213.659H230.549V209.364H231.89V221H230.594V219.659H230.435C230.337 219.818 230.197 220.019 230.015 220.261C229.833 220.5 229.574 220.714 229.237 220.903C228.899 221.089 228.451 221.182 227.89 221.182ZM228.072 219.977C228.61 219.977 229.064 219.837 229.435 219.557C229.807 219.273 230.089 218.881 230.282 218.381C230.475 217.877 230.572 217.295 230.572 216.636C230.572 215.985 230.477 215.415 230.288 214.926C230.098 214.434 229.818 214.051 229.447 213.778C229.076 213.502 228.617 213.364 228.072 213.364C227.504 213.364 227.03 213.509 226.651 213.801C226.276 214.089 225.994 214.481 225.805 214.977C225.619 215.47 225.526 216.023 225.526 216.636C225.526 217.258 225.621 217.822 225.81 218.33C226.004 218.833 226.288 219.235 226.663 219.534C227.041 219.83 227.511 219.977 228.072 219.977Z" fill="black"/>
<path d="M79 198L86.5 202.33V193.67L79 198ZM85.75 198V198.75H274V198V197.25H85.75V198Z" fill="black"/>
<path d="M328.884 142V133.273H330.179V134.591H330.27C330.429 134.159 330.717 133.809 331.134 133.54C331.55 133.271 332.02 133.136 332.543 133.136C332.641 133.136 332.764 133.138 332.912 133.142C333.06 133.146 333.171 133.152 333.247 133.159V134.523C333.202 134.511 333.098 134.494 332.935 134.472C332.776 134.445 332.607 134.432 332.429 134.432C332.005 134.432 331.626 134.521 331.293 134.699C330.963 134.873 330.702 135.116 330.509 135.426C330.319 135.733 330.224 136.083 330.224 136.477V142H328.884ZM338.23 142.182C337.389 142.182 336.664 141.996 336.054 141.625C335.448 141.25 334.98 140.727 334.651 140.057C334.325 139.383 334.162 138.598 334.162 137.705C334.162 136.811 334.325 136.023 334.651 135.341C334.98 134.655 335.438 134.121 336.026 133.739C336.616 133.352 337.306 133.159 338.094 133.159C338.548 133.159 338.997 133.235 339.44 133.386C339.884 133.538 340.287 133.784 340.651 134.125C341.014 134.462 341.304 134.909 341.52 135.466C341.736 136.023 341.844 136.708 341.844 137.523V138.091H335.116V136.932H340.48C340.48 136.439 340.382 136 340.185 135.614C339.991 135.227 339.715 134.922 339.355 134.699C338.999 134.475 338.579 134.364 338.094 134.364C337.56 134.364 337.098 134.496 336.707 134.761C336.321 135.023 336.024 135.364 335.815 135.784C335.607 136.205 335.503 136.655 335.503 137.136V137.909C335.503 138.568 335.616 139.127 335.844 139.585C336.075 140.04 336.395 140.386 336.804 140.625C337.213 140.86 337.688 140.977 338.23 140.977C338.582 140.977 338.901 140.928 339.185 140.83C339.473 140.727 339.721 140.576 339.929 140.375C340.137 140.17 340.298 139.917 340.412 139.614L341.707 139.977C341.571 140.417 341.342 140.803 341.02 141.136C340.698 141.466 340.3 141.723 339.827 141.909C339.353 142.091 338.821 142.182 338.23 142.182ZM349.838 145.273V140.659H349.724C349.626 140.818 349.486 141.019 349.304 141.261C349.122 141.5 348.863 141.714 348.526 141.903C348.188 142.089 347.74 142.182 347.179 142.182C346.452 142.182 345.81 141.998 345.253 141.631C344.696 141.259 344.26 140.737 343.946 140.062C343.632 139.384 343.474 138.583 343.474 137.659C343.474 136.742 343.632 135.947 343.946 135.273C344.26 134.598 344.698 134.078 345.259 133.71C345.819 133.343 346.467 133.159 347.202 133.159C347.77 133.159 348.219 133.254 348.548 133.443C348.882 133.629 349.135 133.841 349.31 134.08C349.488 134.314 349.626 134.508 349.724 134.659H349.884V133.273H351.179V145.273H349.838ZM347.361 140.977C347.899 140.977 348.353 140.837 348.724 140.557C349.096 140.273 349.378 139.881 349.571 139.381C349.764 138.877 349.861 138.295 349.861 137.636C349.861 136.985 349.766 136.415 349.577 135.926C349.387 135.434 349.107 135.051 348.736 134.778C348.365 134.502 347.906 134.364 347.361 134.364C346.793 134.364 346.319 134.509 345.94 134.801C345.565 135.089 345.283 135.481 345.094 135.977C344.908 136.47 344.815 137.023 344.815 137.636C344.815 138.258 344.91 138.822 345.099 139.33C345.293 139.833 345.577 140.235 345.952 140.534C346.33 140.83 346.8 140.977 347.361 140.977ZM359.134 138.432V133.273H360.474V142H359.134V140.523H359.043C358.838 140.966 358.52 141.343 358.088 141.653C357.656 141.96 357.111 142.114 356.452 142.114C355.906 142.114 355.421 141.994 354.997 141.756C354.573 141.513 354.24 141.15 353.997 140.665C353.755 140.176 353.634 139.561 353.634 138.818V133.273H354.974V138.727C354.974 139.364 355.152 139.871 355.509 140.25C355.868 140.629 356.327 140.818 356.884 140.818C357.217 140.818 357.556 140.733 357.901 140.562C358.249 140.392 358.541 140.131 358.776 139.778C359.014 139.426 359.134 138.977 359.134 138.432ZM366.589 142.182C365.749 142.182 365.023 141.996 364.413 141.625C363.807 141.25 363.339 140.727 363.01 140.057C362.684 139.383 362.521 138.598 362.521 137.705C362.521 136.811 362.684 136.023 363.01 135.341C363.339 134.655 363.798 134.121 364.385 133.739C364.976 133.352 365.665 133.159 366.453 133.159C366.908 133.159 367.357 133.235 367.8 133.386C368.243 133.538 368.646 133.784 369.01 134.125C369.374 134.462 369.663 134.909 369.879 135.466C370.095 136.023 370.203 136.708 370.203 137.523V138.091H363.476V136.932H368.839C368.839 136.439 368.741 136 368.544 135.614C368.351 135.227 368.074 134.922 367.714 134.699C367.358 134.475 366.938 134.364 366.453 134.364C365.919 134.364 365.457 134.496 365.067 134.761C364.68 135.023 364.383 135.364 364.175 135.784C363.966 136.205 363.862 136.655 363.862 137.136V137.909C363.862 138.568 363.976 139.127 364.203 139.585C364.434 140.04 364.754 140.386 365.163 140.625C365.572 140.86 366.048 140.977 366.589 140.977C366.942 140.977 367.26 140.928 367.544 140.83C367.832 140.727 368.08 140.576 368.288 140.375C368.497 140.17 368.658 139.917 368.771 139.614L370.067 139.977C369.93 140.417 369.701 140.803 369.379 141.136C369.057 141.466 368.66 141.723 368.186 141.909C367.713 142.091 367.18 142.182 366.589 142.182ZM378.425 135.227L377.22 135.568C377.144 135.367 377.033 135.172 376.885 134.983C376.741 134.79 376.544 134.631 376.294 134.506C376.044 134.381 375.724 134.318 375.334 134.318C374.8 134.318 374.355 134.441 373.999 134.688C373.646 134.93 373.47 135.239 373.47 135.614C373.47 135.947 373.591 136.21 373.834 136.403C374.076 136.597 374.455 136.758 374.97 136.886L376.266 137.205C377.046 137.394 377.627 137.684 378.01 138.074C378.393 138.46 378.584 138.958 378.584 139.568C378.584 140.068 378.44 140.515 378.152 140.909C377.868 141.303 377.47 141.614 376.959 141.841C376.447 142.068 375.853 142.182 375.175 142.182C374.285 142.182 373.548 141.989 372.964 141.602C372.381 141.216 372.012 140.652 371.857 139.909L373.129 139.591C373.25 140.061 373.48 140.413 373.817 140.648C374.158 140.883 374.603 141 375.152 141C375.777 141 376.273 140.867 376.641 140.602C377.012 140.333 377.197 140.011 377.197 139.636C377.197 139.333 377.091 139.08 376.879 138.875C376.667 138.667 376.341 138.511 375.902 138.409L374.447 138.068C373.648 137.879 373.061 137.585 372.686 137.188C372.315 136.786 372.129 136.284 372.129 135.682C372.129 135.189 372.268 134.754 372.544 134.375C372.824 133.996 373.205 133.699 373.686 133.483C374.171 133.267 374.72 133.159 375.334 133.159C376.197 133.159 376.875 133.348 377.368 133.727C377.864 134.106 378.216 134.606 378.425 135.227ZM384.398 133.273V134.409H379.875V133.273H384.398ZM381.193 131.182H382.534V139.5C382.534 139.879 382.589 140.163 382.699 140.352C382.813 140.538 382.956 140.663 383.131 140.727C383.309 140.788 383.496 140.818 383.693 140.818C383.841 140.818 383.962 140.811 384.057 140.795C384.152 140.777 384.227 140.761 384.284 140.75L384.557 141.955C384.466 141.989 384.339 142.023 384.176 142.057C384.013 142.095 383.807 142.114 383.557 142.114C383.178 142.114 382.807 142.032 382.443 141.869C382.083 141.706 381.784 141.458 381.545 141.125C381.311 140.792 381.193 140.371 381.193 139.864V131.182ZM390.915 145.273V133.273H392.21V134.659H392.369C392.468 134.508 392.604 134.314 392.778 134.08C392.956 133.841 393.21 133.629 393.54 133.443C393.873 133.254 394.324 133.159 394.892 133.159C395.627 133.159 396.275 133.343 396.835 133.71C397.396 134.078 397.833 134.598 398.148 135.273C398.462 135.947 398.619 136.742 398.619 137.659C398.619 138.583 398.462 139.384 398.148 140.062C397.833 140.737 397.398 141.259 396.841 141.631C396.284 141.998 395.642 142.182 394.915 142.182C394.354 142.182 393.905 142.089 393.568 141.903C393.231 141.714 392.972 141.5 392.79 141.261C392.608 141.019 392.468 140.818 392.369 140.659H392.256V145.273H390.915ZM392.233 137.636C392.233 138.295 392.33 138.877 392.523 139.381C392.716 139.881 392.998 140.273 393.369 140.557C393.741 140.837 394.195 140.977 394.733 140.977C395.294 140.977 395.761 140.83 396.136 140.534C396.515 140.235 396.799 139.833 396.989 139.33C397.182 138.822 397.278 138.258 397.278 137.636C397.278 137.023 397.184 136.47 396.994 135.977C396.809 135.481 396.527 135.089 396.148 134.801C395.773 134.509 395.301 134.364 394.733 134.364C394.188 134.364 393.729 134.502 393.358 134.778C392.987 135.051 392.706 135.434 392.517 135.926C392.328 136.415 392.233 136.985 392.233 137.636ZM403.233 142.205C402.68 142.205 402.178 142.1 401.727 141.892C401.277 141.68 400.919 141.375 400.653 140.977C400.388 140.576 400.256 140.091 400.256 139.523C400.256 139.023 400.354 138.617 400.551 138.307C400.748 137.992 401.011 137.746 401.341 137.568C401.67 137.39 402.034 137.258 402.432 137.17C402.833 137.08 403.237 137.008 403.642 136.955C404.172 136.886 404.602 136.835 404.932 136.801C405.265 136.763 405.508 136.701 405.659 136.614C405.814 136.527 405.892 136.375 405.892 136.159V136.114C405.892 135.553 405.739 135.117 405.432 134.807C405.129 134.496 404.669 134.341 404.051 134.341C403.411 134.341 402.909 134.481 402.545 134.761C402.182 135.042 401.926 135.341 401.778 135.659L400.506 135.205C400.733 134.674 401.036 134.261 401.415 133.966C401.797 133.667 402.214 133.458 402.665 133.341C403.119 133.22 403.566 133.159 404.006 133.159C404.286 133.159 404.608 133.193 404.972 133.261C405.339 133.326 405.693 133.46 406.034 133.665C406.379 133.869 406.665 134.178 406.892 134.591C407.119 135.004 407.233 135.557 407.233 136.25V142H405.892V140.818H405.824C405.733 141.008 405.581 141.21 405.369 141.426C405.157 141.642 404.875 141.826 404.523 141.977C404.17 142.129 403.741 142.205 403.233 142.205ZM403.438 141C403.968 141 404.415 140.896 404.778 140.688C405.146 140.479 405.422 140.21 405.608 139.881C405.797 139.551 405.892 139.205 405.892 138.841V137.614C405.835 137.682 405.71 137.744 405.517 137.801C405.328 137.854 405.108 137.902 404.858 137.943C404.612 137.981 404.371 138.015 404.136 138.045C403.905 138.072 403.718 138.095 403.574 138.114C403.225 138.159 402.9 138.233 402.597 138.335C402.297 138.434 402.055 138.583 401.869 138.784C401.688 138.981 401.597 139.25 401.597 139.591C401.597 140.057 401.769 140.409 402.114 140.648C402.462 140.883 402.903 141 403.438 141ZM410.232 145.273C410.004 145.273 409.802 145.254 409.624 145.216C409.446 145.182 409.322 145.148 409.254 145.114L409.595 143.932C409.921 144.015 410.209 144.045 410.459 144.023C410.709 144 410.93 143.888 411.124 143.688C411.321 143.491 411.5 143.17 411.663 142.727L411.913 142.045L408.686 133.273H410.141L412.55 140.227H412.641L415.05 133.273H416.504L412.8 143.273C412.633 143.723 412.427 144.097 412.18 144.392C411.934 144.691 411.648 144.913 411.322 145.057C411 145.201 410.637 145.273 410.232 145.273ZM419.615 130.364V142H418.274V130.364H419.615ZM425.616 142.182C424.829 142.182 424.137 141.994 423.543 141.619C422.952 141.244 422.49 140.72 422.156 140.045C421.827 139.371 421.662 138.583 421.662 137.682C421.662 136.773 421.827 135.979 422.156 135.301C422.49 134.623 422.952 134.097 423.543 133.722C424.137 133.347 424.829 133.159 425.616 133.159C426.404 133.159 427.094 133.347 427.685 133.722C428.279 134.097 428.741 134.623 429.071 135.301C429.404 135.979 429.571 136.773 429.571 137.682C429.571 138.583 429.404 139.371 429.071 140.045C428.741 140.72 428.279 141.244 427.685 141.619C427.094 141.994 426.404 142.182 425.616 142.182ZM425.616 140.977C426.215 140.977 426.707 140.824 427.094 140.517C427.48 140.21 427.766 139.807 427.952 139.307C428.137 138.807 428.23 138.265 428.23 137.682C428.23 137.098 428.137 136.555 427.952 136.051C427.766 135.547 427.48 135.14 427.094 134.83C426.707 134.519 426.215 134.364 425.616 134.364C425.018 134.364 424.526 134.519 424.139 134.83C423.753 135.14 423.467 135.547 423.281 136.051C423.096 136.555 423.003 137.098 423.003 137.682C423.003 138.265 423.096 138.807 423.281 139.307C423.467 139.807 423.753 140.21 424.139 140.517C424.526 140.824 425.018 140.977 425.616 140.977ZM434.186 142.205C433.633 142.205 433.131 142.1 432.68 141.892C432.23 141.68 431.872 141.375 431.607 140.977C431.341 140.576 431.209 140.091 431.209 139.523C431.209 139.023 431.307 138.617 431.504 138.307C431.701 137.992 431.964 137.746 432.294 137.568C432.624 137.39 432.987 137.258 433.385 137.17C433.786 137.08 434.19 137.008 434.595 136.955C435.125 136.886 435.555 136.835 435.885 136.801C436.218 136.763 436.461 136.701 436.612 136.614C436.768 136.527 436.845 136.375 436.845 136.159V136.114C436.845 135.553 436.692 135.117 436.385 134.807C436.082 134.496 435.622 134.341 435.004 134.341C434.364 134.341 433.862 134.481 433.499 134.761C433.135 135.042 432.879 135.341 432.732 135.659L431.459 135.205C431.686 134.674 431.989 134.261 432.368 133.966C432.75 133.667 433.167 133.458 433.618 133.341C434.072 133.22 434.519 133.159 434.959 133.159C435.239 133.159 435.561 133.193 435.925 133.261C436.292 133.326 436.646 133.46 436.987 133.665C437.332 133.869 437.618 134.178 437.845 134.591C438.072 135.004 438.186 135.557 438.186 136.25V142H436.845V140.818H436.777C436.686 141.008 436.535 141.21 436.322 141.426C436.11 141.642 435.828 141.826 435.476 141.977C435.124 142.129 434.694 142.205 434.186 142.205ZM434.391 141C434.921 141 435.368 140.896 435.732 140.688C436.099 140.479 436.375 140.21 436.561 139.881C436.75 139.551 436.845 139.205 436.845 138.841V137.614C436.788 137.682 436.663 137.744 436.47 137.801C436.281 137.854 436.061 137.902 435.811 137.943C435.565 137.981 435.324 138.015 435.089 138.045C434.858 138.072 434.671 138.095 434.527 138.114C434.179 138.159 433.853 138.233 433.55 138.335C433.25 138.434 433.008 138.583 432.822 138.784C432.641 138.981 432.55 139.25 432.55 139.591C432.55 140.057 432.722 140.409 433.067 140.648C433.415 140.883 433.857 141 434.391 141ZM443.929 142.182C443.202 142.182 442.56 141.998 442.003 141.631C441.446 141.259 441.01 140.737 440.696 140.062C440.382 139.384 440.224 138.583 440.224 137.659C440.224 136.742 440.382 135.947 440.696 135.273C441.01 134.598 441.448 134.078 442.009 133.71C442.569 133.343 443.217 133.159 443.952 133.159C444.52 133.159 444.969 133.254 445.298 133.443C445.632 133.629 445.885 133.841 446.06 134.08C446.238 134.314 446.376 134.508 446.474 134.659H446.588V130.364H447.929V142H446.634V140.659H446.474C446.376 140.818 446.236 141.019 446.054 141.261C445.872 141.5 445.613 141.714 445.276 141.903C444.938 142.089 444.49 142.182 443.929 142.182ZM444.111 140.977C444.649 140.977 445.103 140.837 445.474 140.557C445.846 140.273 446.128 139.881 446.321 139.381C446.514 138.877 446.611 138.295 446.611 137.636C446.611 136.985 446.516 136.415 446.327 135.926C446.137 135.434 445.857 135.051 445.486 134.778C445.115 134.502 444.656 134.364 444.111 134.364C443.543 134.364 443.069 134.509 442.69 134.801C442.315 135.089 442.033 135.481 441.844 135.977C441.658 136.47 441.565 137.023 441.565 137.636C441.565 138.258 441.66 138.822 441.849 139.33C442.043 139.833 442.327 140.235 442.702 140.534C443.08 140.83 443.55 140.977 444.111 140.977Z" fill="black"/>
<path d="M500 158L492.5 153.67V162.33L500 158ZM277 158V158.75H493.25V158V157.25H277V158Z" fill="black"/>
<path d="M309.391 200V191.273H310.687V192.591H310.778C310.937 192.159 311.225 191.809 311.641 191.54C312.058 191.271 312.528 191.136 313.05 191.136C313.149 191.136 313.272 191.138 313.42 191.142C313.567 191.146 313.679 191.152 313.755 191.159V192.523C313.71 192.511 313.605 192.494 313.442 192.472C313.283 192.445 313.115 192.432 312.937 192.432C312.513 192.432 312.134 192.521 311.8 192.699C311.471 192.873 311.21 193.116 311.016 193.426C310.827 193.733 310.732 194.083 310.732 194.477V200H309.391ZM318.738 200.182C317.897 200.182 317.172 199.996 316.562 199.625C315.956 199.25 315.488 198.727 315.158 198.057C314.833 197.383 314.67 196.598 314.67 195.705C314.67 194.811 314.833 194.023 315.158 193.341C315.488 192.655 315.946 192.121 316.533 191.739C317.124 191.352 317.814 191.159 318.602 191.159C319.056 191.159 319.505 191.235 319.948 191.386C320.391 191.538 320.795 191.784 321.158 192.125C321.522 192.462 321.812 192.909 322.028 193.466C322.244 194.023 322.352 194.708 322.352 195.523V196.091H315.624V194.932H320.988C320.988 194.439 320.889 194 320.692 193.614C320.499 193.227 320.223 192.922 319.863 192.699C319.507 192.475 319.086 192.364 318.602 192.364C318.067 192.364 317.605 192.496 317.215 192.761C316.829 193.023 316.531 193.364 316.323 193.784C316.115 194.205 316.011 194.655 316.011 195.136V195.909C316.011 196.568 316.124 197.127 316.352 197.585C316.583 198.04 316.903 198.386 317.312 198.625C317.721 198.86 318.196 198.977 318.738 198.977C319.09 198.977 319.408 198.928 319.692 198.83C319.98 198.727 320.228 198.576 320.437 198.375C320.645 198.17 320.806 197.917 320.92 197.614L322.215 197.977C322.079 198.417 321.85 198.803 321.528 199.136C321.206 199.466 320.808 199.723 320.335 199.909C319.861 200.091 319.329 200.182 318.738 200.182ZM328.187 191.273V192.409H323.664V191.273H328.187ZM324.982 189.182H326.323V197.5C326.323 197.879 326.378 198.163 326.488 198.352C326.602 198.538 326.746 198.663 326.92 198.727C327.098 198.788 327.285 198.818 327.482 198.818C327.63 198.818 327.751 198.811 327.846 198.795C327.941 198.777 328.016 198.761 328.073 198.75L328.346 199.955C328.255 199.989 328.128 200.023 327.965 200.057C327.802 200.095 327.596 200.114 327.346 200.114C326.967 200.114 326.596 200.032 326.232 199.869C325.872 199.706 325.573 199.458 325.335 199.125C325.1 198.792 324.982 198.371 324.982 197.864V189.182ZM335.704 196.432V191.273H337.045V200H335.704V198.523H335.613C335.408 198.966 335.09 199.343 334.658 199.653C334.227 199.96 333.681 200.114 333.022 200.114C332.477 200.114 331.992 199.994 331.567 199.756C331.143 199.513 330.81 199.15 330.567 198.665C330.325 198.176 330.204 197.561 330.204 196.818V191.273H331.545V196.727C331.545 197.364 331.723 197.871 332.079 198.25C332.439 198.629 332.897 198.818 333.454 198.818C333.787 198.818 334.126 198.733 334.471 198.562C334.819 198.392 335.111 198.131 335.346 197.778C335.585 197.426 335.704 196.977 335.704 196.432ZM339.501 200V191.273H340.796V192.591H340.887C341.046 192.159 341.334 191.809 341.751 191.54C342.167 191.271 342.637 191.136 343.16 191.136C343.258 191.136 343.381 191.138 343.529 191.142C343.677 191.146 343.789 191.152 343.864 191.159V192.523C343.819 192.511 343.715 192.494 343.552 192.472C343.393 192.445 343.224 192.432 343.046 192.432C342.622 192.432 342.243 192.521 341.91 192.699C341.58 192.873 341.319 193.116 341.126 193.426C340.936 193.733 340.842 194.083 340.842 194.477V200H339.501ZM346.795 194.75V200H345.454V191.273H346.749V192.636H346.863C347.067 192.193 347.378 191.837 347.795 191.568C348.211 191.295 348.749 191.159 349.408 191.159C349.999 191.159 350.516 191.28 350.96 191.523C351.403 191.761 351.747 192.125 351.994 192.614C352.24 193.098 352.363 193.712 352.363 194.455V200H351.022V194.545C351.022 193.86 350.844 193.326 350.488 192.943C350.132 192.557 349.643 192.364 349.022 192.364C348.594 192.364 348.211 192.456 347.874 192.642C347.541 192.828 347.278 193.098 347.085 193.455C346.891 193.811 346.795 194.242 346.795 194.75ZM362.859 200.182C362.04 200.182 361.336 199.989 360.745 199.602C360.154 199.216 359.7 198.684 359.381 198.006C359.063 197.328 358.904 196.553 358.904 195.682C358.904 194.795 359.067 194.013 359.393 193.335C359.722 192.653 360.181 192.121 360.768 191.739C361.359 191.352 362.048 191.159 362.836 191.159C363.45 191.159 364.003 191.273 364.495 191.5C364.987 191.727 365.391 192.045 365.705 192.455C366.02 192.864 366.215 193.341 366.29 193.886H364.95C364.847 193.489 364.62 193.136 364.268 192.83C363.919 192.519 363.45 192.364 362.859 192.364C362.336 192.364 361.878 192.5 361.484 192.773C361.094 193.042 360.789 193.422 360.569 193.915C360.353 194.403 360.245 194.977 360.245 195.636C360.245 196.311 360.351 196.898 360.563 197.398C360.779 197.898 361.082 198.286 361.472 198.562C361.866 198.839 362.328 198.977 362.859 198.977C363.207 198.977 363.523 198.917 363.808 198.795C364.092 198.674 364.332 198.5 364.529 198.273C364.726 198.045 364.866 197.773 364.95 197.455H366.29C366.215 197.97 366.027 198.434 365.728 198.847C365.433 199.256 365.04 199.581 364.552 199.824C364.067 200.062 363.503 200.182 362.859 200.182ZM370.819 200.205C370.266 200.205 369.764 200.1 369.313 199.892C368.862 199.68 368.504 199.375 368.239 198.977C367.974 198.576 367.842 198.091 367.842 197.523C367.842 197.023 367.94 196.617 368.137 196.307C368.334 195.992 368.597 195.746 368.927 195.568C369.256 195.39 369.62 195.258 370.018 195.17C370.419 195.08 370.823 195.008 371.228 194.955C371.758 194.886 372.188 194.835 372.518 194.801C372.851 194.763 373.094 194.701 373.245 194.614C373.4 194.527 373.478 194.375 373.478 194.159V194.114C373.478 193.553 373.325 193.117 373.018 192.807C372.715 192.496 372.254 192.341 371.637 192.341C370.997 192.341 370.495 192.481 370.131 192.761C369.768 193.042 369.512 193.341 369.364 193.659L368.092 193.205C368.319 192.674 368.622 192.261 369.001 191.966C369.383 191.667 369.8 191.458 370.251 191.341C370.705 191.22 371.152 191.159 371.592 191.159C371.872 191.159 372.194 191.193 372.558 191.261C372.925 191.326 373.279 191.46 373.62 191.665C373.965 191.869 374.251 192.178 374.478 192.591C374.705 193.004 374.819 193.557 374.819 194.25V200H373.478V198.818H373.41C373.319 199.008 373.167 199.21 372.955 199.426C372.743 199.642 372.461 199.826 372.109 199.977C371.756 200.129 371.326 200.205 370.819 200.205ZM371.023 199C371.554 199 372.001 198.896 372.364 198.688C372.732 198.479 373.008 198.21 373.194 197.881C373.383 197.551 373.478 197.205 373.478 196.841V195.614C373.421 195.682 373.296 195.744 373.103 195.801C372.914 195.854 372.694 195.902 372.444 195.943C372.198 195.981 371.957 196.015 371.722 196.045C371.491 196.072 371.304 196.095 371.16 196.114C370.811 196.159 370.486 196.233 370.183 196.335C369.883 196.434 369.641 196.583 369.455 196.784C369.273 196.981 369.183 197.25 369.183 197.591C369.183 198.057 369.355 198.409 369.7 198.648C370.048 198.883 370.489 199 371.023 199ZM380.812 200.182C379.994 200.182 379.289 199.989 378.698 199.602C378.107 199.216 377.653 198.684 377.335 198.006C377.016 197.328 376.857 196.553 376.857 195.682C376.857 194.795 377.02 194.013 377.346 193.335C377.675 192.653 378.134 192.121 378.721 191.739C379.312 191.352 380.001 191.159 380.789 191.159C381.403 191.159 381.956 191.273 382.448 191.5C382.941 191.727 383.344 192.045 383.658 192.455C383.973 192.864 384.168 193.341 384.244 193.886H382.903C382.8 193.489 382.573 193.136 382.221 192.83C381.872 192.519 381.403 192.364 380.812 192.364C380.289 192.364 379.831 192.5 379.437 192.773C379.047 193.042 378.742 193.422 378.522 193.915C378.306 194.403 378.198 194.977 378.198 195.636C378.198 196.311 378.304 196.898 378.516 197.398C378.732 197.898 379.035 198.286 379.425 198.562C379.819 198.839 380.281 198.977 380.812 198.977C381.16 198.977 381.477 198.917 381.761 198.795C382.045 198.674 382.285 198.5 382.482 198.273C382.679 198.045 382.819 197.773 382.903 197.455H384.244C384.168 197.97 383.98 198.434 383.681 198.847C383.386 199.256 382.994 199.581 382.505 199.824C382.02 200.062 381.456 200.182 380.812 200.182ZM387.545 194.75V200H386.204V188.364H387.545V192.636H387.658C387.863 192.186 388.17 191.828 388.579 191.562C388.992 191.294 389.541 191.159 390.227 191.159C390.821 191.159 391.342 191.278 391.789 191.517C392.236 191.752 392.583 192.114 392.829 192.602C393.079 193.087 393.204 193.705 393.204 194.455V200H391.863V194.545C391.863 193.852 391.683 193.316 391.323 192.938C390.967 192.555 390.473 192.364 389.84 192.364C389.401 192.364 389.007 192.456 388.658 192.642C388.314 192.828 388.041 193.098 387.84 193.455C387.643 193.811 387.545 194.242 387.545 194.75ZM399.316 200.182C398.475 200.182 397.75 199.996 397.14 199.625C396.534 199.25 396.066 198.727 395.737 198.057C395.411 197.383 395.248 196.598 395.248 195.705C395.248 194.811 395.411 194.023 395.737 193.341C396.066 192.655 396.524 192.121 397.112 191.739C397.702 191.352 398.392 191.159 399.18 191.159C399.634 191.159 400.083 191.235 400.526 191.386C400.969 191.538 401.373 191.784 401.737 192.125C402.1 192.462 402.39 192.909 402.606 193.466C402.822 194.023 402.93 194.708 402.93 195.523V196.091H396.202V194.932H401.566C401.566 194.439 401.468 194 401.271 193.614C401.077 193.227 400.801 192.922 400.441 192.699C400.085 192.475 399.665 192.364 399.18 192.364C398.646 192.364 398.183 192.496 397.793 192.761C397.407 193.023 397.11 193.364 396.901 193.784C396.693 194.205 396.589 194.655 396.589 195.136V195.909C396.589 196.568 396.702 197.127 396.93 197.585C397.161 198.04 397.481 198.386 397.89 198.625C398.299 198.86 398.774 198.977 399.316 198.977C399.668 198.977 399.987 198.928 400.271 198.83C400.558 198.727 400.807 198.576 401.015 198.375C401.223 198.17 401.384 197.917 401.498 197.614L402.793 197.977C402.657 198.417 402.428 198.803 402.106 199.136C401.784 199.466 401.386 199.723 400.913 199.909C400.439 200.091 399.907 200.182 399.316 200.182ZM408.265 200.182C407.538 200.182 406.896 199.998 406.339 199.631C405.782 199.259 405.346 198.737 405.032 198.062C404.718 197.384 404.56 196.583 404.56 195.659C404.56 194.742 404.718 193.947 405.032 193.273C405.346 192.598 405.784 192.078 406.344 191.71C406.905 191.343 407.553 191.159 408.288 191.159C408.856 191.159 409.305 191.254 409.634 191.443C409.968 191.629 410.221 191.841 410.396 192.08C410.574 192.314 410.712 192.508 410.81 192.659H410.924V188.364H412.265V200H410.969V198.659H410.81C410.712 198.818 410.572 199.019 410.39 199.261C410.208 199.5 409.949 199.714 409.612 199.903C409.274 200.089 408.826 200.182 408.265 200.182ZM408.447 198.977C408.985 198.977 409.439 198.837 409.81 198.557C410.182 198.273 410.464 197.881 410.657 197.381C410.85 196.877 410.947 196.295 410.947 195.636C410.947 194.985 410.852 194.415 410.663 193.926C410.473 193.434 410.193 193.051 409.822 192.778C409.451 192.502 408.992 192.364 408.447 192.364C407.879 192.364 407.405 192.509 407.026 192.801C406.651 193.089 406.369 193.481 406.18 193.977C405.994 194.47 405.901 195.023 405.901 195.636C405.901 196.258 405.996 196.822 406.185 197.33C406.379 197.833 406.663 198.235 407.038 198.534C407.416 198.83 407.886 198.977 408.447 198.977ZM419.407 203.273V191.273H420.702V192.659H420.862C420.96 192.508 421.096 192.314 421.271 192.08C421.449 191.841 421.702 191.629 422.032 191.443C422.365 191.254 422.816 191.159 423.384 191.159C424.119 191.159 424.767 191.343 425.327 191.71C425.888 192.078 426.326 192.598 426.64 193.273C426.954 193.947 427.112 194.742 427.112 195.659C427.112 196.583 426.954 197.384 426.64 198.062C426.326 198.737 425.89 199.259 425.333 199.631C424.776 199.998 424.134 200.182 423.407 200.182C422.846 200.182 422.397 200.089 422.06 199.903C421.723 199.714 421.464 199.5 421.282 199.261C421.1 199.019 420.96 198.818 420.862 198.659H420.748V203.273H419.407ZM420.725 195.636C420.725 196.295 420.822 196.877 421.015 197.381C421.208 197.881 421.49 198.273 421.862 198.557C422.233 198.837 422.687 198.977 423.225 198.977C423.786 198.977 424.254 198.83 424.629 198.534C425.007 198.235 425.291 197.833 425.481 197.33C425.674 196.822 425.771 196.258 425.771 195.636C425.771 195.023 425.676 194.47 425.487 193.977C425.301 193.481 425.019 193.089 424.64 192.801C424.265 192.509 423.793 192.364 423.225 192.364C422.68 192.364 422.221 192.502 421.85 192.778C421.479 193.051 421.199 193.434 421.009 193.926C420.82 194.415 420.725 194.985 420.725 195.636ZM431.725 200.205C431.172 200.205 430.67 200.1 430.219 199.892C429.769 199.68 429.411 199.375 429.146 198.977C428.88 198.576 428.748 198.091 428.748 197.523C428.748 197.023 428.846 196.617 429.043 196.307C429.24 195.992 429.504 195.746 429.833 195.568C430.163 195.39 430.526 195.258 430.924 195.17C431.326 195.08 431.729 195.008 432.134 194.955C432.665 194.886 433.094 194.835 433.424 194.801C433.757 194.763 434 194.701 434.151 194.614C434.307 194.527 434.384 194.375 434.384 194.159V194.114C434.384 193.553 434.231 193.117 433.924 192.807C433.621 192.496 433.161 192.341 432.543 192.341C431.903 192.341 431.401 192.481 431.038 192.761C430.674 193.042 430.418 193.341 430.271 193.659L428.998 193.205C429.225 192.674 429.528 192.261 429.907 191.966C430.29 191.667 430.706 191.458 431.157 191.341C431.612 191.22 432.058 191.159 432.498 191.159C432.778 191.159 433.1 191.193 433.464 191.261C433.831 191.326 434.185 191.46 434.526 191.665C434.871 191.869 435.157 192.178 435.384 192.591C435.612 193.004 435.725 193.557 435.725 194.25V200H434.384V198.818H434.316C434.225 199.008 434.074 199.21 433.862 199.426C433.649 199.642 433.367 199.826 433.015 199.977C432.663 200.129 432.233 200.205 431.725 200.205ZM431.93 199C432.46 199 432.907 198.896 433.271 198.688C433.638 198.479 433.915 198.21 434.1 197.881C434.29 197.551 434.384 197.205 434.384 196.841V195.614C434.327 195.682 434.202 195.744 434.009 195.801C433.82 195.854 433.6 195.902 433.35 195.943C433.104 195.981 432.863 196.015 432.629 196.045C432.397 196.072 432.21 196.095 432.066 196.114C431.718 196.159 431.392 196.233 431.089 196.335C430.79 196.434 430.547 196.583 430.362 196.784C430.18 196.981 430.089 197.25 430.089 197.591C430.089 198.057 430.261 198.409 430.606 198.648C430.954 198.883 431.396 199 431.93 199ZM438.724 203.273C438.496 203.273 438.294 203.254 438.116 203.216C437.938 203.182 437.815 203.148 437.746 203.114L438.087 201.932C438.413 202.015 438.701 202.045 438.951 202.023C439.201 202 439.423 201.888 439.616 201.688C439.813 201.491 439.993 201.17 440.156 200.727L440.406 200.045L437.178 191.273H438.633L441.042 198.227H441.133L443.542 191.273H444.996L441.292 201.273C441.125 201.723 440.919 202.097 440.673 202.392C440.426 202.691 440.14 202.913 439.815 203.057C439.493 203.201 439.129 203.273 438.724 203.273ZM448.107 188.364V200H446.766V188.364H448.107ZM454.109 200.182C453.321 200.182 452.629 199.994 452.035 199.619C451.444 199.244 450.982 198.72 450.648 198.045C450.319 197.371 450.154 196.583 450.154 195.682C450.154 194.773 450.319 193.979 450.648 193.301C450.982 192.623 451.444 192.097 452.035 191.722C452.629 191.347 453.321 191.159 454.109 191.159C454.897 191.159 455.586 191.347 456.177 191.722C456.772 192.097 457.234 192.623 457.563 193.301C457.897 193.979 458.063 194.773 458.063 195.682C458.063 196.583 457.897 197.371 457.563 198.045C457.234 198.72 456.772 199.244 456.177 199.619C455.586 199.994 454.897 200.182 454.109 200.182ZM454.109 198.977C454.707 198.977 455.2 198.824 455.586 198.517C455.972 198.21 456.258 197.807 456.444 197.307C456.629 196.807 456.722 196.265 456.722 195.682C456.722 195.098 456.629 194.555 456.444 194.051C456.258 193.547 455.972 193.14 455.586 192.83C455.2 192.519 454.707 192.364 454.109 192.364C453.51 192.364 453.018 192.519 452.631 192.83C452.245 193.14 451.959 193.547 451.773 194.051C451.588 194.555 451.495 195.098 451.495 195.682C451.495 196.265 451.588 196.807 451.773 197.307C451.959 197.807 452.245 198.21 452.631 198.517C453.018 198.824 453.51 198.977 454.109 198.977ZM462.678 200.205C462.125 200.205 461.623 200.1 461.173 199.892C460.722 199.68 460.364 199.375 460.099 198.977C459.834 198.576 459.701 198.091 459.701 197.523C459.701 197.023 459.799 196.617 459.996 196.307C460.193 195.992 460.457 195.746 460.786 195.568C461.116 195.39 461.479 195.258 461.877 195.17C462.279 195.08 462.682 195.008 463.087 194.955C463.618 194.886 464.048 194.835 464.377 194.801C464.71 194.763 464.953 194.701 465.104 194.614C465.26 194.527 465.337 194.375 465.337 194.159V194.114C465.337 193.553 465.184 193.117 464.877 192.807C464.574 192.496 464.114 192.341 463.496 192.341C462.856 192.341 462.354 192.481 461.991 192.761C461.627 193.042 461.371 193.341 461.224 193.659L459.951 193.205C460.178 192.674 460.481 192.261 460.86 191.966C461.243 191.667 461.659 191.458 462.11 191.341C462.565 191.22 463.012 191.159 463.451 191.159C463.731 191.159 464.053 191.193 464.417 191.261C464.784 191.326 465.138 191.46 465.479 191.665C465.824 191.869 466.11 192.178 466.337 192.591C466.565 193.004 466.678 193.557 466.678 194.25V200H465.337V198.818H465.269C465.178 199.008 465.027 199.21 464.815 199.426C464.603 199.642 464.32 199.826 463.968 199.977C463.616 200.129 463.186 200.205 462.678 200.205ZM462.883 199C463.413 199 463.86 198.896 464.224 198.688C464.591 198.479 464.868 198.21 465.053 197.881C465.243 197.551 465.337 197.205 465.337 196.841V195.614C465.281 195.682 465.156 195.744 464.962 195.801C464.773 195.854 464.553 195.902 464.303 195.943C464.057 195.981 463.817 196.015 463.582 196.045C463.351 196.072 463.163 196.095 463.019 196.114C462.671 196.159 462.345 196.233 462.042 196.335C461.743 196.434 461.5 196.583 461.315 196.784C461.133 196.981 461.042 197.25 461.042 197.591C461.042 198.057 461.214 198.409 461.559 198.648C461.907 198.883 462.349 199 462.883 199ZM472.421 200.182C471.694 200.182 471.052 199.998 470.495 199.631C469.938 199.259 469.503 198.737 469.188 198.062C468.874 197.384 468.717 196.583 468.717 195.659C468.717 194.742 468.874 193.947 469.188 193.273C469.503 192.598 469.94 192.078 470.501 191.71C471.061 191.343 471.709 191.159 472.444 191.159C473.012 191.159 473.461 191.254 473.79 191.443C474.124 191.629 474.378 191.841 474.552 192.08C474.73 192.314 474.868 192.508 474.967 192.659H475.08V188.364H476.421V200H475.126V198.659H474.967C474.868 198.818 474.728 199.019 474.546 199.261C474.364 199.5 474.105 199.714 473.768 199.903C473.431 200.089 472.982 200.182 472.421 200.182ZM472.603 198.977C473.141 198.977 473.595 198.837 473.967 198.557C474.338 198.273 474.62 197.881 474.813 197.381C475.006 196.877 475.103 196.295 475.103 195.636C475.103 194.985 475.008 194.415 474.819 193.926C474.629 193.434 474.349 193.051 473.978 192.778C473.607 192.502 473.148 192.364 472.603 192.364C472.035 192.364 471.561 192.509 471.183 192.801C470.808 193.089 470.525 193.481 470.336 193.977C470.15 194.47 470.058 195.023 470.058 195.636C470.058 196.258 470.152 196.822 470.342 197.33C470.535 197.833 470.819 198.235 471.194 198.534C471.573 198.83 472.042 198.977 472.603 198.977Z" fill="black"/>
<path d="M277 177L284.5 181.33V172.67L277 177ZM500 177V176.25H283.75V177V177.75H500V177Z" fill="black"/>
<path d="M651 142H507C505.343 142 504 143.137 504 144.538V194.462C504 195.863 505.343 197 507 197H651C652.657 197 654 195.863 654 194.462V144.538C654 143.137 652.657 142 651 142Z" fill="#EDF2AE" stroke="#8B9A47"/>
<path d="M566.093 168.461H564.684C564.601 168.056 564.455 167.7 564.246 167.393C564.042 167.086 563.792 166.828 563.496 166.62C563.205 166.408 562.881 166.249 562.525 166.143C562.169 166.037 561.798 165.984 561.411 165.984C560.707 165.984 560.068 166.162 559.496 166.518C558.928 166.874 558.476 167.398 558.138 168.092C557.805 168.785 557.638 169.635 557.638 170.643C557.638 171.65 557.805 172.501 558.138 173.194C558.476 173.887 558.928 174.412 559.496 174.768C560.068 175.124 560.707 175.302 561.411 175.302C561.798 175.302 562.169 175.249 562.525 175.143C562.881 175.037 563.205 174.879 563.496 174.671C563.792 174.459 564.042 174.2 564.246 173.893C564.455 173.582 564.601 173.226 564.684 172.825H566.093C565.987 173.419 565.794 173.951 565.513 174.421C565.233 174.891 564.885 175.29 564.468 175.62C564.051 175.946 563.584 176.194 563.065 176.364C562.549 176.535 561.998 176.62 561.411 176.62C560.419 176.62 559.536 176.378 558.763 175.893C557.991 175.408 557.383 174.719 556.94 173.825C556.496 172.931 556.275 171.87 556.275 170.643C556.275 169.415 556.496 168.355 556.94 167.461C557.383 166.567 557.991 165.878 558.763 165.393C559.536 164.908 560.419 164.665 561.411 164.665C561.998 164.665 562.549 164.751 563.065 164.921C563.584 165.092 564.051 165.342 564.468 165.671C564.885 165.997 565.233 166.395 565.513 166.864C565.794 167.33 565.987 167.862 566.093 168.461ZM570.756 176.665C570.203 176.665 569.701 176.561 569.251 176.353C568.8 176.141 568.442 175.836 568.177 175.438C567.912 175.037 567.779 174.552 567.779 173.984C567.779 173.484 567.878 173.078 568.075 172.768C568.272 172.453 568.535 172.207 568.864 172.029C569.194 171.851 569.558 171.719 569.955 171.631C570.357 171.54 570.76 171.469 571.165 171.415C571.696 171.347 572.126 171.296 572.455 171.262C572.789 171.224 573.031 171.162 573.183 171.075C573.338 170.987 573.415 170.836 573.415 170.62V170.575C573.415 170.014 573.262 169.578 572.955 169.268C572.652 168.957 572.192 168.802 571.575 168.802C570.934 168.802 570.433 168.942 570.069 169.222C569.705 169.503 569.45 169.802 569.302 170.12L568.029 169.665C568.256 169.135 568.559 168.722 568.938 168.427C569.321 168.128 569.737 167.919 570.188 167.802C570.643 167.681 571.09 167.62 571.529 167.62C571.809 167.62 572.131 167.654 572.495 167.722C572.862 167.787 573.217 167.921 573.558 168.126C573.902 168.33 574.188 168.639 574.415 169.052C574.643 169.465 574.756 170.018 574.756 170.711V176.461H573.415V175.279H573.347C573.256 175.469 573.105 175.671 572.893 175.887C572.681 176.103 572.398 176.287 572.046 176.438C571.694 176.59 571.264 176.665 570.756 176.665ZM570.961 175.461C571.491 175.461 571.938 175.357 572.302 175.148C572.669 174.94 572.946 174.671 573.131 174.342C573.321 174.012 573.415 173.665 573.415 173.302V172.075C573.359 172.143 573.234 172.205 573.04 172.262C572.851 172.315 572.631 172.362 572.381 172.404C572.135 172.442 571.895 172.476 571.66 172.506C571.429 172.533 571.241 172.556 571.097 172.575C570.749 172.62 570.423 172.694 570.12 172.796C569.821 172.895 569.578 173.044 569.393 173.245C569.211 173.442 569.12 173.711 569.12 174.052C569.12 174.518 569.292 174.87 569.637 175.109C569.986 175.344 570.427 175.461 570.961 175.461ZM580.749 176.643C579.931 176.643 579.227 176.45 578.636 176.063C578.045 175.677 577.59 175.145 577.272 174.467C576.954 173.789 576.795 173.014 576.795 172.143C576.795 171.256 576.958 170.474 577.283 169.796C577.613 169.114 578.071 168.582 578.658 168.2C579.249 167.813 579.939 167.62 580.727 167.62C581.34 167.62 581.893 167.734 582.386 167.961C582.878 168.188 583.281 168.506 583.596 168.915C583.91 169.325 584.105 169.802 584.181 170.347H582.84C582.738 169.95 582.511 169.597 582.158 169.29C581.81 168.98 581.34 168.825 580.749 168.825C580.227 168.825 579.768 168.961 579.374 169.234C578.984 169.503 578.679 169.883 578.46 170.376C578.244 170.864 578.136 171.438 578.136 172.097C578.136 172.772 578.242 173.359 578.454 173.859C578.67 174.359 578.973 174.747 579.363 175.023C579.757 175.3 580.219 175.438 580.749 175.438C581.098 175.438 581.414 175.378 581.698 175.256C581.982 175.135 582.223 174.961 582.42 174.734C582.617 174.506 582.757 174.234 582.84 173.915H584.181C584.105 174.431 583.918 174.895 583.619 175.308C583.323 175.717 582.931 176.042 582.442 176.285C581.958 176.523 581.393 176.643 580.749 176.643ZM587.482 171.211V176.461H586.141V164.825H587.482V169.097H587.596C587.8 168.647 588.107 168.289 588.516 168.023C588.929 167.754 589.478 167.62 590.164 167.62C590.759 167.62 591.28 167.739 591.727 167.978C592.174 168.213 592.52 168.575 592.766 169.063C593.016 169.548 593.141 170.165 593.141 170.915V176.461H591.8V171.006C591.8 170.313 591.621 169.777 591.261 169.398C590.905 169.016 590.41 168.825 589.778 168.825C589.338 168.825 588.944 168.917 588.596 169.103C588.251 169.289 587.978 169.559 587.778 169.915C587.581 170.272 587.482 170.703 587.482 171.211ZM599.254 176.643C598.413 176.643 597.687 176.457 597.077 176.086C596.471 175.711 596.004 175.188 595.674 174.518C595.348 173.844 595.185 173.059 595.185 172.165C595.185 171.272 595.348 170.484 595.674 169.802C596.004 169.116 596.462 168.582 597.049 168.2C597.64 167.813 598.329 167.62 599.117 167.62C599.572 167.62 600.021 167.696 600.464 167.847C600.907 167.999 601.31 168.245 601.674 168.586C602.038 168.923 602.327 169.37 602.543 169.927C602.759 170.484 602.867 171.169 602.867 171.984V172.552H596.14V171.393H601.504C601.504 170.9 601.405 170.461 601.208 170.075C601.015 169.688 600.738 169.383 600.379 169.16C600.022 168.936 599.602 168.825 599.117 168.825C598.583 168.825 598.121 168.957 597.731 169.222C597.344 169.484 597.047 169.825 596.839 170.245C596.63 170.665 596.526 171.116 596.526 171.597V172.37C596.526 173.029 596.64 173.588 596.867 174.046C597.098 174.501 597.418 174.847 597.827 175.086C598.237 175.321 598.712 175.438 599.254 175.438C599.606 175.438 599.924 175.389 600.208 175.29C600.496 175.188 600.744 175.037 600.952 174.836C601.161 174.631 601.322 174.378 601.435 174.075L602.731 174.438C602.594 174.878 602.365 175.264 602.043 175.597C601.721 175.927 601.324 176.184 600.85 176.37C600.377 176.552 599.844 176.643 599.254 176.643Z" fill="black"/>
</svg>
