<svg width="655" height="359" viewBox="0 0 655 359" fill="none" xmlns="http://www.w3.org/2000/svg">
<g clip-path="url(#clip0_1106_62)">
<path d="M504 78V303" stroke="#999999" stroke-width="0.5"/>
<path d="M576 21H432C430.343 21 429 22.1705 429 23.6144V75.0305C429 76.4744 430.343 77.6449 432 77.6449H576C577.657 77.6449 579 76.4744 579 75.0305V23.6144C579 22.1705 577.657 21 576 21Z" fill="#E1F5FE" stroke="#01579B"/>
<path d="M486.976 47.3167C486.908 46.7409 486.631 46.2939 486.146 45.9758C485.661 45.6576 485.067 45.4985 484.362 45.4985C483.847 45.4985 483.396 45.5818 483.01 45.7485C482.627 45.9152 482.328 46.1443 482.112 46.436C481.9 46.7277 481.794 47.0591 481.794 47.4303C481.794 47.7409 481.868 48.008 482.016 48.2314C482.167 48.4511 482.36 48.6349 482.595 48.7826C482.83 48.9265 483.076 49.0458 483.334 49.1405C483.591 49.2314 483.828 49.3053 484.044 49.3621L485.226 49.6803C485.529 49.7599 485.866 49.8697 486.237 50.0099C486.612 50.15 486.97 50.3413 487.311 50.5837C487.656 50.8224 487.94 51.1292 488.163 51.5042C488.387 51.8792 488.499 52.3394 488.499 52.8849C488.499 53.5136 488.334 54.0818 488.004 54.5894C487.679 55.097 487.201 55.5004 486.572 55.7996C485.947 56.0989 485.188 56.2485 484.294 56.2485C483.461 56.2485 482.739 56.114 482.129 55.8451C481.523 55.5761 481.046 55.2011 480.697 54.7201C480.353 54.239 480.158 53.6803 480.112 53.0439H481.567C481.605 53.4833 481.752 53.847 482.01 54.1349C482.271 54.4189 482.601 54.6311 482.999 54.7712C483.4 54.9076 483.832 54.9758 484.294 54.9758C484.832 54.9758 485.315 54.8886 485.743 54.7144C486.171 54.5364 486.51 54.2902 486.76 53.9758C487.01 53.6576 487.135 53.2864 487.135 52.8621C487.135 52.4758 487.027 52.1614 486.811 51.9189C486.595 51.6765 486.311 51.4796 485.959 51.328C485.607 51.1765 485.226 51.0439 484.817 50.9303L483.385 50.5212C482.476 50.2599 481.756 49.8867 481.226 49.4019C480.696 48.9171 480.43 48.2826 480.43 47.4985C480.43 46.847 480.607 46.2788 480.959 45.7939C481.315 45.3053 481.792 44.9265 482.391 44.6576C482.993 44.3849 483.665 44.2485 484.408 44.2485C485.158 44.2485 485.824 44.383 486.408 44.6519C486.991 44.9171 487.453 45.2807 487.794 45.7428C488.139 46.2049 488.321 46.7296 488.339 47.3167H486.976ZM494.293 56.2258C493.452 56.2258 492.726 56.0402 492.116 55.6689C491.51 55.2939 491.043 54.7712 490.713 54.1008C490.387 53.4265 490.224 52.6424 490.224 51.7485C490.224 50.8546 490.387 50.0667 490.713 49.3849C491.043 48.6992 491.501 48.1652 492.088 47.7826C492.679 47.3962 493.368 47.203 494.156 47.203C494.611 47.203 495.06 47.2788 495.503 47.4303C495.946 47.5818 496.349 47.828 496.713 48.1689C497.077 48.5061 497.366 48.953 497.582 49.5099C497.798 50.0667 497.906 50.7523 497.906 51.5667V52.1349H491.179V50.9758H496.543C496.543 50.4833 496.444 50.0439 496.247 49.6576C496.054 49.2712 495.777 48.9663 495.418 48.7428C495.062 48.5193 494.641 48.4076 494.156 48.4076C493.622 48.4076 493.16 48.5402 492.77 48.8053C492.384 49.0667 492.086 49.4076 491.878 49.828C491.67 50.2485 491.565 50.6992 491.565 51.1803V51.953C491.565 52.6121 491.679 53.1708 491.906 53.6292C492.137 54.0837 492.457 54.4303 492.866 54.6689C493.276 54.9038 493.751 55.0212 494.293 55.0212C494.645 55.0212 494.963 54.972 495.247 54.8735C495.535 54.7712 495.783 54.6197 495.991 54.4189C496.2 54.2144 496.361 53.9606 496.474 53.6576L497.77 54.0212C497.634 54.4606 497.404 54.847 497.082 55.1803C496.76 55.5099 496.363 55.7674 495.889 55.953C495.416 56.1349 494.884 56.2258 494.293 56.2258ZM499.946 56.0439V47.3167H501.241V48.6349H501.332C501.491 48.203 501.779 47.8527 502.196 47.5837C502.613 47.3148 503.082 47.1803 503.605 47.1803C503.704 47.1803 503.827 47.1822 503.974 47.186C504.122 47.1898 504.234 47.1955 504.31 47.203V48.5667C504.264 48.5553 504.16 48.5383 503.997 48.5155C503.838 48.489 503.67 48.4758 503.491 48.4758C503.067 48.4758 502.688 48.5648 502.355 48.7428C502.026 48.9171 501.764 49.1595 501.571 49.4701C501.382 49.7769 501.287 50.1273 501.287 50.5212V56.0439H499.946ZM513.301 47.3167L510.074 56.0439H508.71L505.483 47.3167H506.938L509.347 54.2712H509.438L511.847 47.3167H513.301ZM518.418 56.2258C517.577 56.2258 516.851 56.0402 516.241 55.6689C515.635 55.2939 515.168 54.7712 514.838 54.1008C514.512 53.4265 514.349 52.6424 514.349 51.7485C514.349 50.8546 514.512 50.0667 514.838 49.3849C515.168 48.6992 515.626 48.1652 516.213 47.7826C516.804 47.3962 517.493 47.203 518.281 47.203C518.736 47.203 519.185 47.2788 519.628 47.4303C520.071 47.5818 520.474 47.828 520.838 48.1689C521.202 48.5061 521.491 48.953 521.707 49.5099C521.923 50.0667 522.031 50.7523 522.031 51.5667V52.1349H515.304V50.9758H520.668C520.668 50.4833 520.569 50.0439 520.372 49.6576C520.179 49.2712 519.902 48.9663 519.543 48.7428C519.187 48.5193 518.766 48.4076 518.281 48.4076C517.747 48.4076 517.285 48.5402 516.895 48.8053C516.509 49.0667 516.211 49.4076 516.003 49.828C515.795 50.2485 515.69 50.6992 515.69 51.1803V51.953C515.69 52.6121 515.804 53.1708 516.031 53.6292C516.262 54.0837 516.582 54.4303 516.991 54.6689C517.401 54.9038 517.876 55.0212 518.418 55.0212C518.77 55.0212 519.088 54.972 519.372 54.8735C519.66 54.7712 519.908 54.6197 520.116 54.4189C520.325 54.2144 520.486 53.9606 520.599 53.6576L521.895 54.0212C521.759 54.4606 521.529 54.847 521.207 55.1803C520.885 55.5099 520.488 55.7674 520.014 55.953C519.541 56.1349 519.009 56.2258 518.418 56.2258ZM524.071 56.0439V47.3167H525.366V48.6349H525.457C525.616 48.203 525.904 47.8527 526.321 47.5837C526.738 47.3148 527.207 47.1803 527.73 47.1803C527.829 47.1803 527.952 47.1822 528.099 47.186C528.247 47.1898 528.359 47.1955 528.435 47.203V48.5667C528.389 48.5553 528.285 48.5383 528.122 48.5155C527.963 48.489 527.795 48.4758 527.616 48.4758C527.192 48.4758 526.813 48.5648 526.48 48.7428C526.151 48.9171 525.889 49.1595 525.696 49.4701C525.507 49.7769 525.412 50.1273 525.412 50.5212V56.0439H524.071Z" fill="black"/>
<path d="M276 78V308" stroke="#999999" stroke-width="0.5"/>
<path d="M348 21H204C202.343 21 201 22.1705 201 23.6144V75.0305C201 76.4744 202.343 77.6449 204 77.6449H348C349.657 77.6449 351 76.4744 351 75.0305V23.6144C351 22.1705 349.657 21 348 21Z" fill="#E1F5FE" stroke="#01579B"/>
<path d="M264.913 48.0439H263.504C263.421 47.6386 263.275 47.2826 263.067 46.9758C262.862 46.6689 262.612 46.4114 262.317 46.203C262.025 45.9909 261.701 45.8318 261.345 45.7258C260.989 45.6197 260.618 45.5667 260.232 45.5667C259.527 45.5667 258.889 45.7447 258.317 46.1008C257.749 46.4568 257.296 46.9814 256.959 47.6746C256.625 48.3678 256.459 49.2182 256.459 50.2258C256.459 51.2333 256.625 52.0837 256.959 52.7769C257.296 53.4701 257.749 53.9947 258.317 54.3508C258.889 54.7068 259.527 54.8849 260.232 54.8849C260.618 54.8849 260.989 54.8318 261.345 54.7258C261.701 54.6197 262.025 54.4625 262.317 54.2542C262.612 54.0421 262.862 53.7826 263.067 53.4758C263.275 53.1652 263.421 52.8091 263.504 52.4076H264.913C264.807 53.0023 264.614 53.5345 264.334 54.0042C264.054 54.4739 263.705 54.8735 263.288 55.203C262.872 55.5288 262.404 55.7769 261.885 55.9474C261.37 56.1178 260.819 56.203 260.232 56.203C259.239 56.203 258.357 55.9606 257.584 55.4758C256.811 54.9909 256.203 54.3015 255.76 53.4076C255.317 52.5136 255.095 51.453 255.095 50.2258C255.095 48.9985 255.317 47.9379 255.76 47.0439C256.203 46.15 256.811 45.4606 257.584 44.9758C258.357 44.4909 259.239 44.2485 260.232 44.2485C260.819 44.2485 261.37 44.3337 261.885 44.5042C262.404 44.6746 262.872 44.9246 263.288 45.2542C263.705 45.5799 264.054 45.9777 264.334 46.4474C264.614 46.9133 264.807 47.4455 264.913 48.0439ZM268.349 44.4076V56.0439H267.009V44.4076H268.349ZM270.805 56.0439V47.3167H272.146V56.0439H270.805ZM271.487 45.8621C271.226 45.8621 271 45.7731 270.811 45.5951C270.625 45.4171 270.533 45.203 270.533 44.953C270.533 44.703 270.625 44.489 270.811 44.311C271 44.133 271.226 44.0439 271.487 44.0439C271.749 44.0439 271.972 44.133 272.158 44.311C272.347 44.489 272.442 44.703 272.442 44.953C272.442 45.203 272.347 45.4171 272.158 45.5951C271.972 45.7731 271.749 45.8621 271.487 45.8621ZM278.261 56.2258C277.42 56.2258 276.695 56.0402 276.085 55.6689C275.479 55.2939 275.011 54.7712 274.682 54.1008C274.356 53.4265 274.193 52.6424 274.193 51.7485C274.193 50.8546 274.356 50.0667 274.682 49.3849C275.011 48.6992 275.47 48.1652 276.057 47.7826C276.648 47.3962 277.337 47.203 278.125 47.203C278.58 47.203 279.028 47.2788 279.472 47.4303C279.915 47.5818 280.318 47.828 280.682 48.1689C281.045 48.5061 281.335 48.953 281.551 49.5099C281.767 50.0667 281.875 50.7523 281.875 51.5667V52.1349H275.148V50.9758H280.511C280.511 50.4833 280.413 50.0439 280.216 49.6576C280.023 49.2712 279.746 48.9663 279.386 48.7428C279.03 48.5193 278.61 48.4076 278.125 48.4076C277.591 48.4076 277.129 48.5402 276.739 48.8053C276.352 49.0667 276.055 49.4076 275.847 49.828C275.638 50.2485 275.534 50.6992 275.534 51.1803V51.953C275.534 52.6121 275.648 53.1708 275.875 53.6292C276.106 54.0837 276.426 54.4303 276.835 54.6689C277.244 54.9038 277.72 55.0212 278.261 55.0212C278.614 55.0212 278.932 54.972 279.216 54.8735C279.504 54.7712 279.752 54.6197 279.96 54.4189C280.169 54.2144 280.33 53.9606 280.443 53.6576L281.739 54.0212C281.602 54.4606 281.373 54.847 281.051 55.1803C280.729 55.5099 280.331 55.7674 279.858 55.953C279.384 56.1349 278.852 56.2258 278.261 56.2258ZM285.256 50.7939V56.0439H283.915V47.3167H285.21V48.6803H285.324C285.528 48.2371 285.839 47.8811 286.256 47.6121C286.672 47.3394 287.21 47.203 287.869 47.203C288.46 47.203 288.977 47.3242 289.42 47.5667C289.864 47.8053 290.208 48.1689 290.455 48.6576C290.701 49.1424 290.824 49.7561 290.824 50.4985V56.0439H289.483V50.5894C289.483 49.9038 289.305 49.3697 288.949 48.9871C288.593 48.6008 288.104 48.4076 287.483 48.4076C287.055 48.4076 286.672 48.5004 286.335 48.686C286.002 48.8716 285.739 49.1424 285.545 49.4985C285.352 49.8546 285.256 50.2864 285.256 50.7939ZM297.07 47.3167V48.453H292.547V47.3167H297.07ZM293.865 45.2258H295.206V53.5439C295.206 53.9227 295.261 54.2068 295.371 54.3962C295.484 54.5818 295.628 54.7068 295.803 54.7712C295.981 54.8318 296.168 54.8621 296.365 54.8621C296.513 54.8621 296.634 54.8546 296.729 54.8394C296.823 54.8205 296.899 54.8053 296.956 54.7939L297.229 55.9985C297.138 56.0326 297.011 56.0667 296.848 56.1008C296.685 56.1386 296.479 56.1576 296.229 56.1576C295.85 56.1576 295.479 56.0761 295.115 55.9133C294.755 55.7504 294.456 55.5023 294.217 55.1689C293.982 54.8356 293.865 54.4152 293.865 53.9076V45.2258Z" fill="black"/>
<path d="M76 57V319.5" stroke="#999999" stroke-width="0.5"/>
<path d="M148 21H4C2.34315 21 1 22.1554 1 23.5806V74.3333C1 75.7586 2.34315 76.914 4 76.914H148C149.657 76.914 151 75.7586 151 74.3333V23.5806C151 22.1554 149.657 21 148 21Z" fill="#E1F5FE" stroke="#01579B"/>
<path d="M67.3033 44.1488H68.7124V51.8533C68.7124 52.6488 68.5249 53.359 68.1499 53.984C67.7786 54.6052 67.254 55.0958 66.576 55.4556C65.898 55.8117 65.1025 55.9897 64.1896 55.9897C63.2768 55.9897 62.4813 55.8117 61.8033 55.4556C61.1252 55.0958 60.5987 54.6052 60.2237 53.984C59.8525 53.359 59.6669 52.6488 59.6669 51.8533V44.1488H61.076V51.7397C61.076 52.3079 61.201 52.8136 61.451 53.2567C61.701 53.6961 62.0571 54.0427 62.5192 54.2965C62.9851 54.5465 63.5419 54.6715 64.1896 54.6715C64.8374 54.6715 65.3942 54.5465 65.8601 54.2965C66.326 54.0427 66.6821 53.6961 66.9283 53.2567C67.1783 52.8136 67.3033 52.3079 67.3033 51.7397V44.1488ZM77.5263 49.0124L76.3217 49.3533C76.246 49.1526 76.1342 48.9575 75.9865 48.7681C75.8426 48.5749 75.6456 48.4158 75.3956 48.2908C75.1456 48.1658 74.8255 48.1033 74.4354 48.1033C73.9013 48.1033 73.4562 48.2264 73.1001 48.4727C72.7479 48.7151 72.5717 49.0238 72.5717 49.3988C72.5717 49.7321 72.6929 49.9954 72.9354 50.1886C73.1778 50.3817 73.5566 50.5427 74.0717 50.6715L75.3672 50.9897C76.1475 51.1791 76.7289 51.4689 77.1115 51.859C77.4941 52.2454 77.6854 52.7435 77.6854 53.3533C77.6854 53.8533 77.5414 54.3003 77.2536 54.6942C76.9695 55.0882 76.5717 55.3988 76.0604 55.6261C75.549 55.8533 74.9543 55.967 74.2763 55.967C73.3861 55.967 72.6494 55.7738 72.0661 55.3874C71.4827 55.0011 71.1134 54.4367 70.9581 53.6942L72.2308 53.3761C72.352 53.8458 72.5812 54.198 72.9183 54.4329C73.2592 54.6677 73.7043 54.7852 74.2536 54.7852C74.8786 54.7852 75.3748 54.6526 75.7422 54.3874C76.1134 54.1185 76.299 53.7965 76.299 53.4215C76.299 53.1185 76.1929 52.8647 75.9808 52.6602C75.7687 52.4518 75.4429 52.2965 75.0036 52.1942L73.549 51.8533C72.7498 51.6639 72.1626 51.3704 71.7876 50.9727C71.4164 50.5711 71.2308 50.0692 71.2308 49.467C71.2308 48.9745 71.3691 48.5389 71.6456 48.1602C71.9259 47.7814 72.3066 47.484 72.7876 47.2681C73.2725 47.0522 73.8217 46.9442 74.4354 46.9442C75.299 46.9442 75.977 47.1336 76.4695 47.5124C76.9657 47.8912 77.3179 48.3912 77.5263 49.0124ZM83.3629 55.967C82.522 55.967 81.7966 55.7814 81.1868 55.4102C80.5807 55.0352 80.1129 54.5124 79.7834 53.842C79.4576 53.1677 79.2947 52.3836 79.2947 51.4897C79.2947 50.5958 79.4576 49.8079 79.7834 49.1261C80.1129 48.4405 80.5713 47.9064 81.1584 47.5238C81.7493 47.1374 82.4387 46.9442 83.2266 46.9442C83.6811 46.9442 84.13 47.02 84.5732 47.1715C85.0163 47.323 85.4197 47.5692 85.7834 47.9102C86.147 48.2473 86.4368 48.6942 86.6527 49.2511C86.8686 49.8079 86.9766 50.4935 86.9766 51.3079V51.8761H80.2493V50.717H85.6129C85.6129 50.2245 85.5144 49.7852 85.3175 49.3988C85.1243 49.0124 84.8478 48.7075 84.4879 48.484C84.1319 48.2605 83.7114 48.1488 83.2266 48.1488C82.6925 48.1488 82.2304 48.2814 81.8402 48.5465C81.4538 48.8079 81.1565 49.1488 80.9482 49.5692C80.7398 49.9897 80.6357 50.4405 80.6357 50.9215V51.6942C80.6357 52.3533 80.7493 52.9121 80.9766 53.3704C81.2076 53.8249 81.5277 54.1715 81.9368 54.4102C82.3459 54.645 82.8213 54.7624 83.3629 54.7624C83.7152 54.7624 84.0334 54.7132 84.3175 54.6147C84.6054 54.5124 84.8535 54.3609 85.0618 54.1602C85.2701 53.9556 85.4311 53.7018 85.5447 53.3988L86.8402 53.7624C86.7038 54.2018 86.4747 54.5882 86.1527 54.9215C85.8307 55.2511 85.433 55.5086 84.9595 55.6942C84.486 55.8761 83.9538 55.967 83.3629 55.967ZM89.0163 55.7852V47.0579H90.3118V48.3761H90.4027C90.5618 47.9442 90.8497 47.5939 91.2663 47.3249C91.683 47.056 92.1527 46.9215 92.6754 46.9215C92.7739 46.9215 92.897 46.9234 93.0447 46.9272C93.1925 46.931 93.3042 46.9367 93.38 46.9442V48.3079C93.3345 48.2965 93.2304 48.2795 93.0675 48.2567C92.9084 48.2302 92.7398 48.217 92.5618 48.217C92.1375 48.217 91.7588 48.306 91.4254 48.484C91.0959 48.6583 90.8345 48.9007 90.6413 49.2113C90.4519 49.5181 90.3572 49.8685 90.3572 50.2624V55.7852H89.0163Z" fill="black"/>
<path d="M576 256H432C430.343 256 429 257.343 429 259V318C429 319.657 430.343 321 432 321H576C577.657 321 579 319.657 579 318V259C579 257.343 577.657 256 576 256Z" fill="#E1F5FE" stroke="#01579B"/>
<path d="M486.976 285.273C486.908 284.697 486.631 284.25 486.146 283.932C485.661 283.614 485.067 283.455 484.362 283.455C483.847 283.455 483.396 283.538 483.01 283.705C482.627 283.871 482.328 284.1 482.112 284.392C481.9 284.684 481.794 285.015 481.794 285.386C481.794 285.697 481.868 285.964 482.016 286.188C482.167 286.407 482.36 286.591 482.595 286.739C482.83 286.883 483.076 287.002 483.334 287.097C483.591 287.187 483.828 287.261 484.044 287.318L485.226 287.636C485.529 287.716 485.866 287.826 486.237 287.966C486.612 288.106 486.97 288.297 487.311 288.54C487.656 288.778 487.94 289.085 488.163 289.46C488.387 289.835 488.499 290.295 488.499 290.841C488.499 291.47 488.334 292.038 488.004 292.545C487.679 293.053 487.201 293.456 486.572 293.756C485.947 294.055 485.188 294.205 484.294 294.205C483.461 294.205 482.739 294.07 482.129 293.801C481.523 293.532 481.046 293.157 480.697 292.676C480.353 292.195 480.158 291.636 480.112 291H481.567C481.605 291.439 481.752 291.803 482.01 292.091C482.271 292.375 482.601 292.587 482.999 292.727C483.4 292.864 483.832 292.932 484.294 292.932C484.832 292.932 485.315 292.845 485.743 292.67C486.171 292.492 486.51 292.246 486.76 291.932C487.01 291.614 487.135 291.242 487.135 290.818C487.135 290.432 487.027 290.117 486.811 289.875C486.595 289.633 486.311 289.436 485.959 289.284C485.607 289.133 485.226 289 484.817 288.886L483.385 288.477C482.476 288.216 481.756 287.843 481.226 287.358C480.696 286.873 480.43 286.239 480.43 285.455C480.43 284.803 480.607 284.235 480.959 283.75C481.315 283.261 481.792 282.883 482.391 282.614C482.993 282.341 483.665 282.205 484.408 282.205C485.158 282.205 485.824 282.339 486.408 282.608C486.991 282.873 487.453 283.237 487.794 283.699C488.139 284.161 488.321 284.686 488.339 285.273H486.976ZM494.293 294.182C493.452 294.182 492.726 293.996 492.116 293.625C491.51 293.25 491.043 292.727 490.713 292.057C490.387 291.383 490.224 290.598 490.224 289.705C490.224 288.811 490.387 288.023 490.713 287.341C491.043 286.655 491.501 286.121 492.088 285.739C492.679 285.352 493.368 285.159 494.156 285.159C494.611 285.159 495.06 285.235 495.503 285.386C495.946 285.538 496.349 285.784 496.713 286.125C497.077 286.462 497.366 286.909 497.582 287.466C497.798 288.023 497.906 288.708 497.906 289.523V290.091H491.179V288.932H496.543C496.543 288.439 496.444 288 496.247 287.614C496.054 287.227 495.777 286.922 495.418 286.699C495.062 286.475 494.641 286.364 494.156 286.364C493.622 286.364 493.16 286.496 492.77 286.761C492.384 287.023 492.086 287.364 491.878 287.784C491.67 288.205 491.565 288.655 491.565 289.136V289.909C491.565 290.568 491.679 291.127 491.906 291.585C492.137 292.04 492.457 292.386 492.866 292.625C493.276 292.86 493.751 292.977 494.293 292.977C494.645 292.977 494.963 292.928 495.247 292.83C495.535 292.727 495.783 292.576 495.991 292.375C496.2 292.17 496.361 291.917 496.474 291.614L497.77 291.977C497.634 292.417 497.404 292.803 497.082 293.136C496.76 293.466 496.363 293.723 495.889 293.909C495.416 294.091 494.884 294.182 494.293 294.182ZM499.946 294V285.273H501.241V286.591H501.332C501.491 286.159 501.779 285.809 502.196 285.54C502.613 285.271 503.082 285.136 503.605 285.136C503.704 285.136 503.827 285.138 503.974 285.142C504.122 285.146 504.234 285.152 504.31 285.159V286.523C504.264 286.511 504.16 286.494 503.997 286.472C503.838 286.445 503.67 286.432 503.491 286.432C503.067 286.432 502.688 286.521 502.355 286.699C502.026 286.873 501.764 287.116 501.571 287.426C501.382 287.733 501.287 288.083 501.287 288.477V294H499.946ZM513.301 285.273L510.074 294H508.71L505.483 285.273H506.938L509.347 292.227H509.438L511.847 285.273H513.301ZM518.418 294.182C517.577 294.182 516.851 293.996 516.241 293.625C515.635 293.25 515.168 292.727 514.838 292.057C514.512 291.383 514.349 290.598 514.349 289.705C514.349 288.811 514.512 288.023 514.838 287.341C515.168 286.655 515.626 286.121 516.213 285.739C516.804 285.352 517.493 285.159 518.281 285.159C518.736 285.159 519.185 285.235 519.628 285.386C520.071 285.538 520.474 285.784 520.838 286.125C521.202 286.462 521.491 286.909 521.707 287.466C521.923 288.023 522.031 288.708 522.031 289.523V290.091H515.304V288.932H520.668C520.668 288.439 520.569 288 520.372 287.614C520.179 287.227 519.902 286.922 519.543 286.699C519.187 286.475 518.766 286.364 518.281 286.364C517.747 286.364 517.285 286.496 516.895 286.761C516.509 287.023 516.211 287.364 516.003 287.784C515.795 288.205 515.69 288.655 515.69 289.136V289.909C515.69 290.568 515.804 291.127 516.031 291.585C516.262 292.04 516.582 292.386 516.991 292.625C517.401 292.86 517.876 292.977 518.418 292.977C518.77 292.977 519.088 292.928 519.372 292.83C519.66 292.727 519.908 292.576 520.116 292.375C520.325 292.17 520.486 291.917 520.599 291.614L521.895 291.977C521.759 292.417 521.529 292.803 521.207 293.136C520.885 293.466 520.488 293.723 520.014 293.909C519.541 294.091 519.009 294.182 518.418 294.182ZM524.071 294V285.273H525.366V286.591H525.457C525.616 286.159 525.904 285.809 526.321 285.54C526.738 285.271 527.207 285.136 527.73 285.136C527.829 285.136 527.952 285.138 528.099 285.142C528.247 285.146 528.359 285.152 528.435 285.159V286.523C528.389 286.511 528.285 286.494 528.122 286.472C527.963 286.445 527.795 286.432 527.616 286.432C527.192 286.432 526.813 286.521 526.48 286.699C526.151 286.873 525.889 287.116 525.696 287.426C525.507 287.733 525.412 288.083 525.412 288.477V294H524.071Z" fill="black"/>
<path d="M348 256H204C202.343 256 201 257.343 201 259V318C201 319.657 202.343 321 204 321H348C349.657 321 351 319.657 351 318V259C351 257.343 349.657 256 348 256Z" fill="#E1F5FE" stroke="#01579B"/>
<path d="M264.913 286H263.504C263.421 285.595 263.275 285.239 263.067 284.932C262.862 284.625 262.612 284.367 262.317 284.159C262.025 283.947 261.701 283.788 261.345 283.682C260.989 283.576 260.618 283.523 260.232 283.523C259.527 283.523 258.889 283.701 258.317 284.057C257.749 284.413 257.296 284.938 256.959 285.631C256.625 286.324 256.459 287.174 256.459 288.182C256.459 289.189 256.625 290.04 256.959 290.733C257.296 291.426 257.749 291.951 258.317 292.307C258.889 292.663 259.527 292.841 260.232 292.841C260.618 292.841 260.989 292.788 261.345 292.682C261.701 292.576 262.025 292.419 262.317 292.21C262.612 291.998 262.862 291.739 263.067 291.432C263.275 291.121 263.421 290.765 263.504 290.364H264.913C264.807 290.958 264.614 291.491 264.334 291.96C264.054 292.43 263.705 292.83 263.288 293.159C262.872 293.485 262.404 293.733 261.885 293.903C261.37 294.074 260.819 294.159 260.232 294.159C259.239 294.159 258.357 293.917 257.584 293.432C256.811 292.947 256.203 292.258 255.76 291.364C255.317 290.47 255.095 289.409 255.095 288.182C255.095 286.955 255.317 285.894 255.76 285C256.203 284.106 256.811 283.417 257.584 282.932C258.357 282.447 259.239 282.205 260.232 282.205C260.819 282.205 261.37 282.29 261.885 282.46C262.404 282.631 262.872 282.881 263.288 283.21C263.705 283.536 264.054 283.934 264.334 284.403C264.614 284.869 264.807 285.402 264.913 286ZM268.349 282.364V294H267.009V282.364H268.349ZM270.805 294V285.273H272.146V294H270.805ZM271.487 283.818C271.226 283.818 271 283.729 270.811 283.551C270.625 283.373 270.533 283.159 270.533 282.909C270.533 282.659 270.625 282.445 270.811 282.267C271 282.089 271.226 282 271.487 282C271.749 282 271.972 282.089 272.158 282.267C272.347 282.445 272.442 282.659 272.442 282.909C272.442 283.159 272.347 283.373 272.158 283.551C271.972 283.729 271.749 283.818 271.487 283.818ZM278.261 294.182C277.42 294.182 276.695 293.996 276.085 293.625C275.479 293.25 275.011 292.727 274.682 292.057C274.356 291.383 274.193 290.598 274.193 289.705C274.193 288.811 274.356 288.023 274.682 287.341C275.011 286.655 275.47 286.121 276.057 285.739C276.648 285.352 277.337 285.159 278.125 285.159C278.58 285.159 279.028 285.235 279.472 285.386C279.915 285.538 280.318 285.784 280.682 286.125C281.045 286.462 281.335 286.909 281.551 287.466C281.767 288.023 281.875 288.708 281.875 289.523V290.091H275.148V288.932H280.511C280.511 288.439 280.413 288 280.216 287.614C280.023 287.227 279.746 286.922 279.386 286.699C279.03 286.475 278.61 286.364 278.125 286.364C277.591 286.364 277.129 286.496 276.739 286.761C276.352 287.023 276.055 287.364 275.847 287.784C275.638 288.205 275.534 288.655 275.534 289.136V289.909C275.534 290.568 275.648 291.127 275.875 291.585C276.106 292.04 276.426 292.386 276.835 292.625C277.244 292.86 277.72 292.977 278.261 292.977C278.614 292.977 278.932 292.928 279.216 292.83C279.504 292.727 279.752 292.576 279.96 292.375C280.169 292.17 280.33 291.917 280.443 291.614L281.739 291.977C281.602 292.417 281.373 292.803 281.051 293.136C280.729 293.466 280.331 293.723 279.858 293.909C279.384 294.091 278.852 294.182 278.261 294.182ZM285.256 288.75V294H283.915V285.273H285.21V286.636H285.324C285.528 286.193 285.839 285.837 286.256 285.568C286.672 285.295 287.21 285.159 287.869 285.159C288.46 285.159 288.977 285.28 289.42 285.523C289.864 285.761 290.208 286.125 290.455 286.614C290.701 287.098 290.824 287.712 290.824 288.455V294H289.483V288.545C289.483 287.86 289.305 287.326 288.949 286.943C288.593 286.557 288.104 286.364 287.483 286.364C287.055 286.364 286.672 286.456 286.335 286.642C286.002 286.828 285.739 287.098 285.545 287.455C285.352 287.811 285.256 288.242 285.256 288.75ZM297.07 285.273V286.409H292.547V285.273H297.07ZM293.865 283.182H295.206V291.5C295.206 291.879 295.261 292.163 295.371 292.352C295.484 292.538 295.628 292.663 295.803 292.727C295.981 292.788 296.168 292.818 296.365 292.818C296.513 292.818 296.634 292.811 296.729 292.795C296.823 292.777 296.899 292.761 296.956 292.75L297.229 293.955C297.138 293.989 297.011 294.023 296.848 294.057C296.685 294.095 296.479 294.114 296.229 294.114C295.85 294.114 295.479 294.032 295.115 293.869C294.755 293.706 294.456 293.458 294.217 293.125C293.982 292.792 293.865 292.371 293.865 291.864V283.182Z" fill="black"/>
<path d="M148 256H4C2.34315 256 1 257.343 1 259V318C1 319.657 2.34315 321 4 321H148C149.657 321 151 319.657 151 318V259C151 257.343 149.657 256 148 256Z" fill="#E1F5FE" stroke="#01579B"/>
<path d="M67.3033 282.364H68.7124V290.068C68.7124 290.864 68.5249 291.574 68.1499 292.199C67.7786 292.82 67.254 293.311 66.576 293.67C65.898 294.027 65.1025 294.205 64.1896 294.205C63.2768 294.205 62.4813 294.027 61.8033 293.67C61.1252 293.311 60.5987 292.82 60.2237 292.199C59.8525 291.574 59.6669 290.864 59.6669 290.068V282.364H61.076V289.955C61.076 290.523 61.201 291.028 61.451 291.472C61.701 291.911 62.0571 292.258 62.5192 292.511C62.9851 292.761 63.5419 292.886 64.1896 292.886C64.8374 292.886 65.3942 292.761 65.8601 292.511C66.326 292.258 66.6821 291.911 66.9283 291.472C67.1783 291.028 67.3033 290.523 67.3033 289.955V282.364ZM77.5263 287.227L76.3217 287.568C76.246 287.367 76.1342 287.172 75.9865 286.983C75.8426 286.79 75.6456 286.631 75.3956 286.506C75.1456 286.381 74.8255 286.318 74.4354 286.318C73.9013 286.318 73.4562 286.441 73.1001 286.688C72.7479 286.93 72.5717 287.239 72.5717 287.614C72.5717 287.947 72.6929 288.21 72.9354 288.403C73.1778 288.597 73.5566 288.758 74.0717 288.886L75.3672 289.205C76.1475 289.394 76.7289 289.684 77.1115 290.074C77.4941 290.46 77.6854 290.958 77.6854 291.568C77.6854 292.068 77.5414 292.515 77.2536 292.909C76.9695 293.303 76.5717 293.614 76.0604 293.841C75.549 294.068 74.9543 294.182 74.2763 294.182C73.3861 294.182 72.6494 293.989 72.0661 293.602C71.4827 293.216 71.1134 292.652 70.9581 291.909L72.2308 291.591C72.352 292.061 72.5812 292.413 72.9183 292.648C73.2592 292.883 73.7043 293 74.2536 293C74.8786 293 75.3748 292.867 75.7422 292.602C76.1134 292.333 76.299 292.011 76.299 291.636C76.299 291.333 76.1929 291.08 75.9808 290.875C75.7687 290.667 75.4429 290.511 75.0036 290.409L73.549 290.068C72.7498 289.879 72.1626 289.585 71.7876 289.188C71.4164 288.786 71.2308 288.284 71.2308 287.682C71.2308 287.189 71.3691 286.754 71.6456 286.375C71.9259 285.996 72.3066 285.699 72.7876 285.483C73.2725 285.267 73.8217 285.159 74.4354 285.159C75.299 285.159 75.977 285.348 76.4695 285.727C76.9657 286.106 77.3179 286.606 77.5263 287.227ZM83.3629 294.182C82.522 294.182 81.7966 293.996 81.1868 293.625C80.5807 293.25 80.1129 292.727 79.7834 292.057C79.4576 291.383 79.2947 290.598 79.2947 289.705C79.2947 288.811 79.4576 288.023 79.7834 287.341C80.1129 286.655 80.5713 286.121 81.1584 285.739C81.7493 285.352 82.4387 285.159 83.2266 285.159C83.6811 285.159 84.13 285.235 84.5732 285.386C85.0163 285.538 85.4197 285.784 85.7834 286.125C86.147 286.462 86.4368 286.909 86.6527 287.466C86.8686 288.023 86.9766 288.708 86.9766 289.523V290.091H80.2493V288.932H85.6129C85.6129 288.439 85.5144 288 85.3175 287.614C85.1243 287.227 84.8478 286.922 84.4879 286.699C84.1319 286.475 83.7114 286.364 83.2266 286.364C82.6925 286.364 82.2304 286.496 81.8402 286.761C81.4538 287.023 81.1565 287.364 80.9482 287.784C80.7398 288.205 80.6357 288.655 80.6357 289.136V289.909C80.6357 290.568 80.7493 291.127 80.9766 291.585C81.2076 292.04 81.5277 292.386 81.9368 292.625C82.3459 292.86 82.8213 292.977 83.3629 292.977C83.7152 292.977 84.0334 292.928 84.3175 292.83C84.6054 292.727 84.8535 292.576 85.0618 292.375C85.2701 292.17 85.4311 291.917 85.5447 291.614L86.8402 291.977C86.7038 292.417 86.4747 292.803 86.1527 293.136C85.8307 293.466 85.433 293.723 84.9595 293.909C84.486 294.091 83.9538 294.182 83.3629 294.182ZM89.0163 294V285.273H90.3118V286.591H90.4027C90.5618 286.159 90.8497 285.809 91.2663 285.54C91.683 285.271 92.1527 285.136 92.6754 285.136C92.7739 285.136 92.897 285.138 93.0447 285.142C93.1925 285.146 93.3042 285.152 93.38 285.159V286.523C93.3345 286.511 93.2304 286.494 93.0675 286.472C92.9084 286.445 92.7398 286.432 92.5618 286.432C92.1375 286.432 91.7588 286.521 91.4254 286.699C91.0959 286.873 90.8345 287.116 90.6413 287.426C90.4519 287.733 90.3572 288.083 90.3572 288.477V294H89.0163Z" fill="black"/>
<path d="M73.86 142H19.14C18.5104 142 18 143.157 18 144.585V195.415C18 196.843 18.5104 198 19.14 198H73.86C74.4896 198 75 196.843 75 195.415V144.585C75 143.157 74.4896 142 73.86 142Z" fill="#FCA5A5" stroke="#EF4444"/>
<path d="M36.576 176.348L34.7031 169.802H36.2148L37.2983 174.35H37.3526L38.5479 169.802H39.8423L41.0344 174.36H41.0919L42.1754 169.802H43.6871L41.8142 176.348H40.4655L39.2191 172.068H39.1679L37.9247 176.348H36.576ZM44.8968 176.348H43.4138L45.6734 169.802H47.4568L49.7132 176.348H48.2302L46.5907 171.298H46.5396L44.8968 176.348ZM44.8041 173.775H48.307V174.855H44.8041V173.775ZM51.8849 169.802V176.348H50.501V169.802H51.8849ZM52.7742 170.943V169.802H58.1499V170.943H56.146V176.348H54.7781V170.943H52.7742Z" fill="#E7000B"/>
<path d="M113.373 120.75V126H112.032V117.273H113.327V118.636H113.441C113.646 118.193 113.956 117.837 114.373 117.568C114.79 117.295 115.327 117.159 115.987 117.159C116.577 117.159 117.094 117.28 117.538 117.523C117.981 117.761 118.326 118.125 118.572 118.614C118.818 119.098 118.941 119.712 118.941 120.455V126H117.6V120.545C117.6 119.86 117.422 119.326 117.066 118.943C116.71 118.557 116.221 118.364 115.6 118.364C115.172 118.364 114.79 118.456 114.452 118.642C114.119 118.828 113.856 119.098 113.663 119.455C113.469 119.811 113.373 120.242 113.373 120.75ZM123.96 126.205C123.406 126.205 122.905 126.1 122.454 125.892C122.003 125.68 121.645 125.375 121.38 124.977C121.115 124.576 120.982 124.091 120.982 123.523C120.982 123.023 121.081 122.617 121.278 122.307C121.475 121.992 121.738 121.746 122.067 121.568C122.397 121.39 122.761 121.258 123.158 121.17C123.56 121.08 123.963 121.008 124.369 120.955C124.899 120.886 125.329 120.835 125.658 120.801C125.992 120.763 126.234 120.701 126.386 120.614C126.541 120.527 126.619 120.375 126.619 120.159V120.114C126.619 119.553 126.465 119.117 126.158 118.807C125.855 118.496 125.395 118.341 124.778 118.341C124.138 118.341 123.636 118.481 123.272 118.761C122.908 119.042 122.653 119.341 122.505 119.659L121.232 119.205C121.46 118.674 121.763 118.261 122.141 117.966C122.524 117.667 122.941 117.458 123.391 117.341C123.846 117.22 124.293 117.159 124.732 117.159C125.013 117.159 125.335 117.193 125.698 117.261C126.066 117.326 126.42 117.46 126.761 117.665C127.105 117.869 127.391 118.178 127.619 118.591C127.846 119.004 127.96 119.557 127.96 120.25V126H126.619V124.818H126.55C126.46 125.008 126.308 125.21 126.096 125.426C125.884 125.642 125.602 125.826 125.249 125.977C124.897 126.129 124.467 126.205 123.96 126.205ZM124.164 125C124.694 125 125.141 124.896 125.505 124.688C125.872 124.479 126.149 124.21 126.335 123.881C126.524 123.551 126.619 123.205 126.619 122.841V121.614C126.562 121.682 126.437 121.744 126.244 121.801C126.054 121.854 125.835 121.902 125.585 121.943C125.338 121.981 125.098 122.015 124.863 122.045C124.632 122.072 124.444 122.095 124.3 122.114C123.952 122.159 123.626 122.233 123.323 122.335C123.024 122.434 122.781 122.583 122.596 122.784C122.414 122.981 122.323 123.25 122.323 123.591C122.323 124.057 122.496 124.409 122.84 124.648C123.189 124.883 123.63 125 124.164 125ZM137.231 117.273L134.004 126H132.64L129.413 117.273H130.867L133.276 124.227H133.367L135.776 117.273H137.231ZM139.001 126V117.273H140.342V126H139.001ZM139.683 115.818C139.421 115.818 139.196 115.729 139.006 115.551C138.821 115.373 138.728 115.159 138.728 114.909C138.728 114.659 138.821 114.445 139.006 114.267C139.196 114.089 139.421 114 139.683 114C139.944 114 140.167 114.089 140.353 114.267C140.542 114.445 140.637 114.659 140.637 114.909C140.637 115.159 140.542 115.373 140.353 115.551C140.167 115.729 139.944 115.818 139.683 115.818ZM146.32 129.455C145.673 129.455 145.116 129.371 144.65 129.205C144.184 129.042 143.796 128.826 143.485 128.557C143.178 128.292 142.934 128.008 142.752 127.705L143.82 126.955C143.942 127.114 144.095 127.295 144.281 127.5C144.466 127.708 144.72 127.888 145.042 128.04C145.368 128.195 145.794 128.273 146.32 128.273C147.025 128.273 147.606 128.102 148.065 127.761C148.523 127.42 148.752 126.886 148.752 126.159V124.386H148.638C148.54 124.545 148.4 124.742 148.218 124.977C148.04 125.208 147.782 125.415 147.445 125.597C147.112 125.775 146.661 125.864 146.093 125.864C145.388 125.864 144.756 125.697 144.195 125.364C143.638 125.03 143.197 124.545 142.871 123.909C142.549 123.273 142.388 122.5 142.388 121.591C142.388 120.697 142.546 119.919 142.86 119.256C143.174 118.589 143.612 118.074 144.173 117.71C144.733 117.343 145.381 117.159 146.116 117.159C146.684 117.159 147.135 117.254 147.468 117.443C147.805 117.629 148.063 117.841 148.241 118.08C148.423 118.314 148.563 118.508 148.661 118.659H148.798V117.273H150.093V126.25C150.093 127 149.923 127.61 149.582 128.08C149.245 128.553 148.79 128.9 148.218 129.119C147.65 129.343 147.017 129.455 146.32 129.455ZM146.275 124.659C146.813 124.659 147.267 124.536 147.638 124.29C148.01 124.044 148.292 123.689 148.485 123.227C148.678 122.765 148.775 122.212 148.775 121.568C148.775 120.939 148.68 120.384 148.491 119.903C148.301 119.422 148.021 119.045 147.65 118.773C147.279 118.5 146.82 118.364 146.275 118.364C145.707 118.364 145.233 118.508 144.854 118.795C144.479 119.083 144.197 119.47 144.008 119.955C143.822 120.439 143.729 120.977 143.729 121.568C143.729 122.174 143.824 122.71 144.013 123.176C144.207 123.638 144.491 124.002 144.866 124.267C145.245 124.528 145.714 124.659 146.275 124.659ZM155.116 126.205C154.563 126.205 154.061 126.1 153.61 125.892C153.159 125.68 152.801 125.375 152.536 124.977C152.271 124.576 152.138 124.091 152.138 123.523C152.138 123.023 152.237 122.617 152.434 122.307C152.631 121.992 152.894 121.746 153.224 121.568C153.553 121.39 153.917 121.258 154.315 121.17C154.716 121.08 155.12 121.008 155.525 120.955C156.055 120.886 156.485 120.835 156.815 120.801C157.148 120.763 157.39 120.701 157.542 120.614C157.697 120.527 157.775 120.375 157.775 120.159V120.114C157.775 119.553 157.621 119.117 157.315 118.807C157.012 118.496 156.551 118.341 155.934 118.341C155.294 118.341 154.792 118.481 154.428 118.761C154.065 119.042 153.809 119.341 153.661 119.659L152.388 119.205C152.616 118.674 152.919 118.261 153.298 117.966C153.68 117.667 154.097 117.458 154.548 117.341C155.002 117.22 155.449 117.159 155.888 117.159C156.169 117.159 156.491 117.193 156.854 117.261C157.222 117.326 157.576 117.46 157.917 117.665C158.262 117.869 158.548 118.178 158.775 118.591C159.002 119.004 159.116 119.557 159.116 120.25V126H157.775V124.818H157.707C157.616 125.008 157.464 125.21 157.252 125.426C157.04 125.642 156.758 125.826 156.406 125.977C156.053 126.129 155.623 126.205 155.116 126.205ZM155.32 125C155.851 125 156.298 124.896 156.661 124.688C157.029 124.479 157.305 124.21 157.491 123.881C157.68 123.551 157.775 123.205 157.775 122.841V121.614C157.718 121.682 157.593 121.744 157.4 121.801C157.21 121.854 156.991 121.902 156.741 121.943C156.495 121.981 156.254 122.015 156.019 122.045C155.788 122.072 155.601 122.095 155.457 122.114C155.108 122.159 154.782 122.233 154.479 122.335C154.18 122.434 153.938 122.583 153.752 122.784C153.57 122.981 153.479 123.25 153.479 123.591C153.479 124.057 153.652 124.409 153.996 124.648C154.345 124.883 154.786 125 155.32 125ZM165.359 117.273V118.409H160.836V117.273H165.359ZM162.154 115.182H163.495V123.5C163.495 123.879 163.55 124.163 163.66 124.352C163.773 124.538 163.917 124.663 164.092 124.727C164.27 124.788 164.457 124.818 164.654 124.818C164.802 124.818 164.923 124.811 165.018 124.795C165.112 124.777 165.188 124.761 165.245 124.75L165.518 125.955C165.427 125.989 165.3 126.023 165.137 126.057C164.974 126.095 164.768 126.114 164.518 126.114C164.139 126.114 163.768 126.032 163.404 125.869C163.044 125.706 162.745 125.458 162.506 125.125C162.272 124.792 162.154 124.371 162.154 123.864V115.182ZM170.941 126.182C170.1 126.182 169.375 125.996 168.765 125.625C168.159 125.25 167.691 124.727 167.362 124.057C167.036 123.383 166.873 122.598 166.873 121.705C166.873 120.811 167.036 120.023 167.362 119.341C167.691 118.655 168.149 118.121 168.737 117.739C169.327 117.352 170.017 117.159 170.805 117.159C171.259 117.159 171.708 117.235 172.151 117.386C172.594 117.538 172.998 117.784 173.362 118.125C173.725 118.462 174.015 118.909 174.231 119.466C174.447 120.023 174.555 120.708 174.555 121.523V122.091H167.827V120.932H173.191C173.191 120.439 173.093 120 172.896 119.614C172.702 119.227 172.426 118.922 172.066 118.699C171.71 118.475 171.29 118.364 170.805 118.364C170.271 118.364 169.808 118.496 169.418 118.761C169.032 119.023 168.735 119.364 168.526 119.784C168.318 120.205 168.214 120.655 168.214 121.136V121.909C168.214 122.568 168.327 123.127 168.555 123.585C168.786 124.04 169.106 124.386 169.515 124.625C169.924 124.86 170.399 124.977 170.941 124.977C171.293 124.977 171.612 124.928 171.896 124.83C172.183 124.727 172.432 124.576 172.64 124.375C172.848 124.17 173.009 123.917 173.123 123.614L174.418 123.977C174.282 124.417 174.053 124.803 173.731 125.136C173.409 125.466 173.011 125.723 172.538 125.909C172.064 126.091 171.532 126.182 170.941 126.182ZM184.89 117.273V118.409H180.367V117.273H184.89ZM181.685 115.182H183.026V123.5C183.026 123.879 183.081 124.163 183.191 124.352C183.305 124.538 183.449 124.663 183.623 124.727C183.801 124.788 183.988 124.818 184.185 124.818C184.333 124.818 184.454 124.811 184.549 124.795C184.644 124.777 184.719 124.761 184.776 124.75L185.049 125.955C184.958 125.989 184.831 126.023 184.668 126.057C184.505 126.095 184.299 126.114 184.049 126.114C183.67 126.114 183.299 126.032 182.935 125.869C182.576 125.706 182.276 125.458 182.038 125.125C181.803 124.792 181.685 124.371 181.685 123.864V115.182ZM190.359 126.182C189.571 126.182 188.879 125.994 188.285 125.619C187.694 125.244 187.232 124.72 186.898 124.045C186.569 123.371 186.404 122.583 186.404 121.682C186.404 120.773 186.569 119.979 186.898 119.301C187.232 118.623 187.694 118.097 188.285 117.722C188.879 117.347 189.571 117.159 190.359 117.159C191.147 117.159 191.836 117.347 192.427 117.722C193.022 118.097 193.484 118.623 193.813 119.301C194.147 119.979 194.313 120.773 194.313 121.682C194.313 122.583 194.147 123.371 193.813 124.045C193.484 124.72 193.022 125.244 192.427 125.619C191.836 125.994 191.147 126.182 190.359 126.182ZM190.359 124.977C190.957 124.977 191.45 124.824 191.836 124.517C192.222 124.21 192.508 123.807 192.694 123.307C192.879 122.807 192.972 122.265 192.972 121.682C192.972 121.098 192.879 120.555 192.694 120.051C192.508 119.547 192.222 119.14 191.836 118.83C191.45 118.519 190.957 118.364 190.359 118.364C189.76 118.364 189.268 118.519 188.881 118.83C188.495 119.14 188.209 119.547 188.023 120.051C187.838 120.555 187.745 121.098 187.745 121.682C187.745 122.265 187.838 122.807 188.023 123.307C188.209 123.807 188.495 124.21 188.881 124.517C189.268 124.824 189.76 124.977 190.359 124.977ZM200.86 126V117.273H202.156V118.591H202.246C202.406 118.159 202.693 117.809 203.11 117.54C203.527 117.271 203.996 117.136 204.519 117.136C204.618 117.136 204.741 117.138 204.888 117.142C205.036 117.146 205.148 117.152 205.224 117.159V118.523C205.178 118.511 205.074 118.494 204.911 118.472C204.752 118.445 204.584 118.432 204.406 118.432C203.981 118.432 203.603 118.521 203.269 118.699C202.94 118.873 202.678 119.116 202.485 119.426C202.296 119.733 202.201 120.083 202.201 120.477V126H200.86ZM210.093 126.182C209.305 126.182 208.614 125.994 208.019 125.619C207.428 125.244 206.966 124.72 206.633 124.045C206.303 123.371 206.138 122.583 206.138 121.682C206.138 120.773 206.303 119.979 206.633 119.301C206.966 118.623 207.428 118.097 208.019 117.722C208.614 117.347 209.305 117.159 210.093 117.159C210.881 117.159 211.57 117.347 212.161 117.722C212.756 118.097 213.218 118.623 213.548 119.301C213.881 119.979 214.048 120.773 214.048 121.682C214.048 122.583 213.881 123.371 213.548 124.045C213.218 124.72 212.756 125.244 212.161 125.619C211.57 125.994 210.881 126.182 210.093 126.182ZM210.093 124.977C210.692 124.977 211.184 124.824 211.57 124.517C211.957 124.21 212.243 123.807 212.428 123.307C212.614 122.807 212.707 122.265 212.707 121.682C212.707 121.098 212.614 120.555 212.428 120.051C212.243 119.547 211.957 119.14 211.57 118.83C211.184 118.519 210.692 118.364 210.093 118.364C209.495 118.364 209.002 118.519 208.616 118.83C208.229 119.14 207.943 119.547 207.758 120.051C207.572 120.555 207.479 121.098 207.479 121.682C207.479 122.265 207.572 122.807 207.758 123.307C207.943 123.807 208.229 124.21 208.616 124.517C209.002 124.824 209.495 124.977 210.093 124.977ZM221.594 122.432V117.273H222.935V126H221.594V124.523H221.504C221.299 124.966 220.981 125.343 220.549 125.653C220.117 125.96 219.572 126.114 218.913 126.114C218.367 126.114 217.882 125.994 217.458 125.756C217.034 125.513 216.701 125.15 216.458 124.665C216.216 124.176 216.094 123.561 216.094 122.818V117.273H217.435V122.727C217.435 123.364 217.613 123.871 217.969 124.25C218.329 124.629 218.788 124.818 219.344 124.818C219.678 124.818 220.017 124.733 220.362 124.562C220.71 124.392 221.002 124.131 221.237 123.778C221.475 123.426 221.594 122.977 221.594 122.432ZM229.187 117.273V118.409H224.664V117.273H229.187ZM225.982 115.182H227.323V123.5C227.323 123.879 227.378 124.163 227.488 124.352C227.602 124.538 227.746 124.663 227.92 124.727C228.098 124.788 228.285 124.818 228.482 124.818C228.63 124.818 228.751 124.811 228.846 124.795C228.941 124.777 229.016 124.761 229.073 124.75L229.346 125.955C229.255 125.989 229.128 126.023 228.965 126.057C228.802 126.095 228.596 126.114 228.346 126.114C227.967 126.114 227.596 126.032 227.232 125.869C226.872 125.706 226.573 125.458 226.335 125.125C226.1 124.792 225.982 124.371 225.982 123.864V115.182ZM234.769 126.182C233.928 126.182 233.203 125.996 232.593 125.625C231.987 125.25 231.519 124.727 231.19 124.057C230.864 123.383 230.701 122.598 230.701 121.705C230.701 120.811 230.864 120.023 231.19 119.341C231.519 118.655 231.978 118.121 232.565 117.739C233.156 117.352 233.845 117.159 234.633 117.159C235.087 117.159 235.536 117.235 235.979 117.386C236.423 117.538 236.826 117.784 237.19 118.125C237.553 118.462 237.843 118.909 238.059 119.466C238.275 120.023 238.383 120.708 238.383 121.523V122.091H231.656V120.932H237.019C237.019 120.439 236.921 120 236.724 119.614C236.531 119.227 236.254 118.922 235.894 118.699C235.538 118.475 235.118 118.364 234.633 118.364C234.099 118.364 233.637 118.496 233.246 118.761C232.86 119.023 232.563 119.364 232.354 119.784C232.146 120.205 232.042 120.655 232.042 121.136V121.909C232.042 122.568 232.156 123.127 232.383 123.585C232.614 124.04 232.934 124.386 233.343 124.625C233.752 124.86 234.228 124.977 234.769 124.977C235.121 124.977 235.44 124.928 235.724 124.83C236.012 124.727 236.26 124.576 236.468 124.375C236.676 124.17 236.837 123.917 236.951 123.614L238.246 123.977C238.11 124.417 237.881 124.803 237.559 125.136C237.237 125.466 236.839 125.723 236.366 125.909C235.892 126.091 235.36 126.182 234.769 126.182Z" fill="#3F3F46"/>
<path d="M272 142L264.5 137.67V146.33L272 142ZM77 142V142.75H265.25V142V141.25H77V142Z" fill="#52525B"/>
<path d="M121.923 221V212.273H123.218V213.591H123.309C123.468 213.159 123.756 212.809 124.173 212.54C124.589 212.271 125.059 212.136 125.582 212.136C125.68 212.136 125.803 212.138 125.951 212.142C126.099 212.146 126.21 212.152 126.286 212.159V213.523C126.241 213.511 126.137 213.494 125.974 213.472C125.815 213.445 125.646 213.432 125.468 213.432C125.044 213.432 124.665 213.521 124.332 213.699C124.002 213.873 123.741 214.116 123.548 214.426C123.358 214.733 123.263 215.083 123.263 215.477V221H121.923ZM131.156 221.182C130.368 221.182 129.676 220.994 129.082 220.619C128.491 220.244 128.029 219.72 127.695 219.045C127.366 218.371 127.201 217.583 127.201 216.682C127.201 215.773 127.366 214.979 127.695 214.301C128.029 213.623 128.491 213.097 129.082 212.722C129.676 212.347 130.368 212.159 131.156 212.159C131.943 212.159 132.633 212.347 133.224 212.722C133.818 213.097 134.281 213.623 134.61 214.301C134.943 214.979 135.11 215.773 135.11 216.682C135.11 217.583 134.943 218.371 134.61 219.045C134.281 219.72 133.818 220.244 133.224 220.619C132.633 220.994 131.943 221.182 131.156 221.182ZM131.156 219.977C131.754 219.977 132.246 219.824 132.633 219.517C133.019 219.21 133.305 218.807 133.491 218.307C133.676 217.807 133.769 217.265 133.769 216.682C133.769 216.098 133.676 215.555 133.491 215.051C133.305 214.547 133.019 214.14 132.633 213.83C132.246 213.519 131.754 213.364 131.156 213.364C130.557 213.364 130.065 213.519 129.678 213.83C129.292 214.14 129.006 214.547 128.82 215.051C128.635 215.555 128.542 216.098 128.542 216.682C128.542 217.265 128.635 217.807 128.82 218.307C129.006 218.807 129.292 219.21 129.678 219.517C130.065 219.824 130.557 219.977 131.156 219.977ZM142.657 217.432V212.273H143.998V221H142.657V219.523H142.566C142.362 219.966 142.043 220.343 141.612 220.653C141.18 220.96 140.634 221.114 139.975 221.114C139.43 221.114 138.945 220.994 138.521 220.756C138.096 220.513 137.763 220.15 137.521 219.665C137.278 219.176 137.157 218.561 137.157 217.818V212.273H138.498V217.727C138.498 218.364 138.676 218.871 139.032 219.25C139.392 219.629 139.85 219.818 140.407 219.818C140.74 219.818 141.079 219.733 141.424 219.562C141.772 219.392 142.064 219.131 142.299 218.778C142.538 218.426 142.657 217.977 142.657 217.432ZM150.249 212.273V213.409H145.727V212.273H150.249ZM147.045 210.182H148.386V218.5C148.386 218.879 148.441 219.163 148.55 219.352C148.664 219.538 148.808 219.663 148.982 219.727C149.16 219.788 149.348 219.818 149.545 219.818C149.692 219.818 149.814 219.811 149.908 219.795C150.003 219.777 150.079 219.761 150.136 219.75L150.408 220.955C150.317 220.989 150.191 221.023 150.028 221.057C149.865 221.095 149.658 221.114 149.408 221.114C149.03 221.114 148.658 221.032 148.295 220.869C147.935 220.706 147.636 220.458 147.397 220.125C147.162 219.792 147.045 219.371 147.045 218.864V210.182ZM155.832 221.182C154.991 221.182 154.265 220.996 153.656 220.625C153.049 220.25 152.582 219.727 152.252 219.057C151.926 218.383 151.763 217.598 151.763 216.705C151.763 215.811 151.926 215.023 152.252 214.341C152.582 213.655 153.04 213.121 153.627 212.739C154.218 212.352 154.907 212.159 155.695 212.159C156.15 212.159 156.599 212.235 157.042 212.386C157.485 212.538 157.888 212.784 158.252 213.125C158.616 213.462 158.906 213.909 159.121 214.466C159.337 215.023 159.445 215.708 159.445 216.523V217.091H152.718V215.932H158.082C158.082 215.439 157.983 215 157.786 214.614C157.593 214.227 157.317 213.922 156.957 213.699C156.601 213.475 156.18 213.364 155.695 213.364C155.161 213.364 154.699 213.496 154.309 213.761C153.923 214.023 153.625 214.364 153.417 214.784C153.209 215.205 153.104 215.655 153.104 216.136V216.909C153.104 217.568 153.218 218.127 153.445 218.585C153.676 219.04 153.996 219.386 154.406 219.625C154.815 219.86 155.29 219.977 155.832 219.977C156.184 219.977 156.502 219.928 156.786 219.83C157.074 219.727 157.322 219.576 157.531 219.375C157.739 219.17 157.9 218.917 158.013 218.614L159.309 218.977C159.173 219.417 158.943 219.803 158.621 220.136C158.299 220.466 157.902 220.723 157.428 220.909C156.955 221.091 156.423 221.182 155.832 221.182ZM165.985 221V212.273H167.281V213.591H167.371C167.531 213.159 167.818 212.809 168.235 212.54C168.652 212.271 169.121 212.136 169.644 212.136C169.743 212.136 169.866 212.138 170.013 212.142C170.161 212.146 170.273 212.152 170.349 212.159V213.523C170.303 213.511 170.199 213.494 170.036 213.472C169.877 213.445 169.709 213.432 169.531 213.432C169.106 213.432 168.728 213.521 168.394 213.699C168.065 213.873 167.803 214.116 167.61 214.426C167.421 214.733 167.326 215.083 167.326 215.477V221H165.985ZM175.332 221.182C174.491 221.182 173.765 220.996 173.156 220.625C172.549 220.25 172.082 219.727 171.752 219.057C171.426 218.383 171.263 217.598 171.263 216.705C171.263 215.811 171.426 215.023 171.752 214.341C172.082 213.655 172.54 213.121 173.127 212.739C173.718 212.352 174.407 212.159 175.195 212.159C175.65 212.159 176.099 212.235 176.542 212.386C176.985 212.538 177.388 212.784 177.752 213.125C178.116 213.462 178.406 213.909 178.621 214.466C178.837 215.023 178.945 215.708 178.945 216.523V217.091H172.218V215.932H177.582C177.582 215.439 177.483 215 177.286 214.614C177.093 214.227 176.817 213.922 176.457 213.699C176.101 213.475 175.68 213.364 175.195 213.364C174.661 213.364 174.199 213.496 173.809 213.761C173.423 214.023 173.125 214.364 172.917 214.784C172.709 215.205 172.604 215.655 172.604 216.136V216.909C172.604 217.568 172.718 218.127 172.945 218.585C173.176 219.04 173.496 219.386 173.906 219.625C174.315 219.86 174.79 219.977 175.332 219.977C175.684 219.977 176.002 219.928 176.286 219.83C176.574 219.727 176.822 219.576 177.031 219.375C177.239 219.17 177.4 218.917 177.513 218.614L178.809 218.977C178.673 219.417 178.443 219.803 178.121 220.136C177.799 220.466 177.402 220.723 176.928 220.909C176.455 221.091 175.923 221.182 175.332 221.182ZM182.326 215.75V221H180.985V212.273H182.281V213.636H182.394C182.599 213.193 182.909 212.837 183.326 212.568C183.743 212.295 184.281 212.159 184.94 212.159C185.531 212.159 186.048 212.28 186.491 212.523C186.934 212.761 187.279 213.125 187.525 213.614C187.771 214.098 187.894 214.712 187.894 215.455V221H186.553V215.545C186.553 214.86 186.375 214.326 186.019 213.943C185.663 213.557 185.174 213.364 184.553 213.364C184.125 213.364 183.743 213.456 183.406 213.642C183.072 213.828 182.809 214.098 182.616 214.455C182.423 214.811 182.326 215.242 182.326 215.75ZM193.64 221.182C192.913 221.182 192.271 220.998 191.714 220.631C191.157 220.259 190.721 219.737 190.407 219.062C190.093 218.384 189.935 217.583 189.935 216.659C189.935 215.742 190.093 214.947 190.407 214.273C190.721 213.598 191.159 213.078 191.719 212.71C192.28 212.343 192.928 212.159 193.663 212.159C194.231 212.159 194.68 212.254 195.009 212.443C195.343 212.629 195.596 212.841 195.771 213.08C195.949 213.314 196.087 213.508 196.185 213.659H196.299V209.364H197.64V221H196.344V219.659H196.185C196.087 219.818 195.947 220.019 195.765 220.261C195.583 220.5 195.324 220.714 194.987 220.903C194.649 221.089 194.201 221.182 193.64 221.182ZM193.822 219.977C194.36 219.977 194.814 219.837 195.185 219.557C195.557 219.273 195.839 218.881 196.032 218.381C196.225 217.877 196.322 217.295 196.322 216.636C196.322 215.985 196.227 215.415 196.038 214.926C195.848 214.434 195.568 214.051 195.197 213.778C194.826 213.502 194.367 213.364 193.822 213.364C193.254 213.364 192.78 213.509 192.401 213.801C192.026 214.089 191.744 214.481 191.555 214.977C191.369 215.47 191.276 216.023 191.276 216.636C191.276 217.258 191.371 217.822 191.56 218.33C191.754 218.833 192.038 219.235 192.413 219.534C192.791 219.83 193.261 219.977 193.822 219.977ZM203.941 221.182C203.1 221.182 202.375 220.996 201.765 220.625C201.159 220.25 200.691 219.727 200.362 219.057C200.036 218.383 199.873 217.598 199.873 216.705C199.873 215.811 200.036 215.023 200.362 214.341C200.691 213.655 201.149 213.121 201.737 212.739C202.327 212.352 203.017 212.159 203.805 212.159C204.259 212.159 204.708 212.235 205.151 212.386C205.594 212.538 205.998 212.784 206.362 213.125C206.725 213.462 207.015 213.909 207.231 214.466C207.447 215.023 207.555 215.708 207.555 216.523V217.091H200.827V215.932H206.191C206.191 215.439 206.093 215 205.896 214.614C205.702 214.227 205.426 213.922 205.066 213.699C204.71 213.475 204.29 213.364 203.805 213.364C203.271 213.364 202.808 213.496 202.418 213.761C202.032 214.023 201.735 214.364 201.526 214.784C201.318 215.205 201.214 215.655 201.214 216.136V216.909C201.214 217.568 201.327 218.127 201.555 218.585C201.786 219.04 202.106 219.386 202.515 219.625C202.924 219.86 203.399 219.977 203.941 219.977C204.293 219.977 204.612 219.928 204.896 219.83C205.183 219.727 205.432 219.576 205.64 219.375C205.848 219.17 206.009 218.917 206.123 218.614L207.418 218.977C207.282 219.417 207.053 219.803 206.731 220.136C206.409 220.466 206.011 220.723 205.538 220.909C205.064 221.091 204.532 221.182 203.941 221.182ZM209.594 221V212.273H210.89V213.591H210.981C211.14 213.159 211.428 212.809 211.844 212.54C212.261 212.271 212.731 212.136 213.254 212.136C213.352 212.136 213.475 212.138 213.623 212.142C213.771 212.146 213.882 212.152 213.958 212.159V213.523C213.913 213.511 213.808 213.494 213.646 213.472C213.487 213.445 213.318 213.432 213.14 213.432C212.716 213.432 212.337 213.521 212.004 213.699C211.674 213.873 211.413 214.116 211.219 214.426C211.03 214.733 210.935 215.083 210.935 215.477V221H209.594ZM218.941 221.182C218.1 221.182 217.375 220.996 216.765 220.625C216.159 220.25 215.691 219.727 215.362 219.057C215.036 218.383 214.873 217.598 214.873 216.705C214.873 215.811 215.036 215.023 215.362 214.341C215.691 213.655 216.149 213.121 216.737 212.739C217.327 212.352 218.017 212.159 218.805 212.159C219.259 212.159 219.708 212.235 220.151 212.386C220.594 212.538 220.998 212.784 221.362 213.125C221.725 213.462 222.015 213.909 222.231 214.466C222.447 215.023 222.555 215.708 222.555 216.523V217.091H215.827V215.932H221.191C221.191 215.439 221.093 215 220.896 214.614C220.702 214.227 220.426 213.922 220.066 213.699C219.71 213.475 219.29 213.364 218.805 213.364C218.271 213.364 217.808 213.496 217.418 213.761C217.032 214.023 216.735 214.364 216.526 214.784C216.318 215.205 216.214 215.655 216.214 216.136V216.909C216.214 217.568 216.327 218.127 216.555 218.585C216.786 219.04 217.106 219.386 217.515 219.625C217.924 219.86 218.399 219.977 218.941 219.977C219.293 219.977 219.612 219.928 219.896 219.83C220.183 219.727 220.432 219.576 220.64 219.375C220.848 219.17 221.009 218.917 221.123 218.614L222.418 218.977C222.282 219.417 222.053 219.803 221.731 220.136C221.409 220.466 221.011 220.723 220.538 220.909C220.064 221.091 219.532 221.182 218.941 221.182ZM227.89 221.182C227.163 221.182 226.521 220.998 225.964 220.631C225.407 220.259 224.971 219.737 224.657 219.062C224.343 218.384 224.185 217.583 224.185 216.659C224.185 215.742 224.343 214.947 224.657 214.273C224.971 213.598 225.409 213.078 225.969 212.71C226.53 212.343 227.178 212.159 227.913 212.159C228.481 212.159 228.93 212.254 229.259 212.443C229.593 212.629 229.846 212.841 230.021 213.08C230.199 213.314 230.337 213.508 230.435 213.659H230.549V209.364H231.89V221H230.594V219.659H230.435C230.337 219.818 230.197 220.019 230.015 220.261C229.833 220.5 229.574 220.714 229.237 220.903C228.899 221.089 228.451 221.182 227.89 221.182ZM228.072 219.977C228.61 219.977 229.064 219.837 229.435 219.557C229.807 219.273 230.089 218.881 230.282 218.381C230.475 217.877 230.572 217.295 230.572 216.636C230.572 215.985 230.477 215.415 230.288 214.926C230.098 214.434 229.818 214.051 229.447 213.778C229.076 213.502 228.617 213.364 228.072 213.364C227.504 213.364 227.03 213.509 226.651 213.801C226.276 214.089 225.994 214.481 225.805 214.977C225.619 215.47 225.526 216.023 225.526 216.636C225.526 217.258 225.621 217.822 225.81 218.33C226.004 218.833 226.288 219.235 226.663 219.534C227.041 219.83 227.511 219.977 228.072 219.977Z" fill="#3F3F46"/>
<path d="M79 198L86.5 202.33V193.67L79 198ZM85.75 198V198.75H274V198V197.25H85.75V198Z" fill="#52525B"/>
<path d="M328.884 142V133.273H330.179V134.591H330.27C330.429 134.159 330.717 133.809 331.134 133.54C331.55 133.271 332.02 133.136 332.543 133.136C332.641 133.136 332.764 133.138 332.912 133.142C333.06 133.146 333.171 133.152 333.247 133.159V134.523C333.202 134.511 333.098 134.494 332.935 134.472C332.776 134.445 332.607 134.432 332.429 134.432C332.005 134.432 331.626 134.521 331.293 134.699C330.963 134.873 330.702 135.116 330.509 135.426C330.319 135.733 330.224 136.083 330.224 136.477V142H328.884ZM338.23 142.182C337.389 142.182 336.664 141.996 336.054 141.625C335.448 141.25 334.98 140.727 334.651 140.057C334.325 139.383 334.162 138.598 334.162 137.705C334.162 136.811 334.325 136.023 334.651 135.341C334.98 134.655 335.438 134.121 336.026 133.739C336.616 133.352 337.306 133.159 338.094 133.159C338.548 133.159 338.997 133.235 339.44 133.386C339.884 133.538 340.287 133.784 340.651 134.125C341.014 134.462 341.304 134.909 341.52 135.466C341.736 136.023 341.844 136.708 341.844 137.523V138.091H335.116V136.932H340.48C340.48 136.439 340.382 136 340.185 135.614C339.991 135.227 339.715 134.922 339.355 134.699C338.999 134.475 338.579 134.364 338.094 134.364C337.56 134.364 337.098 134.496 336.707 134.761C336.321 135.023 336.024 135.364 335.815 135.784C335.607 136.205 335.503 136.655 335.503 137.136V137.909C335.503 138.568 335.616 139.127 335.844 139.585C336.075 140.04 336.395 140.386 336.804 140.625C337.213 140.86 337.688 140.977 338.23 140.977C338.582 140.977 338.901 140.928 339.185 140.83C339.473 140.727 339.721 140.576 339.929 140.375C340.137 140.17 340.298 139.917 340.412 139.614L341.707 139.977C341.571 140.417 341.342 140.803 341.02 141.136C340.698 141.466 340.3 141.723 339.827 141.909C339.353 142.091 338.821 142.182 338.23 142.182ZM349.838 145.273V140.659H349.724C349.626 140.818 349.486 141.019 349.304 141.261C349.122 141.5 348.863 141.714 348.526 141.903C348.188 142.089 347.74 142.182 347.179 142.182C346.452 142.182 345.81 141.998 345.253 141.631C344.696 141.259 344.26 140.737 343.946 140.062C343.632 139.384 343.474 138.583 343.474 137.659C343.474 136.742 343.632 135.947 343.946 135.273C344.26 134.598 344.698 134.078 345.259 133.71C345.819 133.343 346.467 133.159 347.202 133.159C347.77 133.159 348.219 133.254 348.548 133.443C348.882 133.629 349.135 133.841 349.31 134.08C349.488 134.314 349.626 134.508 349.724 134.659H349.884V133.273H351.179V145.273H349.838ZM347.361 140.977C347.899 140.977 348.353 140.837 348.724 140.557C349.096 140.273 349.378 139.881 349.571 139.381C349.764 138.877 349.861 138.295 349.861 137.636C349.861 136.985 349.766 136.415 349.577 135.926C349.387 135.434 349.107 135.051 348.736 134.778C348.365 134.502 347.906 134.364 347.361 134.364C346.793 134.364 346.319 134.509 345.94 134.801C345.565 135.089 345.283 135.481 345.094 135.977C344.908 136.47 344.815 137.023 344.815 137.636C344.815 138.258 344.91 138.822 345.099 139.33C345.293 139.833 345.577 140.235 345.952 140.534C346.33 140.83 346.8 140.977 347.361 140.977ZM359.134 138.432V133.273H360.474V142H359.134V140.523H359.043C358.838 140.966 358.52 141.343 358.088 141.653C357.656 141.96 357.111 142.114 356.452 142.114C355.906 142.114 355.421 141.994 354.997 141.756C354.573 141.513 354.24 141.15 353.997 140.665C353.755 140.176 353.634 139.561 353.634 138.818V133.273H354.974V138.727C354.974 139.364 355.152 139.871 355.509 140.25C355.868 140.629 356.327 140.818 356.884 140.818C357.217 140.818 357.556 140.733 357.901 140.562C358.249 140.392 358.541 140.131 358.776 139.778C359.014 139.426 359.134 138.977 359.134 138.432ZM366.589 142.182C365.749 142.182 365.023 141.996 364.413 141.625C363.807 141.25 363.339 140.727 363.01 140.057C362.684 139.383 362.521 138.598 362.521 137.705C362.521 136.811 362.684 136.023 363.01 135.341C363.339 134.655 363.798 134.121 364.385 133.739C364.976 133.352 365.665 133.159 366.453 133.159C366.908 133.159 367.357 133.235 367.8 133.386C368.243 133.538 368.646 133.784 369.01 134.125C369.374 134.462 369.663 134.909 369.879 135.466C370.095 136.023 370.203 136.708 370.203 137.523V138.091H363.476V136.932H368.839C368.839 136.439 368.741 136 368.544 135.614C368.351 135.227 368.074 134.922 367.714 134.699C367.358 134.475 366.938 134.364 366.453 134.364C365.919 134.364 365.457 134.496 365.067 134.761C364.68 135.023 364.383 135.364 364.175 135.784C363.966 136.205 363.862 136.655 363.862 137.136V137.909C363.862 138.568 363.976 139.127 364.203 139.585C364.434 140.04 364.754 140.386 365.163 140.625C365.572 140.86 366.048 140.977 366.589 140.977C366.942 140.977 367.26 140.928 367.544 140.83C367.832 140.727 368.08 140.576 368.288 140.375C368.497 140.17 368.658 139.917 368.771 139.614L370.067 139.977C369.93 140.417 369.701 140.803 369.379 141.136C369.057 141.466 368.66 141.723 368.186 141.909C367.713 142.091 367.18 142.182 366.589 142.182ZM378.425 135.227L377.22 135.568C377.144 135.367 377.033 135.172 376.885 134.983C376.741 134.79 376.544 134.631 376.294 134.506C376.044 134.381 375.724 134.318 375.334 134.318C374.8 134.318 374.355 134.441 373.999 134.688C373.646 134.93 373.47 135.239 373.47 135.614C373.47 135.947 373.591 136.21 373.834 136.403C374.076 136.597 374.455 136.758 374.97 136.886L376.266 137.205C377.046 137.394 377.627 137.684 378.01 138.074C378.393 138.46 378.584 138.958 378.584 139.568C378.584 140.068 378.44 140.515 378.152 140.909C377.868 141.303 377.47 141.614 376.959 141.841C376.447 142.068 375.853 142.182 375.175 142.182C374.285 142.182 373.548 141.989 372.964 141.602C372.381 141.216 372.012 140.652 371.857 139.909L373.129 139.591C373.25 140.061 373.48 140.413 373.817 140.648C374.158 140.883 374.603 141 375.152 141C375.777 141 376.273 140.867 376.641 140.602C377.012 140.333 377.197 140.011 377.197 139.636C377.197 139.333 377.091 139.08 376.879 138.875C376.667 138.667 376.341 138.511 375.902 138.409L374.447 138.068C373.648 137.879 373.061 137.585 372.686 137.188C372.315 136.786 372.129 136.284 372.129 135.682C372.129 135.189 372.268 134.754 372.544 134.375C372.824 133.996 373.205 133.699 373.686 133.483C374.171 133.267 374.72 133.159 375.334 133.159C376.197 133.159 376.875 133.348 377.368 133.727C377.864 134.106 378.216 134.606 378.425 135.227ZM384.398 133.273V134.409H379.875V133.273H384.398ZM381.193 131.182H382.534V139.5C382.534 139.879 382.589 140.163 382.699 140.352C382.813 140.538 382.956 140.663 383.131 140.727C383.309 140.788 383.496 140.818 383.693 140.818C383.841 140.818 383.962 140.811 384.057 140.795C384.152 140.777 384.227 140.761 384.284 140.75L384.557 141.955C384.466 141.989 384.339 142.023 384.176 142.057C384.013 142.095 383.807 142.114 383.557 142.114C383.178 142.114 382.807 142.032 382.443 141.869C382.083 141.706 381.784 141.458 381.545 141.125C381.311 140.792 381.193 140.371 381.193 139.864V131.182ZM390.915 145.273V133.273H392.21V134.659H392.369C392.468 134.508 392.604 134.314 392.778 134.08C392.956 133.841 393.21 133.629 393.54 133.443C393.873 133.254 394.324 133.159 394.892 133.159C395.627 133.159 396.275 133.343 396.835 133.71C397.396 134.078 397.833 134.598 398.148 135.273C398.462 135.947 398.619 136.742 398.619 137.659C398.619 138.583 398.462 139.384 398.148 140.062C397.833 140.737 397.398 141.259 396.841 141.631C396.284 141.998 395.642 142.182 394.915 142.182C394.354 142.182 393.905 142.089 393.568 141.903C393.231 141.714 392.972 141.5 392.79 141.261C392.608 141.019 392.468 140.818 392.369 140.659H392.256V145.273H390.915ZM392.233 137.636C392.233 138.295 392.33 138.877 392.523 139.381C392.716 139.881 392.998 140.273 393.369 140.557C393.741 140.837 394.195 140.977 394.733 140.977C395.294 140.977 395.761 140.83 396.136 140.534C396.515 140.235 396.799 139.833 396.989 139.33C397.182 138.822 397.278 138.258 397.278 137.636C397.278 137.023 397.184 136.47 396.994 135.977C396.809 135.481 396.527 135.089 396.148 134.801C395.773 134.509 395.301 134.364 394.733 134.364C394.188 134.364 393.729 134.502 393.358 134.778C392.987 135.051 392.706 135.434 392.517 135.926C392.328 136.415 392.233 136.985 392.233 137.636ZM403.233 142.205C402.68 142.205 402.178 142.1 401.727 141.892C401.277 141.68 400.919 141.375 400.653 140.977C400.388 140.576 400.256 140.091 400.256 139.523C400.256 139.023 400.354 138.617 400.551 138.307C400.748 137.992 401.011 137.746 401.341 137.568C401.67 137.39 402.034 137.258 402.432 137.17C402.833 137.08 403.237 137.008 403.642 136.955C404.172 136.886 404.602 136.835 404.932 136.801C405.265 136.763 405.508 136.701 405.659 136.614C405.814 136.527 405.892 136.375 405.892 136.159V136.114C405.892 135.553 405.739 135.117 405.432 134.807C405.129 134.496 404.669 134.341 404.051 134.341C403.411 134.341 402.909 134.481 402.545 134.761C402.182 135.042 401.926 135.341 401.778 135.659L400.506 135.205C400.733 134.674 401.036 134.261 401.415 133.966C401.797 133.667 402.214 133.458 402.665 133.341C403.119 133.22 403.566 133.159 404.006 133.159C404.286 133.159 404.608 133.193 404.972 133.261C405.339 133.326 405.693 133.46 406.034 133.665C406.379 133.869 406.665 134.178 406.892 134.591C407.119 135.004 407.233 135.557 407.233 136.25V142H405.892V140.818H405.824C405.733 141.008 405.581 141.21 405.369 141.426C405.157 141.642 404.875 141.826 404.523 141.977C404.17 142.129 403.741 142.205 403.233 142.205ZM403.438 141C403.968 141 404.415 140.896 404.778 140.688C405.146 140.479 405.422 140.21 405.608 139.881C405.797 139.551 405.892 139.205 405.892 138.841V137.614C405.835 137.682 405.71 137.744 405.517 137.801C405.328 137.854 405.108 137.902 404.858 137.943C404.612 137.981 404.371 138.015 404.136 138.045C403.905 138.072 403.718 138.095 403.574 138.114C403.225 138.159 402.9 138.233 402.597 138.335C402.297 138.434 402.055 138.583 401.869 138.784C401.688 138.981 401.597 139.25 401.597 139.591C401.597 140.057 401.769 140.409 402.114 140.648C402.462 140.883 402.903 141 403.438 141ZM410.232 145.273C410.004 145.273 409.802 145.254 409.624 145.216C409.446 145.182 409.322 145.148 409.254 145.114L409.595 143.932C409.921 144.015 410.209 144.045 410.459 144.023C410.709 144 410.93 143.888 411.124 143.688C411.321 143.491 411.5 143.17 411.663 142.727L411.913 142.045L408.686 133.273H410.141L412.55 140.227H412.641L415.05 133.273H416.504L412.8 143.273C412.633 143.723 412.427 144.097 412.18 144.392C411.934 144.691 411.648 144.913 411.322 145.057C411 145.201 410.637 145.273 410.232 145.273ZM419.615 130.364V142H418.274V130.364H419.615ZM425.616 142.182C424.829 142.182 424.137 141.994 423.543 141.619C422.952 141.244 422.49 140.72 422.156 140.045C421.827 139.371 421.662 138.583 421.662 137.682C421.662 136.773 421.827 135.979 422.156 135.301C422.49 134.623 422.952 134.097 423.543 133.722C424.137 133.347 424.829 133.159 425.616 133.159C426.404 133.159 427.094 133.347 427.685 133.722C428.279 134.097 428.741 134.623 429.071 135.301C429.404 135.979 429.571 136.773 429.571 137.682C429.571 138.583 429.404 139.371 429.071 140.045C428.741 140.72 428.279 141.244 427.685 141.619C427.094 141.994 426.404 142.182 425.616 142.182ZM425.616 140.977C426.215 140.977 426.707 140.824 427.094 140.517C427.48 140.21 427.766 139.807 427.952 139.307C428.137 138.807 428.23 138.265 428.23 137.682C428.23 137.098 428.137 136.555 427.952 136.051C427.766 135.547 427.48 135.14 427.094 134.83C426.707 134.519 426.215 134.364 425.616 134.364C425.018 134.364 424.526 134.519 424.139 134.83C423.753 135.14 423.467 135.547 423.281 136.051C423.096 136.555 423.003 137.098 423.003 137.682C423.003 138.265 423.096 138.807 423.281 139.307C423.467 139.807 423.753 140.21 424.139 140.517C424.526 140.824 425.018 140.977 425.616 140.977ZM434.186 142.205C433.633 142.205 433.131 142.1 432.68 141.892C432.23 141.68 431.872 141.375 431.607 140.977C431.341 140.576 431.209 140.091 431.209 139.523C431.209 139.023 431.307 138.617 431.504 138.307C431.701 137.992 431.964 137.746 432.294 137.568C432.624 137.39 432.987 137.258 433.385 137.17C433.786 137.08 434.19 137.008 434.595 136.955C435.125 136.886 435.555 136.835 435.885 136.801C436.218 136.763 436.461 136.701 436.612 136.614C436.768 136.527 436.845 136.375 436.845 136.159V136.114C436.845 135.553 436.692 135.117 436.385 134.807C436.082 134.496 435.622 134.341 435.004 134.341C434.364 134.341 433.862 134.481 433.499 134.761C433.135 135.042 432.879 135.341 432.732 135.659L431.459 135.205C431.686 134.674 431.989 134.261 432.368 133.966C432.75 133.667 433.167 133.458 433.618 133.341C434.072 133.22 434.519 133.159 434.959 133.159C435.239 133.159 435.561 133.193 435.925 133.261C436.292 133.326 436.646 133.46 436.987 133.665C437.332 133.869 437.618 134.178 437.845 134.591C438.072 135.004 438.186 135.557 438.186 136.25V142H436.845V140.818H436.777C436.686 141.008 436.535 141.21 436.322 141.426C436.11 141.642 435.828 141.826 435.476 141.977C435.124 142.129 434.694 142.205 434.186 142.205ZM434.391 141C434.921 141 435.368 140.896 435.732 140.688C436.099 140.479 436.375 140.21 436.561 139.881C436.75 139.551 436.845 139.205 436.845 138.841V137.614C436.788 137.682 436.663 137.744 436.47 137.801C436.281 137.854 436.061 137.902 435.811 137.943C435.565 137.981 435.324 138.015 435.089 138.045C434.858 138.072 434.671 138.095 434.527 138.114C434.179 138.159 433.853 138.233 433.55 138.335C433.25 138.434 433.008 138.583 432.822 138.784C432.641 138.981 432.55 139.25 432.55 139.591C432.55 140.057 432.722 140.409 433.067 140.648C433.415 140.883 433.857 141 434.391 141ZM443.929 142.182C443.202 142.182 442.56 141.998 442.003 141.631C441.446 141.259 441.01 140.737 440.696 140.062C440.382 139.384 440.224 138.583 440.224 137.659C440.224 136.742 440.382 135.947 440.696 135.273C441.01 134.598 441.448 134.078 442.009 133.71C442.569 133.343 443.217 133.159 443.952 133.159C444.52 133.159 444.969 133.254 445.298 133.443C445.632 133.629 445.885 133.841 446.06 134.08C446.238 134.314 446.376 134.508 446.474 134.659H446.588V130.364H447.929V142H446.634V140.659H446.474C446.376 140.818 446.236 141.019 446.054 141.261C445.872 141.5 445.613 141.714 445.276 141.903C444.938 142.089 444.49 142.182 443.929 142.182ZM444.111 140.977C444.649 140.977 445.103 140.837 445.474 140.557C445.846 140.273 446.128 139.881 446.321 139.381C446.514 138.877 446.611 138.295 446.611 137.636C446.611 136.985 446.516 136.415 446.327 135.926C446.137 135.434 445.857 135.051 445.486 134.778C445.115 134.502 444.656 134.364 444.111 134.364C443.543 134.364 443.069 134.509 442.69 134.801C442.315 135.089 442.033 135.481 441.844 135.977C441.658 136.47 441.565 137.023 441.565 137.636C441.565 138.258 441.66 138.822 441.849 139.33C442.043 139.833 442.327 140.235 442.702 140.534C443.08 140.83 443.55 140.977 444.111 140.977Z" fill="#3F3F46"/>
<path d="M500 158L492.5 153.67V162.33L500 158ZM277 158V158.75H493.25V158V157.25H277V158Z" fill="#52525B"/>
<path d="M309.391 202V193.273H310.687V194.591H310.778C310.937 194.159 311.225 193.809 311.641 193.54C312.058 193.271 312.528 193.136 313.05 193.136C313.149 193.136 313.272 193.138 313.42 193.142C313.567 193.146 313.679 193.152 313.755 193.159V194.523C313.71 194.511 313.605 194.494 313.442 194.472C313.283 194.445 313.115 194.432 312.937 194.432C312.513 194.432 312.134 194.521 311.8 194.699C311.471 194.873 311.21 195.116 311.016 195.426C310.827 195.733 310.732 196.083 310.732 196.477V202H309.391ZM318.738 202.182C317.897 202.182 317.172 201.996 316.562 201.625C315.956 201.25 315.488 200.727 315.158 200.057C314.833 199.383 314.67 198.598 314.67 197.705C314.67 196.811 314.833 196.023 315.158 195.341C315.488 194.655 315.946 194.121 316.533 193.739C317.124 193.352 317.814 193.159 318.602 193.159C319.056 193.159 319.505 193.235 319.948 193.386C320.391 193.538 320.795 193.784 321.158 194.125C321.522 194.462 321.812 194.909 322.028 195.466C322.244 196.023 322.352 196.708 322.352 197.523V198.091H315.624V196.932H320.988C320.988 196.439 320.889 196 320.692 195.614C320.499 195.227 320.223 194.922 319.863 194.699C319.507 194.475 319.086 194.364 318.602 194.364C318.067 194.364 317.605 194.496 317.215 194.761C316.829 195.023 316.531 195.364 316.323 195.784C316.115 196.205 316.011 196.655 316.011 197.136V197.909C316.011 198.568 316.124 199.127 316.352 199.585C316.583 200.04 316.903 200.386 317.312 200.625C317.721 200.86 318.196 200.977 318.738 200.977C319.09 200.977 319.408 200.928 319.692 200.83C319.98 200.727 320.228 200.576 320.437 200.375C320.645 200.17 320.806 199.917 320.92 199.614L322.215 199.977C322.079 200.417 321.85 200.803 321.528 201.136C321.206 201.466 320.808 201.723 320.335 201.909C319.861 202.091 319.329 202.182 318.738 202.182ZM328.187 193.273V194.409H323.664V193.273H328.187ZM324.982 191.182H326.323V199.5C326.323 199.879 326.378 200.163 326.488 200.352C326.602 200.538 326.746 200.663 326.92 200.727C327.098 200.788 327.285 200.818 327.482 200.818C327.63 200.818 327.751 200.811 327.846 200.795C327.941 200.777 328.016 200.761 328.073 200.75L328.346 201.955C328.255 201.989 328.128 202.023 327.965 202.057C327.802 202.095 327.596 202.114 327.346 202.114C326.967 202.114 326.596 202.032 326.232 201.869C325.872 201.706 325.573 201.458 325.335 201.125C325.1 200.792 324.982 200.371 324.982 199.864V191.182ZM335.704 198.432V193.273H337.045V202H335.704V200.523H335.613C335.408 200.966 335.09 201.343 334.658 201.653C334.227 201.96 333.681 202.114 333.022 202.114C332.477 202.114 331.992 201.994 331.567 201.756C331.143 201.513 330.81 201.15 330.567 200.665C330.325 200.176 330.204 199.561 330.204 198.818V193.273H331.545V198.727C331.545 199.364 331.723 199.871 332.079 200.25C332.439 200.629 332.897 200.818 333.454 200.818C333.787 200.818 334.126 200.733 334.471 200.562C334.819 200.392 335.111 200.131 335.346 199.778C335.585 199.426 335.704 198.977 335.704 198.432ZM339.501 202V193.273H340.796V194.591H340.887C341.046 194.159 341.334 193.809 341.751 193.54C342.167 193.271 342.637 193.136 343.16 193.136C343.258 193.136 343.381 193.138 343.529 193.142C343.677 193.146 343.789 193.152 343.864 193.159V194.523C343.819 194.511 343.715 194.494 343.552 194.472C343.393 194.445 343.224 194.432 343.046 194.432C342.622 194.432 342.243 194.521 341.91 194.699C341.58 194.873 341.319 195.116 341.126 195.426C340.936 195.733 340.842 196.083 340.842 196.477V202H339.501ZM346.795 196.75V202H345.454V193.273H346.749V194.636H346.863C347.067 194.193 347.378 193.837 347.795 193.568C348.211 193.295 348.749 193.159 349.408 193.159C349.999 193.159 350.516 193.28 350.96 193.523C351.403 193.761 351.747 194.125 351.994 194.614C352.24 195.098 352.363 195.712 352.363 196.455V202H351.022V196.545C351.022 195.86 350.844 195.326 350.488 194.943C350.132 194.557 349.643 194.364 349.022 194.364C348.594 194.364 348.211 194.456 347.874 194.642C347.541 194.828 347.278 195.098 347.085 195.455C346.891 195.811 346.795 196.242 346.795 196.75ZM362.859 202.182C362.04 202.182 361.336 201.989 360.745 201.602C360.154 201.216 359.7 200.684 359.381 200.006C359.063 199.328 358.904 198.553 358.904 197.682C358.904 196.795 359.067 196.013 359.393 195.335C359.722 194.653 360.181 194.121 360.768 193.739C361.359 193.352 362.048 193.159 362.836 193.159C363.45 193.159 364.003 193.273 364.495 193.5C364.987 193.727 365.391 194.045 365.705 194.455C366.02 194.864 366.215 195.341 366.29 195.886H364.95C364.847 195.489 364.62 195.136 364.268 194.83C363.919 194.519 363.45 194.364 362.859 194.364C362.336 194.364 361.878 194.5 361.484 194.773C361.094 195.042 360.789 195.422 360.569 195.915C360.353 196.403 360.245 196.977 360.245 197.636C360.245 198.311 360.351 198.898 360.563 199.398C360.779 199.898 361.082 200.286 361.472 200.562C361.866 200.839 362.328 200.977 362.859 200.977C363.207 200.977 363.523 200.917 363.808 200.795C364.092 200.674 364.332 200.5 364.529 200.273C364.726 200.045 364.866 199.773 364.95 199.455H366.29C366.215 199.97 366.027 200.434 365.728 200.847C365.433 201.256 365.04 201.581 364.552 201.824C364.067 202.062 363.503 202.182 362.859 202.182ZM370.819 202.205C370.266 202.205 369.764 202.1 369.313 201.892C368.862 201.68 368.504 201.375 368.239 200.977C367.974 200.576 367.842 200.091 367.842 199.523C367.842 199.023 367.94 198.617 368.137 198.307C368.334 197.992 368.597 197.746 368.927 197.568C369.256 197.39 369.62 197.258 370.018 197.17C370.419 197.08 370.823 197.008 371.228 196.955C371.758 196.886 372.188 196.835 372.518 196.801C372.851 196.763 373.094 196.701 373.245 196.614C373.4 196.527 373.478 196.375 373.478 196.159V196.114C373.478 195.553 373.325 195.117 373.018 194.807C372.715 194.496 372.254 194.341 371.637 194.341C370.997 194.341 370.495 194.481 370.131 194.761C369.768 195.042 369.512 195.341 369.364 195.659L368.092 195.205C368.319 194.674 368.622 194.261 369.001 193.966C369.383 193.667 369.8 193.458 370.251 193.341C370.705 193.22 371.152 193.159 371.592 193.159C371.872 193.159 372.194 193.193 372.558 193.261C372.925 193.326 373.279 193.46 373.62 193.665C373.965 193.869 374.251 194.178 374.478 194.591C374.705 195.004 374.819 195.557 374.819 196.25V202H373.478V200.818H373.41C373.319 201.008 373.167 201.21 372.955 201.426C372.743 201.642 372.461 201.826 372.109 201.977C371.756 202.129 371.326 202.205 370.819 202.205ZM371.023 201C371.554 201 372.001 200.896 372.364 200.688C372.732 200.479 373.008 200.21 373.194 199.881C373.383 199.551 373.478 199.205 373.478 198.841V197.614C373.421 197.682 373.296 197.744 373.103 197.801C372.914 197.854 372.694 197.902 372.444 197.943C372.198 197.981 371.957 198.015 371.722 198.045C371.491 198.072 371.304 198.095 371.16 198.114C370.811 198.159 370.486 198.233 370.183 198.335C369.883 198.434 369.641 198.583 369.455 198.784C369.273 198.981 369.183 199.25 369.183 199.591C369.183 200.057 369.355 200.409 369.7 200.648C370.048 200.883 370.489 201 371.023 201ZM380.812 202.182C379.994 202.182 379.289 201.989 378.698 201.602C378.107 201.216 377.653 200.684 377.335 200.006C377.016 199.328 376.857 198.553 376.857 197.682C376.857 196.795 377.02 196.013 377.346 195.335C377.675 194.653 378.134 194.121 378.721 193.739C379.312 193.352 380.001 193.159 380.789 193.159C381.403 193.159 381.956 193.273 382.448 193.5C382.941 193.727 383.344 194.045 383.658 194.455C383.973 194.864 384.168 195.341 384.244 195.886H382.903C382.8 195.489 382.573 195.136 382.221 194.83C381.872 194.519 381.403 194.364 380.812 194.364C380.289 194.364 379.831 194.5 379.437 194.773C379.047 195.042 378.742 195.422 378.522 195.915C378.306 196.403 378.198 196.977 378.198 197.636C378.198 198.311 378.304 198.898 378.516 199.398C378.732 199.898 379.035 200.286 379.425 200.562C379.819 200.839 380.281 200.977 380.812 200.977C381.16 200.977 381.477 200.917 381.761 200.795C382.045 200.674 382.285 200.5 382.482 200.273C382.679 200.045 382.819 199.773 382.903 199.455H384.244C384.168 199.97 383.98 200.434 383.681 200.847C383.386 201.256 382.994 201.581 382.505 201.824C382.02 202.062 381.456 202.182 380.812 202.182ZM387.545 196.75V202H386.204V190.364H387.545V194.636H387.658C387.863 194.186 388.17 193.828 388.579 193.562C388.992 193.294 389.541 193.159 390.227 193.159C390.821 193.159 391.342 193.278 391.789 193.517C392.236 193.752 392.583 194.114 392.829 194.602C393.079 195.087 393.204 195.705 393.204 196.455V202H391.863V196.545C391.863 195.852 391.683 195.316 391.323 194.938C390.967 194.555 390.473 194.364 389.84 194.364C389.401 194.364 389.007 194.456 388.658 194.642C388.314 194.828 388.041 195.098 387.84 195.455C387.643 195.811 387.545 196.242 387.545 196.75ZM399.316 202.182C398.475 202.182 397.75 201.996 397.14 201.625C396.534 201.25 396.066 200.727 395.737 200.057C395.411 199.383 395.248 198.598 395.248 197.705C395.248 196.811 395.411 196.023 395.737 195.341C396.066 194.655 396.524 194.121 397.112 193.739C397.702 193.352 398.392 193.159 399.18 193.159C399.634 193.159 400.083 193.235 400.526 193.386C400.969 193.538 401.373 193.784 401.737 194.125C402.1 194.462 402.39 194.909 402.606 195.466C402.822 196.023 402.93 196.708 402.93 197.523V198.091H396.202V196.932H401.566C401.566 196.439 401.468 196 401.271 195.614C401.077 195.227 400.801 194.922 400.441 194.699C400.085 194.475 399.665 194.364 399.18 194.364C398.646 194.364 398.183 194.496 397.793 194.761C397.407 195.023 397.11 195.364 396.901 195.784C396.693 196.205 396.589 196.655 396.589 197.136V197.909C396.589 198.568 396.702 199.127 396.93 199.585C397.161 200.04 397.481 200.386 397.89 200.625C398.299 200.86 398.774 200.977 399.316 200.977C399.668 200.977 399.987 200.928 400.271 200.83C400.558 200.727 400.807 200.576 401.015 200.375C401.223 200.17 401.384 199.917 401.498 199.614L402.793 199.977C402.657 200.417 402.428 200.803 402.106 201.136C401.784 201.466 401.386 201.723 400.913 201.909C400.439 202.091 399.907 202.182 399.316 202.182ZM408.265 202.182C407.538 202.182 406.896 201.998 406.339 201.631C405.782 201.259 405.346 200.737 405.032 200.062C404.718 199.384 404.56 198.583 404.56 197.659C404.56 196.742 404.718 195.947 405.032 195.273C405.346 194.598 405.784 194.078 406.344 193.71C406.905 193.343 407.553 193.159 408.288 193.159C408.856 193.159 409.305 193.254 409.634 193.443C409.968 193.629 410.221 193.841 410.396 194.08C410.574 194.314 410.712 194.508 410.81 194.659H410.924V190.364H412.265V202H410.969V200.659H410.81C410.712 200.818 410.572 201.019 410.39 201.261C410.208 201.5 409.949 201.714 409.612 201.903C409.274 202.089 408.826 202.182 408.265 202.182ZM408.447 200.977C408.985 200.977 409.439 200.837 409.81 200.557C410.182 200.273 410.464 199.881 410.657 199.381C410.85 198.877 410.947 198.295 410.947 197.636C410.947 196.985 410.852 196.415 410.663 195.926C410.473 195.434 410.193 195.051 409.822 194.778C409.451 194.502 408.992 194.364 408.447 194.364C407.879 194.364 407.405 194.509 407.026 194.801C406.651 195.089 406.369 195.481 406.18 195.977C405.994 196.47 405.901 197.023 405.901 197.636C405.901 198.258 405.996 198.822 406.185 199.33C406.379 199.833 406.663 200.235 407.038 200.534C407.416 200.83 407.886 200.977 408.447 200.977ZM419.407 205.273V193.273H420.702V194.659H420.862C420.96 194.508 421.096 194.314 421.271 194.08C421.449 193.841 421.702 193.629 422.032 193.443C422.365 193.254 422.816 193.159 423.384 193.159C424.119 193.159 424.767 193.343 425.327 193.71C425.888 194.078 426.326 194.598 426.64 195.273C426.954 195.947 427.112 196.742 427.112 197.659C427.112 198.583 426.954 199.384 426.64 200.062C426.326 200.737 425.89 201.259 425.333 201.631C424.776 201.998 424.134 202.182 423.407 202.182C422.846 202.182 422.397 202.089 422.06 201.903C421.723 201.714 421.464 201.5 421.282 201.261C421.1 201.019 420.96 200.818 420.862 200.659H420.748V205.273H419.407ZM420.725 197.636C420.725 198.295 420.822 198.877 421.015 199.381C421.208 199.881 421.49 200.273 421.862 200.557C422.233 200.837 422.687 200.977 423.225 200.977C423.786 200.977 424.254 200.83 424.629 200.534C425.007 200.235 425.291 199.833 425.481 199.33C425.674 198.822 425.771 198.258 425.771 197.636C425.771 197.023 425.676 196.47 425.487 195.977C425.301 195.481 425.019 195.089 424.64 194.801C424.265 194.509 423.793 194.364 423.225 194.364C422.68 194.364 422.221 194.502 421.85 194.778C421.479 195.051 421.199 195.434 421.009 195.926C420.82 196.415 420.725 196.985 420.725 197.636ZM431.725 202.205C431.172 202.205 430.67 202.1 430.219 201.892C429.769 201.68 429.411 201.375 429.146 200.977C428.88 200.576 428.748 200.091 428.748 199.523C428.748 199.023 428.846 198.617 429.043 198.307C429.24 197.992 429.504 197.746 429.833 197.568C430.163 197.39 430.526 197.258 430.924 197.17C431.326 197.08 431.729 197.008 432.134 196.955C432.665 196.886 433.094 196.835 433.424 196.801C433.757 196.763 434 196.701 434.151 196.614C434.307 196.527 434.384 196.375 434.384 196.159V196.114C434.384 195.553 434.231 195.117 433.924 194.807C433.621 194.496 433.161 194.341 432.543 194.341C431.903 194.341 431.401 194.481 431.038 194.761C430.674 195.042 430.418 195.341 430.271 195.659L428.998 195.205C429.225 194.674 429.528 194.261 429.907 193.966C430.29 193.667 430.706 193.458 431.157 193.341C431.612 193.22 432.058 193.159 432.498 193.159C432.778 193.159 433.1 193.193 433.464 193.261C433.831 193.326 434.185 193.46 434.526 193.665C434.871 193.869 435.157 194.178 435.384 194.591C435.612 195.004 435.725 195.557 435.725 196.25V202H434.384V200.818H434.316C434.225 201.008 434.074 201.21 433.862 201.426C433.649 201.642 433.367 201.826 433.015 201.977C432.663 202.129 432.233 202.205 431.725 202.205ZM431.93 201C432.46 201 432.907 200.896 433.271 200.688C433.638 200.479 433.915 200.21 434.1 199.881C434.29 199.551 434.384 199.205 434.384 198.841V197.614C434.327 197.682 434.202 197.744 434.009 197.801C433.82 197.854 433.6 197.902 433.35 197.943C433.104 197.981 432.863 198.015 432.629 198.045C432.397 198.072 432.21 198.095 432.066 198.114C431.718 198.159 431.392 198.233 431.089 198.335C430.79 198.434 430.547 198.583 430.362 198.784C430.18 198.981 430.089 199.25 430.089 199.591C430.089 200.057 430.261 200.409 430.606 200.648C430.954 200.883 431.396 201 431.93 201ZM438.724 205.273C438.496 205.273 438.294 205.254 438.116 205.216C437.938 205.182 437.815 205.148 437.746 205.114L438.087 203.932C438.413 204.015 438.701 204.045 438.951 204.023C439.201 204 439.423 203.888 439.616 203.688C439.813 203.491 439.993 203.17 440.156 202.727L440.406 202.045L437.178 193.273H438.633L441.042 200.227H441.133L443.542 193.273H444.996L441.292 203.273C441.125 203.723 440.919 204.097 440.673 204.392C440.426 204.691 440.14 204.913 439.815 205.057C439.493 205.201 439.129 205.273 438.724 205.273ZM448.107 190.364V202H446.766V190.364H448.107ZM454.109 202.182C453.321 202.182 452.629 201.994 452.035 201.619C451.444 201.244 450.982 200.72 450.648 200.045C450.319 199.371 450.154 198.583 450.154 197.682C450.154 196.773 450.319 195.979 450.648 195.301C450.982 194.623 451.444 194.097 452.035 193.722C452.629 193.347 453.321 193.159 454.109 193.159C454.897 193.159 455.586 193.347 456.177 193.722C456.772 194.097 457.234 194.623 457.563 195.301C457.897 195.979 458.063 196.773 458.063 197.682C458.063 198.583 457.897 199.371 457.563 200.045C457.234 200.72 456.772 201.244 456.177 201.619C455.586 201.994 454.897 202.182 454.109 202.182ZM454.109 200.977C454.707 200.977 455.2 200.824 455.586 200.517C455.972 200.21 456.258 199.807 456.444 199.307C456.629 198.807 456.722 198.265 456.722 197.682C456.722 197.098 456.629 196.555 456.444 196.051C456.258 195.547 455.972 195.14 455.586 194.83C455.2 194.519 454.707 194.364 454.109 194.364C453.51 194.364 453.018 194.519 452.631 194.83C452.245 195.14 451.959 195.547 451.773 196.051C451.588 196.555 451.495 197.098 451.495 197.682C451.495 198.265 451.588 198.807 451.773 199.307C451.959 199.807 452.245 200.21 452.631 200.517C453.018 200.824 453.51 200.977 454.109 200.977ZM462.678 202.205C462.125 202.205 461.623 202.1 461.173 201.892C460.722 201.68 460.364 201.375 460.099 200.977C459.834 200.576 459.701 200.091 459.701 199.523C459.701 199.023 459.799 198.617 459.996 198.307C460.193 197.992 460.457 197.746 460.786 197.568C461.116 197.39 461.479 197.258 461.877 197.17C462.279 197.08 462.682 197.008 463.087 196.955C463.618 196.886 464.048 196.835 464.377 196.801C464.71 196.763 464.953 196.701 465.104 196.614C465.26 196.527 465.337 196.375 465.337 196.159V196.114C465.337 195.553 465.184 195.117 464.877 194.807C464.574 194.496 464.114 194.341 463.496 194.341C462.856 194.341 462.354 194.481 461.991 194.761C461.627 195.042 461.371 195.341 461.224 195.659L459.951 195.205C460.178 194.674 460.481 194.261 460.86 193.966C461.243 193.667 461.659 193.458 462.11 193.341C462.565 193.22 463.012 193.159 463.451 193.159C463.731 193.159 464.053 193.193 464.417 193.261C464.784 193.326 465.138 193.46 465.479 193.665C465.824 193.869 466.11 194.178 466.337 194.591C466.565 195.004 466.678 195.557 466.678 196.25V202H465.337V200.818H465.269C465.178 201.008 465.027 201.21 464.815 201.426C464.603 201.642 464.32 201.826 463.968 201.977C463.616 202.129 463.186 202.205 462.678 202.205ZM462.883 201C463.413 201 463.86 200.896 464.224 200.688C464.591 200.479 464.868 200.21 465.053 199.881C465.243 199.551 465.337 199.205 465.337 198.841V197.614C465.281 197.682 465.156 197.744 464.962 197.801C464.773 197.854 464.553 197.902 464.303 197.943C464.057 197.981 463.817 198.015 463.582 198.045C463.351 198.072 463.163 198.095 463.019 198.114C462.671 198.159 462.345 198.233 462.042 198.335C461.743 198.434 461.5 198.583 461.315 198.784C461.133 198.981 461.042 199.25 461.042 199.591C461.042 200.057 461.214 200.409 461.559 200.648C461.907 200.883 462.349 201 462.883 201ZM472.421 202.182C471.694 202.182 471.052 201.998 470.495 201.631C469.938 201.259 469.503 200.737 469.188 200.062C468.874 199.384 468.717 198.583 468.717 197.659C468.717 196.742 468.874 195.947 469.188 195.273C469.503 194.598 469.94 194.078 470.501 193.71C471.061 193.343 471.709 193.159 472.444 193.159C473.012 193.159 473.461 193.254 473.79 193.443C474.124 193.629 474.378 193.841 474.552 194.08C474.73 194.314 474.868 194.508 474.967 194.659H475.08V190.364H476.421V202H475.126V200.659H474.967C474.868 200.818 474.728 201.019 474.546 201.261C474.364 201.5 474.105 201.714 473.768 201.903C473.431 202.089 472.982 202.182 472.421 202.182ZM472.603 200.977C473.141 200.977 473.595 200.837 473.967 200.557C474.338 200.273 474.62 199.881 474.813 199.381C475.006 198.877 475.103 198.295 475.103 197.636C475.103 196.985 475.008 196.415 474.819 195.926C474.629 195.434 474.349 195.051 473.978 194.778C473.607 194.502 473.148 194.364 472.603 194.364C472.035 194.364 471.561 194.509 471.183 194.801C470.808 195.089 470.525 195.481 470.336 195.977C470.15 196.47 470.058 197.023 470.058 197.636C470.058 198.258 470.152 198.822 470.342 199.33C470.535 199.833 470.819 200.235 471.194 200.534C471.573 200.83 472.042 200.977 472.603 200.977Z" fill="#3F3F46"/>
<path d="M277 177L284.5 181.33V172.67L277 177ZM500 177V176.25H283.75V177V177.75H500V177Z" fill="#52525B"/>
<path d="M651 142H507C505.343 142 504 143.137 504 144.538V194.462C504 195.863 505.343 197 507 197H651C652.657 197 654 195.863 654 194.462V144.538C654 143.137 652.657 142 651 142Z" fill="#4ADE80" stroke="#15803D"/>
<path d="M566.093 168.461H564.684C564.601 168.056 564.455 167.7 564.246 167.393C564.042 167.086 563.792 166.828 563.496 166.62C563.205 166.408 562.881 166.249 562.525 166.143C562.169 166.037 561.798 165.984 561.411 165.984C560.707 165.984 560.068 166.162 559.496 166.518C558.928 166.874 558.476 167.398 558.138 168.092C557.805 168.785 557.638 169.635 557.638 170.643C557.638 171.65 557.805 172.501 558.138 173.194C558.476 173.887 558.928 174.412 559.496 174.768C560.068 175.124 560.707 175.302 561.411 175.302C561.798 175.302 562.169 175.249 562.525 175.143C562.881 175.037 563.205 174.879 563.496 174.671C563.792 174.459 564.042 174.2 564.246 173.893C564.455 173.582 564.601 173.226 564.684 172.825H566.093C565.987 173.419 565.794 173.951 565.513 174.421C565.233 174.891 564.885 175.29 564.468 175.62C564.051 175.946 563.584 176.194 563.065 176.364C562.549 176.535 561.998 176.62 561.411 176.62C560.419 176.62 559.536 176.378 558.763 175.893C557.991 175.408 557.383 174.719 556.94 173.825C556.496 172.931 556.275 171.87 556.275 170.643C556.275 169.415 556.496 168.355 556.94 167.461C557.383 166.567 557.991 165.878 558.763 165.393C559.536 164.908 560.419 164.665 561.411 164.665C561.998 164.665 562.549 164.751 563.065 164.921C563.584 165.092 564.051 165.342 564.468 165.671C564.885 165.997 565.233 166.395 565.513 166.864C565.794 167.33 565.987 167.862 566.093 168.461ZM570.756 176.665C570.203 176.665 569.701 176.561 569.251 176.353C568.8 176.141 568.442 175.836 568.177 175.438C567.912 175.037 567.779 174.552 567.779 173.984C567.779 173.484 567.878 173.078 568.075 172.768C568.272 172.453 568.535 172.207 568.864 172.029C569.194 171.851 569.558 171.719 569.955 171.631C570.357 171.54 570.76 171.469 571.165 171.415C571.696 171.347 572.126 171.296 572.455 171.262C572.789 171.224 573.031 171.162 573.183 171.075C573.338 170.987 573.415 170.836 573.415 170.62V170.575C573.415 170.014 573.262 169.578 572.955 169.268C572.652 168.957 572.192 168.802 571.575 168.802C570.934 168.802 570.433 168.942 570.069 169.222C569.705 169.503 569.45 169.802 569.302 170.12L568.029 169.665C568.256 169.135 568.559 168.722 568.938 168.427C569.321 168.128 569.737 167.919 570.188 167.802C570.643 167.681 571.09 167.62 571.529 167.62C571.809 167.62 572.131 167.654 572.495 167.722C572.862 167.787 573.217 167.921 573.558 168.126C573.902 168.33 574.188 168.639 574.415 169.052C574.643 169.465 574.756 170.018 574.756 170.711V176.461H573.415V175.279H573.347C573.256 175.469 573.105 175.671 572.893 175.887C572.681 176.103 572.398 176.287 572.046 176.438C571.694 176.59 571.264 176.665 570.756 176.665ZM570.961 175.461C571.491 175.461 571.938 175.357 572.302 175.148C572.669 174.94 572.946 174.671 573.131 174.342C573.321 174.012 573.415 173.665 573.415 173.302V172.075C573.359 172.143 573.234 172.205 573.04 172.262C572.851 172.315 572.631 172.362 572.381 172.404C572.135 172.442 571.895 172.476 571.66 172.506C571.429 172.533 571.241 172.556 571.097 172.575C570.749 172.62 570.423 172.694 570.12 172.796C569.821 172.895 569.578 173.044 569.393 173.245C569.211 173.442 569.12 173.711 569.12 174.052C569.12 174.518 569.292 174.87 569.637 175.109C569.986 175.344 570.427 175.461 570.961 175.461ZM580.749 176.643C579.931 176.643 579.227 176.45 578.636 176.063C578.045 175.677 577.59 175.145 577.272 174.467C576.954 173.789 576.795 173.014 576.795 172.143C576.795 171.256 576.958 170.474 577.283 169.796C577.613 169.114 578.071 168.582 578.658 168.2C579.249 167.813 579.939 167.62 580.727 167.62C581.34 167.62 581.893 167.734 582.386 167.961C582.878 168.188 583.281 168.506 583.596 168.915C583.91 169.325 584.105 169.802 584.181 170.347H582.84C582.738 169.95 582.511 169.597 582.158 169.29C581.81 168.98 581.34 168.825 580.749 168.825C580.227 168.825 579.768 168.961 579.374 169.234C578.984 169.503 578.679 169.883 578.46 170.376C578.244 170.864 578.136 171.438 578.136 172.097C578.136 172.772 578.242 173.359 578.454 173.859C578.67 174.359 578.973 174.747 579.363 175.023C579.757 175.3 580.219 175.438 580.749 175.438C581.098 175.438 581.414 175.378 581.698 175.256C581.982 175.135 582.223 174.961 582.42 174.734C582.617 174.506 582.757 174.234 582.84 173.915H584.181C584.105 174.431 583.918 174.895 583.619 175.308C583.323 175.717 582.931 176.042 582.442 176.285C581.958 176.523 581.393 176.643 580.749 176.643ZM587.482 171.211V176.461H586.141V164.825H587.482V169.097H587.596C587.8 168.647 588.107 168.289 588.516 168.023C588.929 167.754 589.478 167.62 590.164 167.62C590.759 167.62 591.28 167.739 591.727 167.978C592.174 168.213 592.52 168.575 592.766 169.063C593.016 169.548 593.141 170.165 593.141 170.915V176.461H591.8V171.006C591.8 170.313 591.621 169.777 591.261 169.398C590.905 169.016 590.41 168.825 589.778 168.825C589.338 168.825 588.944 168.917 588.596 169.103C588.251 169.289 587.978 169.559 587.778 169.915C587.581 170.272 587.482 170.703 587.482 171.211ZM599.254 176.643C598.413 176.643 597.687 176.457 597.077 176.086C596.471 175.711 596.004 175.188 595.674 174.518C595.348 173.844 595.185 173.059 595.185 172.165C595.185 171.272 595.348 170.484 595.674 169.802C596.004 169.116 596.462 168.582 597.049 168.2C597.64 167.813 598.329 167.62 599.117 167.62C599.572 167.62 600.021 167.696 600.464 167.847C600.907 167.999 601.31 168.245 601.674 168.586C602.038 168.923 602.327 169.37 602.543 169.927C602.759 170.484 602.867 171.169 602.867 171.984V172.552H596.14V171.393H601.504C601.504 170.9 601.405 170.461 601.208 170.075C601.015 169.688 600.738 169.383 600.379 169.16C600.022 168.936 599.602 168.825 599.117 168.825C598.583 168.825 598.121 168.957 597.731 169.222C597.344 169.484 597.047 169.825 596.839 170.245C596.63 170.665 596.526 171.116 596.526 171.597V172.37C596.526 173.029 596.64 173.588 596.867 174.046C597.098 174.501 597.418 174.847 597.827 175.086C598.237 175.321 598.712 175.438 599.254 175.438C599.606 175.438 599.924 175.389 600.208 175.29C600.496 175.188 600.744 175.037 600.952 174.836C601.161 174.631 601.322 174.378 601.435 174.075L602.731 174.438C602.594 174.878 602.365 175.264 602.043 175.597C601.721 175.927 601.324 176.184 600.85 176.37C600.377 176.552 599.844 176.643 599.254 176.643Z" fill="black"/>
</g>
<defs>
<clipPath id="clip0_1106_62">
<rect width="655" height="359" fill="white"/>
</clipPath>
</defs>
</svg>
