<svg width="708" height="393" viewBox="0 0 708 393" fill="none" xmlns="http://www.w3.org/2000/svg">
<path d="M594 85H114V297H594V85Z" fill="white"/>
<path d="M655 317H511C509.343 317 508 318.343 508 320V379C508 380.657 509.343 382 511 382H655C656.657 382 658 380.657 658 379V320C658 318.343 656.657 317 655 317Z" fill="#FEFCE8" stroke="#FDE047"/>
<path d="M569.593 347H568.184C568.101 346.595 567.955 346.239 567.746 345.932C567.542 345.625 567.292 345.367 566.996 345.159C566.705 344.947 566.381 344.788 566.025 344.682C565.669 344.576 565.298 344.523 564.911 344.523C564.207 344.523 563.568 344.701 562.996 345.057C562.428 345.413 561.976 345.938 561.638 346.631C561.305 347.324 561.138 348.174 561.138 349.182C561.138 350.189 561.305 351.04 561.638 351.733C561.976 352.426 562.428 352.951 562.996 353.307C563.568 353.663 564.207 353.841 564.911 353.841C565.298 353.841 565.669 353.788 566.025 353.682C566.381 353.576 566.705 353.419 566.996 353.21C567.292 352.998 567.542 352.739 567.746 352.432C567.955 352.121 568.101 351.765 568.184 351.364H569.593C569.487 351.958 569.294 352.491 569.013 352.96C568.733 353.43 568.385 353.83 567.968 354.159C567.551 354.485 567.084 354.733 566.565 354.903C566.049 355.074 565.498 355.159 564.911 355.159C563.919 355.159 563.036 354.917 562.263 354.432C561.491 353.947 560.883 353.258 560.44 352.364C559.996 351.47 559.775 350.409 559.775 349.182C559.775 347.955 559.996 346.894 560.44 346C560.883 345.106 561.491 344.417 562.263 343.932C563.036 343.447 563.919 343.205 564.911 343.205C565.498 343.205 566.049 343.29 566.565 343.46C567.084 343.631 567.551 343.881 567.968 344.21C568.385 344.536 568.733 344.934 569.013 345.403C569.294 345.869 569.487 346.402 569.593 347ZM574.256 355.205C573.703 355.205 573.201 355.1 572.751 354.892C572.3 354.68 571.942 354.375 571.677 353.977C571.412 353.576 571.279 353.091 571.279 352.523C571.279 352.023 571.378 351.617 571.575 351.307C571.772 350.992 572.035 350.746 572.364 350.568C572.694 350.39 573.058 350.258 573.455 350.17C573.857 350.08 574.26 350.008 574.665 349.955C575.196 349.886 575.626 349.835 575.955 349.801C576.289 349.763 576.531 349.701 576.683 349.614C576.838 349.527 576.915 349.375 576.915 349.159V349.114C576.915 348.553 576.762 348.117 576.455 347.807C576.152 347.496 575.692 347.341 575.075 347.341C574.434 347.341 573.933 347.481 573.569 347.761C573.205 348.042 572.95 348.341 572.802 348.659L571.529 348.205C571.756 347.674 572.059 347.261 572.438 346.966C572.821 346.667 573.237 346.458 573.688 346.341C574.143 346.22 574.59 346.159 575.029 346.159C575.309 346.159 575.631 346.193 575.995 346.261C576.362 346.326 576.717 346.46 577.058 346.665C577.402 346.869 577.688 347.178 577.915 347.591C578.143 348.004 578.256 348.557 578.256 349.25V355H576.915V353.818H576.847C576.756 354.008 576.605 354.21 576.393 354.426C576.181 354.642 575.898 354.826 575.546 354.977C575.194 355.129 574.764 355.205 574.256 355.205ZM574.461 354C574.991 354 575.438 353.896 575.802 353.688C576.169 353.479 576.446 353.21 576.631 352.881C576.821 352.551 576.915 352.205 576.915 351.841V350.614C576.859 350.682 576.734 350.744 576.54 350.801C576.351 350.854 576.131 350.902 575.881 350.943C575.635 350.981 575.395 351.015 575.16 351.045C574.929 351.072 574.741 351.095 574.597 351.114C574.249 351.159 573.923 351.233 573.62 351.335C573.321 351.434 573.078 351.583 572.893 351.784C572.711 351.981 572.62 352.25 572.62 352.591C572.62 353.057 572.792 353.409 573.137 353.648C573.486 353.883 573.927 354 574.461 354ZM584.249 355.182C583.431 355.182 582.727 354.989 582.136 354.602C581.545 354.216 581.09 353.684 580.772 353.006C580.454 352.328 580.295 351.553 580.295 350.682C580.295 349.795 580.458 349.013 580.783 348.335C581.113 347.653 581.571 347.121 582.158 346.739C582.749 346.352 583.439 346.159 584.227 346.159C584.84 346.159 585.393 346.273 585.886 346.5C586.378 346.727 586.781 347.045 587.096 347.455C587.41 347.864 587.605 348.341 587.681 348.886H586.34C586.238 348.489 586.011 348.136 585.658 347.83C585.31 347.519 584.84 347.364 584.249 347.364C583.727 347.364 583.268 347.5 582.874 347.773C582.484 348.042 582.179 348.422 581.96 348.915C581.744 349.403 581.636 349.977 581.636 350.636C581.636 351.311 581.742 351.898 581.954 352.398C582.17 352.898 582.473 353.286 582.863 353.562C583.257 353.839 583.719 353.977 584.249 353.977C584.598 353.977 584.914 353.917 585.198 353.795C585.482 353.674 585.723 353.5 585.92 353.273C586.117 353.045 586.257 352.773 586.34 352.455H587.681C587.605 352.97 587.418 353.434 587.119 353.847C586.823 354.256 586.431 354.581 585.942 354.824C585.458 355.062 584.893 355.182 584.249 355.182ZM590.982 349.75V355H589.641V343.364H590.982V347.636H591.096C591.3 347.186 591.607 346.828 592.016 346.562C592.429 346.294 592.978 346.159 593.664 346.159C594.259 346.159 594.78 346.278 595.227 346.517C595.674 346.752 596.02 347.114 596.266 347.602C596.516 348.087 596.641 348.705 596.641 349.455V355H595.3V349.545C595.3 348.852 595.121 348.316 594.761 347.938C594.405 347.555 593.91 347.364 593.278 347.364C592.838 347.364 592.444 347.456 592.096 347.642C591.751 347.828 591.478 348.098 591.278 348.455C591.081 348.811 590.982 349.242 590.982 349.75ZM602.754 355.182C601.913 355.182 601.187 354.996 600.577 354.625C599.971 354.25 599.504 353.727 599.174 353.057C598.848 352.383 598.685 351.598 598.685 350.705C598.685 349.811 598.848 349.023 599.174 348.341C599.504 347.655 599.962 347.121 600.549 346.739C601.14 346.352 601.829 346.159 602.617 346.159C603.072 346.159 603.521 346.235 603.964 346.386C604.407 346.538 604.81 346.784 605.174 347.125C605.538 347.462 605.827 347.909 606.043 348.466C606.259 349.023 606.367 349.708 606.367 350.523V351.091H599.64V349.932H605.004C605.004 349.439 604.905 349 604.708 348.614C604.515 348.227 604.238 347.922 603.879 347.699C603.522 347.475 603.102 347.364 602.617 347.364C602.083 347.364 601.621 347.496 601.231 347.761C600.844 348.023 600.547 348.364 600.339 348.784C600.13 349.205 600.026 349.655 600.026 350.136V350.909C600.026 351.568 600.14 352.127 600.367 352.585C600.598 353.04 600.918 353.386 601.327 353.625C601.737 353.86 602.212 353.977 602.754 353.977C603.106 353.977 603.424 353.928 603.708 353.83C603.996 353.727 604.244 353.576 604.452 353.375C604.661 353.17 604.822 352.917 604.935 352.614L606.231 352.977C606.094 353.417 605.865 353.803 605.543 354.136C605.221 354.466 604.824 354.723 604.35 354.909C603.877 355.091 603.344 355.182 602.754 355.182Z" fill="black"/>
<path d="M431 317H287C285.343 317 284 318.343 284 320V379C284 380.657 285.343 382 287 382H431C432.657 382 434 380.657 434 379V320C434 318.343 432.657 317 431 317Z" fill="#FEFCE8" stroke="#FDE047"/>
<path d="M341.976 346.273C341.908 345.697 341.631 345.25 341.146 344.932C340.661 344.614 340.067 344.455 339.362 344.455C338.847 344.455 338.396 344.538 338.01 344.705C337.627 344.871 337.328 345.1 337.112 345.392C336.9 345.684 336.794 346.015 336.794 346.386C336.794 346.697 336.868 346.964 337.016 347.188C337.167 347.407 337.36 347.591 337.595 347.739C337.83 347.883 338.076 348.002 338.334 348.097C338.591 348.187 338.828 348.261 339.044 348.318L340.226 348.636C340.529 348.716 340.866 348.826 341.237 348.966C341.612 349.106 341.97 349.297 342.311 349.54C342.656 349.778 342.94 350.085 343.163 350.46C343.387 350.835 343.499 351.295 343.499 351.841C343.499 352.47 343.334 353.038 343.004 353.545C342.679 354.053 342.201 354.456 341.572 354.756C340.947 355.055 340.188 355.205 339.294 355.205C338.461 355.205 337.739 355.07 337.129 354.801C336.523 354.532 336.046 354.157 335.697 353.676C335.353 353.195 335.158 352.636 335.112 352H336.567C336.605 352.439 336.752 352.803 337.01 353.091C337.271 353.375 337.601 353.587 337.999 353.727C338.4 353.864 338.832 353.932 339.294 353.932C339.832 353.932 340.315 353.845 340.743 353.67C341.171 353.492 341.51 353.246 341.76 352.932C342.01 352.614 342.135 352.242 342.135 351.818C342.135 351.432 342.027 351.117 341.811 350.875C341.595 350.633 341.311 350.436 340.959 350.284C340.607 350.133 340.226 350 339.817 349.886L338.385 349.477C337.476 349.216 336.756 348.843 336.226 348.358C335.696 347.873 335.43 347.239 335.43 346.455C335.43 345.803 335.607 345.235 335.959 344.75C336.315 344.261 336.792 343.883 337.391 343.614C337.993 343.341 338.665 343.205 339.408 343.205C340.158 343.205 340.824 343.339 341.408 343.608C341.991 343.873 342.453 344.237 342.794 344.699C343.139 345.161 343.321 345.686 343.339 346.273H341.976ZM349.293 355.182C348.452 355.182 347.726 354.996 347.116 354.625C346.51 354.25 346.043 353.727 345.713 353.057C345.387 352.383 345.224 351.598 345.224 350.705C345.224 349.811 345.387 349.023 345.713 348.341C346.043 347.655 346.501 347.121 347.088 346.739C347.679 346.352 348.368 346.159 349.156 346.159C349.611 346.159 350.06 346.235 350.503 346.386C350.946 346.538 351.349 346.784 351.713 347.125C352.077 347.462 352.366 347.909 352.582 348.466C352.798 349.023 352.906 349.708 352.906 350.523V351.091H346.179V349.932H351.543C351.543 349.439 351.444 349 351.247 348.614C351.054 348.227 350.777 347.922 350.418 347.699C350.062 347.475 349.641 347.364 349.156 347.364C348.622 347.364 348.16 347.496 347.77 347.761C347.384 348.023 347.086 348.364 346.878 348.784C346.67 349.205 346.565 349.655 346.565 350.136V350.909C346.565 351.568 346.679 352.127 346.906 352.585C347.137 353.04 347.457 353.386 347.866 353.625C348.276 353.86 348.751 353.977 349.293 353.977C349.645 353.977 349.963 353.928 350.247 353.83C350.535 353.727 350.783 353.576 350.991 353.375C351.2 353.17 351.361 352.917 351.474 352.614L352.77 352.977C352.634 353.417 352.404 353.803 352.082 354.136C351.76 354.466 351.363 354.723 350.889 354.909C350.416 355.091 349.884 355.182 349.293 355.182ZM354.946 355V346.273H356.241V347.591H356.332C356.491 347.159 356.779 346.809 357.196 346.54C357.613 346.271 358.082 346.136 358.605 346.136C358.704 346.136 358.827 346.138 358.974 346.142C359.122 346.146 359.234 346.152 359.31 346.159V347.523C359.264 347.511 359.16 347.494 358.997 347.472C358.838 347.445 358.67 347.432 358.491 347.432C358.067 347.432 357.688 347.521 357.355 347.699C357.026 347.873 356.764 348.116 356.571 348.426C356.382 348.733 356.287 349.083 356.287 349.477V355H354.946ZM368.301 346.273L365.074 355H363.71L360.483 346.273H361.938L364.347 353.227H364.438L366.847 346.273H368.301ZM373.418 355.182C372.577 355.182 371.851 354.996 371.241 354.625C370.635 354.25 370.168 353.727 369.838 353.057C369.512 352.383 369.349 351.598 369.349 350.705C369.349 349.811 369.512 349.023 369.838 348.341C370.168 347.655 370.626 347.121 371.213 346.739C371.804 346.352 372.493 346.159 373.281 346.159C373.736 346.159 374.185 346.235 374.628 346.386C375.071 346.538 375.474 346.784 375.838 347.125C376.202 347.462 376.491 347.909 376.707 348.466C376.923 349.023 377.031 349.708 377.031 350.523V351.091H370.304V349.932H375.668C375.668 349.439 375.569 349 375.372 348.614C375.179 348.227 374.902 347.922 374.543 347.699C374.187 347.475 373.766 347.364 373.281 347.364C372.747 347.364 372.285 347.496 371.895 347.761C371.509 348.023 371.211 348.364 371.003 348.784C370.795 349.205 370.69 349.655 370.69 350.136V350.909C370.69 351.568 370.804 352.127 371.031 352.585C371.262 353.04 371.582 353.386 371.991 353.625C372.401 353.86 372.876 353.977 373.418 353.977C373.77 353.977 374.088 353.928 374.372 353.83C374.66 353.727 374.908 353.576 375.116 353.375C375.325 353.17 375.486 352.917 375.599 352.614L376.895 352.977C376.759 353.417 376.529 353.803 376.207 354.136C375.885 354.466 375.488 354.723 375.014 354.909C374.541 355.091 374.009 355.182 373.418 355.182ZM379.071 355V346.273H380.366V347.591H380.457C380.616 347.159 380.904 346.809 381.321 346.54C381.738 346.271 382.207 346.136 382.73 346.136C382.829 346.136 382.952 346.138 383.099 346.142C383.247 346.146 383.359 346.152 383.435 346.159V347.523C383.389 347.511 383.285 347.494 383.122 347.472C382.963 347.445 382.795 347.432 382.616 347.432C382.192 347.432 381.813 347.521 381.48 347.699C381.151 347.873 380.889 348.116 380.696 348.426C380.507 348.733 380.412 349.083 380.412 349.477V355H379.071Z" fill="black"/>
<path d="M197 317H53C51.3431 317 50 318.343 50 320V379C50 380.657 51.3431 382 53 382H197C198.657 382 200 380.657 200 379V320C200 318.343 198.657 317 197 317Z" fill="#FEFCE8" stroke="#FDE047"/>
<path d="M113.913 347H112.504C112.421 346.595 112.275 346.239 112.067 345.932C111.862 345.625 111.612 345.367 111.317 345.159C111.025 344.947 110.701 344.788 110.345 344.682C109.989 344.576 109.618 344.523 109.232 344.523C108.527 344.523 107.889 344.701 107.317 345.057C106.749 345.413 106.296 345.938 105.959 346.631C105.625 347.324 105.459 348.174 105.459 349.182C105.459 350.189 105.625 351.04 105.959 351.733C106.296 352.426 106.749 352.951 107.317 353.307C107.889 353.663 108.527 353.841 109.232 353.841C109.618 353.841 109.989 353.788 110.345 353.682C110.701 353.576 111.025 353.419 111.317 353.21C111.612 352.998 111.862 352.739 112.067 352.432C112.275 352.121 112.421 351.765 112.504 351.364H113.913C113.807 351.958 113.614 352.491 113.334 352.96C113.054 353.43 112.705 353.83 112.288 354.159C111.872 354.485 111.404 354.733 110.885 354.903C110.37 355.074 109.819 355.159 109.232 355.159C108.239 355.159 107.357 354.917 106.584 354.432C105.811 353.947 105.203 353.258 104.76 352.364C104.317 351.47 104.095 350.409 104.095 349.182C104.095 347.955 104.317 346.894 104.76 346C105.203 345.106 105.811 344.417 106.584 343.932C107.357 343.447 108.239 343.205 109.232 343.205C109.819 343.205 110.37 343.29 110.885 343.46C111.404 343.631 111.872 343.881 112.288 344.21C112.705 344.536 113.054 344.934 113.334 345.403C113.614 345.869 113.807 346.402 113.913 347ZM117.349 343.364V355H116.009V343.364H117.349ZM119.805 355V346.273H121.146V355H119.805ZM120.487 344.818C120.226 344.818 120 344.729 119.811 344.551C119.625 344.373 119.533 344.159 119.533 343.909C119.533 343.659 119.625 343.445 119.811 343.267C120 343.089 120.226 343 120.487 343C120.749 343 120.972 343.089 121.158 343.267C121.347 343.445 121.442 343.659 121.442 343.909C121.442 344.159 121.347 344.373 121.158 344.551C120.972 344.729 120.749 344.818 120.487 344.818ZM127.261 355.182C126.42 355.182 125.695 354.996 125.085 354.625C124.479 354.25 124.011 353.727 123.682 353.057C123.356 352.383 123.193 351.598 123.193 350.705C123.193 349.811 123.356 349.023 123.682 348.341C124.011 347.655 124.47 347.121 125.057 346.739C125.648 346.352 126.337 346.159 127.125 346.159C127.58 346.159 128.028 346.235 128.472 346.386C128.915 346.538 129.318 346.784 129.682 347.125C130.045 347.462 130.335 347.909 130.551 348.466C130.767 349.023 130.875 349.708 130.875 350.523V351.091H124.148V349.932H129.511C129.511 349.439 129.413 349 129.216 348.614C129.023 348.227 128.746 347.922 128.386 347.699C128.03 347.475 127.61 347.364 127.125 347.364C126.591 347.364 126.129 347.496 125.739 347.761C125.352 348.023 125.055 348.364 124.847 348.784C124.638 349.205 124.534 349.655 124.534 350.136V350.909C124.534 351.568 124.648 352.127 124.875 352.585C125.106 353.04 125.426 353.386 125.835 353.625C126.244 353.86 126.72 353.977 127.261 353.977C127.614 353.977 127.932 353.928 128.216 353.83C128.504 353.727 128.752 353.576 128.96 353.375C129.169 353.17 129.33 352.917 129.443 352.614L130.739 352.977C130.602 353.417 130.373 353.803 130.051 354.136C129.729 354.466 129.331 354.723 128.858 354.909C128.384 355.091 127.852 355.182 127.261 355.182ZM134.256 349.75V355H132.915V346.273H134.21V347.636H134.324C134.528 347.193 134.839 346.837 135.256 346.568C135.672 346.295 136.21 346.159 136.869 346.159C137.46 346.159 137.977 346.28 138.42 346.523C138.864 346.761 139.208 347.125 139.455 347.614C139.701 348.098 139.824 348.712 139.824 349.455V355H138.483V349.545C138.483 348.86 138.305 348.326 137.949 347.943C137.593 347.557 137.104 347.364 136.483 347.364C136.055 347.364 135.672 347.456 135.335 347.642C135.002 347.828 134.739 348.098 134.545 348.455C134.352 348.811 134.256 349.242 134.256 349.75ZM146.07 346.273V347.409H141.547V346.273H146.07ZM142.865 344.182H144.206V352.5C144.206 352.879 144.261 353.163 144.371 353.352C144.484 353.538 144.628 353.663 144.803 353.727C144.981 353.788 145.168 353.818 145.365 353.818C145.513 353.818 145.634 353.811 145.729 353.795C145.823 353.777 145.899 353.761 145.956 353.75L146.229 354.955C146.138 354.989 146.011 355.023 145.848 355.057C145.685 355.095 145.479 355.114 145.229 355.114C144.85 355.114 144.479 355.032 144.115 354.869C143.755 354.706 143.456 354.458 143.217 354.125C142.982 353.792 142.865 353.371 142.865 352.864V344.182Z" fill="black"/>
<path d="M583 15V317" stroke="#999999" stroke-width="0.5"/>
<path d="M655 10H511C509.343 10 508 11.3431 508 13V72C508 73.6569 509.343 75 511 75H655C656.657 75 658 73.6569 658 72V13C658 11.3431 656.657 10 655 10Z" fill="#FEFCE8" stroke="#FDE047"/>
<path d="M569.593 40H568.184C568.101 39.5947 567.955 39.2386 567.746 38.9318C567.542 38.625 567.292 38.3674 566.996 38.1591C566.705 37.947 566.381 37.7879 566.025 37.6818C565.669 37.5758 565.298 37.5227 564.911 37.5227C564.207 37.5227 563.568 37.7008 562.996 38.0568C562.428 38.4129 561.976 38.9375 561.638 39.6307C561.305 40.3239 561.138 41.1742 561.138 42.1818C561.138 43.1894 561.305 44.0398 561.638 44.733C561.976 45.4261 562.428 45.9508 562.996 46.3068C563.568 46.6629 564.207 46.8409 564.911 46.8409C565.298 46.8409 565.669 46.7879 566.025 46.6818C566.381 46.5758 566.705 46.4186 566.996 46.2102C567.292 45.9981 567.542 45.7386 567.746 45.4318C567.955 45.1212 568.101 44.7652 568.184 44.3636H569.593C569.487 44.9583 569.294 45.4905 569.013 45.9602C568.733 46.4299 568.385 46.8295 567.968 47.1591C567.551 47.4848 567.084 47.733 566.565 47.9034C566.049 48.0739 565.498 48.1591 564.911 48.1591C563.919 48.1591 563.036 47.9167 562.263 47.4318C561.491 46.947 560.883 46.2576 560.44 45.3636C559.996 44.4697 559.775 43.4091 559.775 42.1818C559.775 40.9545 559.996 39.8939 560.44 39C560.883 38.1061 561.491 37.4167 562.263 36.9318C563.036 36.447 563.919 36.2045 564.911 36.2045C565.498 36.2045 566.049 36.2898 566.565 36.4602C567.084 36.6307 567.551 36.8807 567.968 37.2102C568.385 37.536 568.733 37.9337 569.013 38.4034C569.294 38.8693 569.487 39.4015 569.593 40ZM574.256 48.2045C573.703 48.2045 573.201 48.1004 572.751 47.892C572.3 47.6799 571.942 47.375 571.677 46.9773C571.412 46.5758 571.279 46.0909 571.279 45.5227C571.279 45.0227 571.378 44.6174 571.575 44.3068C571.772 43.9924 572.035 43.7462 572.364 43.5682C572.694 43.3902 573.058 43.2576 573.455 43.1705C573.857 43.0795 574.26 43.0076 574.665 42.9545C575.196 42.8864 575.626 42.8352 575.955 42.8011C576.289 42.7633 576.531 42.7008 576.683 42.6136C576.838 42.5265 576.915 42.375 576.915 42.1591V42.1136C576.915 41.553 576.762 41.1174 576.455 40.8068C576.152 40.4962 575.692 40.3409 575.075 40.3409C574.434 40.3409 573.933 40.4811 573.569 40.7614C573.205 41.0417 572.95 41.3409 572.802 41.6591L571.529 41.2045C571.756 40.6742 572.059 40.2614 572.438 39.9659C572.821 39.6667 573.237 39.4583 573.688 39.3409C574.143 39.2197 574.59 39.1591 575.029 39.1591C575.309 39.1591 575.631 39.1932 575.995 39.2614C576.362 39.3258 576.717 39.4602 577.058 39.6648C577.402 39.8693 577.688 40.178 577.915 40.5909C578.143 41.0038 578.256 41.5568 578.256 42.25V48H576.915V46.8182H576.847C576.756 47.0076 576.605 47.2102 576.393 47.4261C576.181 47.642 575.898 47.8258 575.546 47.9773C575.194 48.1288 574.764 48.2045 574.256 48.2045ZM574.461 47C574.991 47 575.438 46.8958 575.802 46.6875C576.169 46.4792 576.446 46.2102 576.631 45.8807C576.821 45.5511 576.915 45.2045 576.915 44.8409V43.6136C576.859 43.6818 576.734 43.7443 576.54 43.8011C576.351 43.8542 576.131 43.9015 575.881 43.9432C575.635 43.9811 575.395 44.0152 575.16 44.0455C574.929 44.072 574.741 44.0947 574.597 44.1136C574.249 44.1591 573.923 44.233 573.62 44.3352C573.321 44.4337 573.078 44.5833 572.893 44.7841C572.711 44.9811 572.62 45.25 572.62 45.5909C572.62 46.0568 572.792 46.4091 573.137 46.6477C573.486 46.8826 573.927 47 574.461 47ZM584.249 48.1818C583.431 48.1818 582.727 47.9886 582.136 47.6023C581.545 47.2159 581.09 46.6837 580.772 46.0057C580.454 45.3277 580.295 44.553 580.295 43.6818C580.295 42.7955 580.458 42.0133 580.783 41.3352C581.113 40.6534 581.571 40.1212 582.158 39.7386C582.749 39.3523 583.439 39.1591 584.227 39.1591C584.84 39.1591 585.393 39.2727 585.886 39.5C586.378 39.7273 586.781 40.0455 587.096 40.4545C587.41 40.8636 587.605 41.3409 587.681 41.8864H586.34C586.238 41.4886 586.011 41.1364 585.658 40.8295C585.31 40.5189 584.84 40.3636 584.249 40.3636C583.727 40.3636 583.268 40.5 582.874 40.7727C582.484 41.0417 582.179 41.4223 581.96 41.9148C581.744 42.4034 581.636 42.9773 581.636 43.6364C581.636 44.3106 581.742 44.8977 581.954 45.3977C582.17 45.8977 582.473 46.286 582.863 46.5625C583.257 46.839 583.719 46.9773 584.249 46.9773C584.598 46.9773 584.914 46.9167 585.198 46.7955C585.482 46.6742 585.723 46.5 585.92 46.2727C586.117 46.0455 586.257 45.7727 586.34 45.4545H587.681C587.605 45.9697 587.418 46.4337 587.119 46.8466C586.823 47.2557 586.431 47.5814 585.942 47.8239C585.458 48.0625 584.893 48.1818 584.249 48.1818ZM590.982 42.75V48H589.641V36.3636H590.982V40.6364H591.096C591.3 40.1856 591.607 39.8277 592.016 39.5625C592.429 39.2936 592.978 39.1591 593.664 39.1591C594.259 39.1591 594.78 39.2784 595.227 39.517C595.674 39.7519 596.02 40.1136 596.266 40.6023C596.516 41.0871 596.641 41.7045 596.641 42.4545V48H595.3V42.5455C595.3 41.8523 595.121 41.3163 594.761 40.9375C594.405 40.5549 593.91 40.3636 593.278 40.3636C592.838 40.3636 592.444 40.4564 592.096 40.642C591.751 40.8277 591.478 41.0985 591.278 41.4545C591.081 41.8106 590.982 42.2424 590.982 42.75ZM602.754 48.1818C601.913 48.1818 601.187 47.9962 600.577 47.625C599.971 47.25 599.504 46.7273 599.174 46.0568C598.848 45.3826 598.685 44.5985 598.685 43.7045C598.685 42.8106 598.848 42.0227 599.174 41.3409C599.504 40.6553 599.962 40.1212 600.549 39.7386C601.14 39.3523 601.829 39.1591 602.617 39.1591C603.072 39.1591 603.521 39.2348 603.964 39.3864C604.407 39.5379 604.81 39.7841 605.174 40.125C605.538 40.4621 605.827 40.9091 606.043 41.4659C606.259 42.0227 606.367 42.7083 606.367 43.5227V44.0909H599.64V42.9318H605.004C605.004 42.4394 604.905 42 604.708 41.6136C604.515 41.2273 604.238 40.9223 603.879 40.6989C603.522 40.4754 603.102 40.3636 602.617 40.3636C602.083 40.3636 601.621 40.4962 601.231 40.7614C600.844 41.0227 600.547 41.3636 600.339 41.7841C600.13 42.2045 600.026 42.6553 600.026 43.1364V43.9091C600.026 44.5682 600.14 45.1269 600.367 45.5852C600.598 46.0398 600.918 46.3864 601.327 46.625C601.737 46.8598 602.212 46.9773 602.754 46.9773C603.106 46.9773 603.424 46.928 603.708 46.8295C603.996 46.7273 604.244 46.5758 604.452 46.375C604.661 46.1705 604.822 45.9167 604.935 45.6136L606.231 45.9773C606.094 46.4167 605.865 46.803 605.543 47.1364C605.221 47.4659 604.824 47.7235 604.35 47.9091C603.877 48.0909 603.344 48.1818 602.754 48.1818Z" fill="black"/>
<path d="M359 15V317" stroke="#999999" stroke-width="0.5"/>
<path d="M431 10H287C285.343 10 284 11.3431 284 13V72C284 73.6569 285.343 75 287 75H431C432.657 75 434 73.6569 434 72V13C434 11.3431 432.657 10 431 10Z" fill="#FEFCE8" stroke="#FDE047"/>
<path d="M341.976 39.2727C341.908 38.697 341.631 38.25 341.146 37.9318C340.661 37.6136 340.067 37.4545 339.362 37.4545C338.847 37.4545 338.396 37.5379 338.01 37.7045C337.627 37.8712 337.328 38.1004 337.112 38.392C336.9 38.6837 336.794 39.0152 336.794 39.3864C336.794 39.697 336.868 39.964 337.016 40.1875C337.167 40.4072 337.36 40.5909 337.595 40.7386C337.83 40.8826 338.076 41.0019 338.334 41.0966C338.591 41.1875 338.828 41.2614 339.044 41.3182L340.226 41.6364C340.529 41.7159 340.866 41.8258 341.237 41.9659C341.612 42.1061 341.97 42.2973 342.311 42.5398C342.656 42.7784 342.94 43.0852 343.163 43.4602C343.387 43.8352 343.499 44.2955 343.499 44.8409C343.499 45.4697 343.334 46.0379 343.004 46.5455C342.679 47.053 342.201 47.4564 341.572 47.7557C340.947 48.0549 340.188 48.2045 339.294 48.2045C338.461 48.2045 337.739 48.0701 337.129 47.8011C336.523 47.5322 336.046 47.1572 335.697 46.6761C335.353 46.1951 335.158 45.6364 335.112 45H336.567C336.605 45.4394 336.752 45.803 337.01 46.0909C337.271 46.375 337.601 46.5871 337.999 46.7273C338.4 46.8636 338.832 46.9318 339.294 46.9318C339.832 46.9318 340.315 46.8447 340.743 46.6705C341.171 46.4924 341.51 46.2462 341.76 45.9318C342.01 45.6136 342.135 45.2424 342.135 44.8182C342.135 44.4318 342.027 44.1174 341.811 43.875C341.595 43.6326 341.311 43.4356 340.959 43.2841C340.607 43.1326 340.226 43 339.817 42.8864L338.385 42.4773C337.476 42.2159 336.756 41.8428 336.226 41.358C335.696 40.8731 335.43 40.2386 335.43 39.4545C335.43 38.803 335.607 38.2348 335.959 37.75C336.315 37.2614 336.792 36.8826 337.391 36.6136C337.993 36.3409 338.665 36.2045 339.408 36.2045C340.158 36.2045 340.824 36.339 341.408 36.608C341.991 36.8731 342.453 37.2367 342.794 37.6989C343.139 38.161 343.321 38.6856 343.339 39.2727H341.976ZM349.293 48.1818C348.452 48.1818 347.726 47.9962 347.116 47.625C346.51 47.25 346.043 46.7273 345.713 46.0568C345.387 45.3826 345.224 44.5985 345.224 43.7045C345.224 42.8106 345.387 42.0227 345.713 41.3409C346.043 40.6553 346.501 40.1212 347.088 39.7386C347.679 39.3523 348.368 39.1591 349.156 39.1591C349.611 39.1591 350.06 39.2348 350.503 39.3864C350.946 39.5379 351.349 39.7841 351.713 40.125C352.077 40.4621 352.366 40.9091 352.582 41.4659C352.798 42.0227 352.906 42.7083 352.906 43.5227V44.0909H346.179V42.9318H351.543C351.543 42.4394 351.444 42 351.247 41.6136C351.054 41.2273 350.777 40.9223 350.418 40.6989C350.062 40.4754 349.641 40.3636 349.156 40.3636C348.622 40.3636 348.16 40.4962 347.77 40.7614C347.384 41.0227 347.086 41.3636 346.878 41.7841C346.67 42.2045 346.565 42.6553 346.565 43.1364V43.9091C346.565 44.5682 346.679 45.1269 346.906 45.5852C347.137 46.0398 347.457 46.3864 347.866 46.625C348.276 46.8598 348.751 46.9773 349.293 46.9773C349.645 46.9773 349.963 46.928 350.247 46.8295C350.535 46.7273 350.783 46.5758 350.991 46.375C351.2 46.1705 351.361 45.9167 351.474 45.6136L352.77 45.9773C352.634 46.4167 352.404 46.803 352.082 47.1364C351.76 47.4659 351.363 47.7235 350.889 47.9091C350.416 48.0909 349.884 48.1818 349.293 48.1818ZM354.946 48V39.2727H356.241V40.5909H356.332C356.491 40.1591 356.779 39.8087 357.196 39.5398C357.613 39.2708 358.082 39.1364 358.605 39.1364C358.704 39.1364 358.827 39.1383 358.974 39.142C359.122 39.1458 359.234 39.1515 359.31 39.1591V40.5227C359.264 40.5114 359.16 40.4943 358.997 40.4716C358.838 40.4451 358.67 40.4318 358.491 40.4318C358.067 40.4318 357.688 40.5208 357.355 40.6989C357.026 40.8731 356.764 41.1155 356.571 41.4261C356.382 41.733 356.287 42.0833 356.287 42.4773V48H354.946ZM368.301 39.2727L365.074 48H363.71L360.483 39.2727H361.938L364.347 46.2273H364.438L366.847 39.2727H368.301ZM373.418 48.1818C372.577 48.1818 371.851 47.9962 371.241 47.625C370.635 47.25 370.168 46.7273 369.838 46.0568C369.512 45.3826 369.349 44.5985 369.349 43.7045C369.349 42.8106 369.512 42.0227 369.838 41.3409C370.168 40.6553 370.626 40.1212 371.213 39.7386C371.804 39.3523 372.493 39.1591 373.281 39.1591C373.736 39.1591 374.185 39.2348 374.628 39.3864C375.071 39.5379 375.474 39.7841 375.838 40.125C376.202 40.4621 376.491 40.9091 376.707 41.4659C376.923 42.0227 377.031 42.7083 377.031 43.5227V44.0909H370.304V42.9318H375.668C375.668 42.4394 375.569 42 375.372 41.6136C375.179 41.2273 374.902 40.9223 374.543 40.6989C374.187 40.4754 373.766 40.3636 373.281 40.3636C372.747 40.3636 372.285 40.4962 371.895 40.7614C371.509 41.0227 371.211 41.3636 371.003 41.7841C370.795 42.2045 370.69 42.6553 370.69 43.1364V43.9091C370.69 44.5682 370.804 45.1269 371.031 45.5852C371.262 46.0398 371.582 46.3864 371.991 46.625C372.401 46.8598 372.876 46.9773 373.418 46.9773C373.77 46.9773 374.088 46.928 374.372 46.8295C374.66 46.7273 374.908 46.5758 375.116 46.375C375.325 46.1705 375.486 45.9167 375.599 45.6136L376.895 45.9773C376.759 46.4167 376.529 46.803 376.207 47.1364C375.885 47.4659 375.488 47.7235 375.014 47.9091C374.541 48.0909 374.009 48.1818 373.418 48.1818ZM379.071 48V39.2727H380.366V40.5909H380.457C380.616 40.1591 380.904 39.8087 381.321 39.5398C381.738 39.2708 382.207 39.1364 382.73 39.1364C382.829 39.1364 382.952 39.1383 383.099 39.142C383.247 39.1458 383.359 39.1515 383.435 39.1591V40.5227C383.389 40.5114 383.285 40.4943 383.122 40.4716C382.963 40.4451 382.795 40.4318 382.616 40.4318C382.192 40.4318 381.813 40.5208 381.48 40.6989C381.151 40.8731 380.889 41.1155 380.696 41.4261C380.507 41.733 380.412 42.0833 380.412 42.4773V48H379.071Z" fill="black"/>
<path d="M125 15V317" stroke="#999999" stroke-width="0.5"/>
<path d="M197 10H53C51.3431 10 50 11.3431 50 13V72C50 73.6569 51.3431 75 53 75H197C198.657 75 200 73.6569 200 72V13C200 11.3431 198.657 10 197 10Z" fill="#FEFCE8" stroke="#FDE047"/>
<path d="M113.913 40H112.504C112.421 39.5947 112.275 39.2386 112.067 38.9318C111.862 38.625 111.612 38.3674 111.317 38.1591C111.025 37.947 110.701 37.7879 110.345 37.6818C109.989 37.5758 109.618 37.5227 109.232 37.5227C108.527 37.5227 107.889 37.7008 107.317 38.0568C106.749 38.4129 106.296 38.9375 105.959 39.6307C105.625 40.3239 105.459 41.1742 105.459 42.1818C105.459 43.1894 105.625 44.0398 105.959 44.733C106.296 45.4261 106.749 45.9508 107.317 46.3068C107.889 46.6629 108.527 46.8409 109.232 46.8409C109.618 46.8409 109.989 46.7879 110.345 46.6818C110.701 46.5758 111.025 46.4186 111.317 46.2102C111.612 45.9981 111.862 45.7386 112.067 45.4318C112.275 45.1212 112.421 44.7652 112.504 44.3636H113.913C113.807 44.9583 113.614 45.4905 113.334 45.9602C113.054 46.4299 112.705 46.8295 112.288 47.1591C111.872 47.4848 111.404 47.733 110.885 47.9034C110.37 48.0739 109.819 48.1591 109.232 48.1591C108.239 48.1591 107.357 47.9167 106.584 47.4318C105.811 46.947 105.203 46.2576 104.76 45.3636C104.317 44.4697 104.095 43.4091 104.095 42.1818C104.095 40.9545 104.317 39.8939 104.76 39C105.203 38.1061 105.811 37.4167 106.584 36.9318C107.357 36.447 108.239 36.2045 109.232 36.2045C109.819 36.2045 110.37 36.2898 110.885 36.4602C111.404 36.6307 111.872 36.8807 112.288 37.2102C112.705 37.536 113.054 37.9337 113.334 38.4034C113.614 38.8693 113.807 39.4015 113.913 40ZM117.349 36.3636V48H116.009V36.3636H117.349ZM119.805 48V39.2727H121.146V48H119.805ZM120.487 37.8182C120.226 37.8182 120 37.7292 119.811 37.5511C119.625 37.3731 119.533 37.1591 119.533 36.9091C119.533 36.6591 119.625 36.4451 119.811 36.267C120 36.089 120.226 36 120.487 36C120.749 36 120.972 36.089 121.158 36.267C121.347 36.4451 121.442 36.6591 121.442 36.9091C121.442 37.1591 121.347 37.3731 121.158 37.5511C120.972 37.7292 120.749 37.8182 120.487 37.8182ZM127.261 48.1818C126.42 48.1818 125.695 47.9962 125.085 47.625C124.479 47.25 124.011 46.7273 123.682 46.0568C123.356 45.3826 123.193 44.5985 123.193 43.7045C123.193 42.8106 123.356 42.0227 123.682 41.3409C124.011 40.6553 124.47 40.1212 125.057 39.7386C125.648 39.3523 126.337 39.1591 127.125 39.1591C127.58 39.1591 128.028 39.2348 128.472 39.3864C128.915 39.5379 129.318 39.7841 129.682 40.125C130.045 40.4621 130.335 40.9091 130.551 41.4659C130.767 42.0227 130.875 42.7083 130.875 43.5227V44.0909H124.148V42.9318H129.511C129.511 42.4394 129.413 42 129.216 41.6136C129.023 41.2273 128.746 40.9223 128.386 40.6989C128.03 40.4754 127.61 40.3636 127.125 40.3636C126.591 40.3636 126.129 40.4962 125.739 40.7614C125.352 41.0227 125.055 41.3636 124.847 41.7841C124.638 42.2045 124.534 42.6553 124.534 43.1364V43.9091C124.534 44.5682 124.648 45.1269 124.875 45.5852C125.106 46.0398 125.426 46.3864 125.835 46.625C126.244 46.8598 126.72 46.9773 127.261 46.9773C127.614 46.9773 127.932 46.928 128.216 46.8295C128.504 46.7273 128.752 46.5758 128.96 46.375C129.169 46.1705 129.33 45.9167 129.443 45.6136L130.739 45.9773C130.602 46.4167 130.373 46.803 130.051 47.1364C129.729 47.4659 129.331 47.7235 128.858 47.9091C128.384 48.0909 127.852 48.1818 127.261 48.1818ZM134.256 42.75V48H132.915V39.2727H134.21V40.6364H134.324C134.528 40.1932 134.839 39.8371 135.256 39.5682C135.672 39.2955 136.21 39.1591 136.869 39.1591C137.46 39.1591 137.977 39.2803 138.42 39.5227C138.864 39.7614 139.208 40.125 139.455 40.6136C139.701 41.0985 139.824 41.7121 139.824 42.4545V48H138.483V42.5455C138.483 41.8598 138.305 41.3258 137.949 40.9432C137.593 40.5568 137.104 40.3636 136.483 40.3636C136.055 40.3636 135.672 40.4564 135.335 40.642C135.002 40.8277 134.739 41.0985 134.545 41.4545C134.352 41.8106 134.256 42.2424 134.256 42.75ZM146.07 39.2727V40.4091H141.547V39.2727H146.07ZM142.865 37.1818H144.206V45.5C144.206 45.8788 144.261 46.1629 144.371 46.3523C144.484 46.5379 144.628 46.6629 144.803 46.7273C144.981 46.7879 145.168 46.8182 145.365 46.8182C145.513 46.8182 145.634 46.8106 145.729 46.7955C145.823 46.7765 145.899 46.7614 145.956 46.75L146.229 47.9545C146.138 47.9886 146.011 48.0227 145.848 48.0568C145.685 48.0947 145.479 48.1136 145.229 48.1136C144.85 48.1136 144.479 48.0322 144.115 47.8693C143.755 47.7064 143.456 47.4583 143.217 47.125C142.982 46.7917 142.865 46.3712 142.865 45.8636V37.1818Z" fill="black"/>
<path d="M179.373 119.75V125H178.032V116.273H179.327V117.636H179.441C179.646 117.193 179.956 116.837 180.373 116.568C180.79 116.295 181.327 116.159 181.987 116.159C182.577 116.159 183.094 116.28 183.538 116.523C183.981 116.761 184.326 117.125 184.572 117.614C184.818 118.098 184.941 118.712 184.941 119.455V125H183.6V119.545C183.6 118.86 183.422 118.326 183.066 117.943C182.71 117.557 182.221 117.364 181.6 117.364C181.172 117.364 180.79 117.456 180.452 117.642C180.119 117.828 179.856 118.098 179.663 118.455C179.469 118.811 179.373 119.242 179.373 119.75ZM189.96 125.205C189.406 125.205 188.905 125.1 188.454 124.892C188.003 124.68 187.645 124.375 187.38 123.977C187.115 123.576 186.982 123.091 186.982 122.523C186.982 122.023 187.081 121.617 187.278 121.307C187.475 120.992 187.738 120.746 188.067 120.568C188.397 120.39 188.761 120.258 189.158 120.17C189.56 120.08 189.963 120.008 190.369 119.955C190.899 119.886 191.329 119.835 191.658 119.801C191.992 119.763 192.234 119.701 192.386 119.614C192.541 119.527 192.619 119.375 192.619 119.159V119.114C192.619 118.553 192.465 118.117 192.158 117.807C191.855 117.496 191.395 117.341 190.778 117.341C190.138 117.341 189.636 117.481 189.272 117.761C188.908 118.042 188.653 118.341 188.505 118.659L187.232 118.205C187.46 117.674 187.763 117.261 188.141 116.966C188.524 116.667 188.941 116.458 189.391 116.341C189.846 116.22 190.293 116.159 190.732 116.159C191.013 116.159 191.335 116.193 191.698 116.261C192.066 116.326 192.42 116.46 192.761 116.665C193.105 116.869 193.391 117.178 193.619 117.591C193.846 118.004 193.96 118.557 193.96 119.25V125H192.619V123.818H192.55C192.46 124.008 192.308 124.21 192.096 124.426C191.884 124.642 191.602 124.826 191.249 124.977C190.897 125.129 190.467 125.205 189.96 125.205ZM190.164 124C190.694 124 191.141 123.896 191.505 123.688C191.872 123.479 192.149 123.21 192.335 122.881C192.524 122.551 192.619 122.205 192.619 121.841V120.614C192.562 120.682 192.437 120.744 192.244 120.801C192.054 120.854 191.835 120.902 191.585 120.943C191.338 120.981 191.098 121.015 190.863 121.045C190.632 121.072 190.444 121.095 190.3 121.114C189.952 121.159 189.626 121.233 189.323 121.335C189.024 121.434 188.781 121.583 188.596 121.784C188.414 121.981 188.323 122.25 188.323 122.591C188.323 123.057 188.496 123.409 188.84 123.648C189.189 123.883 189.63 124 190.164 124ZM203.231 116.273L200.004 125H198.64L195.413 116.273H196.867L199.276 123.227H199.367L201.776 116.273H203.231ZM205.001 125V116.273H206.342V125H205.001ZM205.683 114.818C205.421 114.818 205.196 114.729 205.006 114.551C204.821 114.373 204.728 114.159 204.728 113.909C204.728 113.659 204.821 113.445 205.006 113.267C205.196 113.089 205.421 113 205.683 113C205.944 113 206.167 113.089 206.353 113.267C206.542 113.445 206.637 113.659 206.637 113.909C206.637 114.159 206.542 114.373 206.353 114.551C206.167 114.729 205.944 114.818 205.683 114.818ZM212.32 128.455C211.673 128.455 211.116 128.371 210.65 128.205C210.184 128.042 209.796 127.826 209.485 127.557C209.178 127.292 208.934 127.008 208.752 126.705L209.82 125.955C209.942 126.114 210.095 126.295 210.281 126.5C210.466 126.708 210.72 126.888 211.042 127.04C211.368 127.195 211.794 127.273 212.32 127.273C213.025 127.273 213.606 127.102 214.065 126.761C214.523 126.42 214.752 125.886 214.752 125.159V123.386H214.638C214.54 123.545 214.4 123.742 214.218 123.977C214.04 124.208 213.782 124.415 213.445 124.597C213.112 124.775 212.661 124.864 212.093 124.864C211.388 124.864 210.756 124.697 210.195 124.364C209.638 124.03 209.197 123.545 208.871 122.909C208.549 122.273 208.388 121.5 208.388 120.591C208.388 119.697 208.546 118.919 208.86 118.256C209.174 117.589 209.612 117.074 210.173 116.71C210.733 116.343 211.381 116.159 212.116 116.159C212.684 116.159 213.135 116.254 213.468 116.443C213.805 116.629 214.063 116.841 214.241 117.08C214.423 117.314 214.563 117.508 214.661 117.659H214.798V116.273H216.093V125.25C216.093 126 215.923 126.61 215.582 127.08C215.245 127.553 214.79 127.9 214.218 128.119C213.65 128.343 213.017 128.455 212.32 128.455ZM212.275 123.659C212.813 123.659 213.267 123.536 213.638 123.29C214.01 123.044 214.292 122.689 214.485 122.227C214.678 121.765 214.775 121.212 214.775 120.568C214.775 119.939 214.68 119.384 214.491 118.903C214.301 118.422 214.021 118.045 213.65 117.773C213.279 117.5 212.82 117.364 212.275 117.364C211.707 117.364 211.233 117.508 210.854 117.795C210.479 118.083 210.197 118.47 210.008 118.955C209.822 119.439 209.729 119.977 209.729 120.568C209.729 121.174 209.824 121.71 210.013 122.176C210.207 122.638 210.491 123.002 210.866 123.267C211.245 123.528 211.714 123.659 212.275 123.659ZM221.116 125.205C220.563 125.205 220.061 125.1 219.61 124.892C219.159 124.68 218.801 124.375 218.536 123.977C218.271 123.576 218.138 123.091 218.138 122.523C218.138 122.023 218.237 121.617 218.434 121.307C218.631 120.992 218.894 120.746 219.224 120.568C219.553 120.39 219.917 120.258 220.315 120.17C220.716 120.08 221.12 120.008 221.525 119.955C222.055 119.886 222.485 119.835 222.815 119.801C223.148 119.763 223.39 119.701 223.542 119.614C223.697 119.527 223.775 119.375 223.775 119.159V119.114C223.775 118.553 223.621 118.117 223.315 117.807C223.012 117.496 222.551 117.341 221.934 117.341C221.294 117.341 220.792 117.481 220.428 117.761C220.065 118.042 219.809 118.341 219.661 118.659L218.388 118.205C218.616 117.674 218.919 117.261 219.298 116.966C219.68 116.667 220.097 116.458 220.548 116.341C221.002 116.22 221.449 116.159 221.888 116.159C222.169 116.159 222.491 116.193 222.854 116.261C223.222 116.326 223.576 116.46 223.917 116.665C224.262 116.869 224.548 117.178 224.775 117.591C225.002 118.004 225.116 118.557 225.116 119.25V125H223.775V123.818H223.707C223.616 124.008 223.464 124.21 223.252 124.426C223.04 124.642 222.758 124.826 222.406 124.977C222.053 125.129 221.623 125.205 221.116 125.205ZM221.32 124C221.851 124 222.298 123.896 222.661 123.688C223.029 123.479 223.305 123.21 223.491 122.881C223.68 122.551 223.775 122.205 223.775 121.841V120.614C223.718 120.682 223.593 120.744 223.4 120.801C223.21 120.854 222.991 120.902 222.741 120.943C222.495 120.981 222.254 121.015 222.019 121.045C221.788 121.072 221.601 121.095 221.457 121.114C221.108 121.159 220.782 121.233 220.479 121.335C220.18 121.434 219.938 121.583 219.752 121.784C219.57 121.981 219.479 122.25 219.479 122.591C219.479 123.057 219.652 123.409 219.996 123.648C220.345 123.883 220.786 124 221.32 124ZM231.359 116.273V117.409H226.836V116.273H231.359ZM228.154 114.182H229.495V122.5C229.495 122.879 229.55 123.163 229.66 123.352C229.773 123.538 229.917 123.663 230.092 123.727C230.27 123.788 230.457 123.818 230.654 123.818C230.802 123.818 230.923 123.811 231.018 123.795C231.112 123.777 231.188 123.761 231.245 123.75L231.518 124.955C231.427 124.989 231.3 125.023 231.137 125.057C230.974 125.095 230.768 125.114 230.518 125.114C230.139 125.114 229.768 125.032 229.404 124.869C229.044 124.706 228.745 124.458 228.506 124.125C228.272 123.792 228.154 123.371 228.154 122.864V114.182ZM236.941 125.182C236.1 125.182 235.375 124.996 234.765 124.625C234.159 124.25 233.691 123.727 233.362 123.057C233.036 122.383 232.873 121.598 232.873 120.705C232.873 119.811 233.036 119.023 233.362 118.341C233.691 117.655 234.149 117.121 234.737 116.739C235.327 116.352 236.017 116.159 236.805 116.159C237.259 116.159 237.708 116.235 238.151 116.386C238.594 116.538 238.998 116.784 239.362 117.125C239.725 117.462 240.015 117.909 240.231 118.466C240.447 119.023 240.555 119.708 240.555 120.523V121.091H233.827V119.932H239.191C239.191 119.439 239.093 119 238.896 118.614C238.702 118.227 238.426 117.922 238.066 117.699C237.71 117.475 237.29 117.364 236.805 117.364C236.271 117.364 235.808 117.496 235.418 117.761C235.032 118.023 234.735 118.364 234.526 118.784C234.318 119.205 234.214 119.655 234.214 120.136V120.909C234.214 121.568 234.327 122.127 234.555 122.585C234.786 123.04 235.106 123.386 235.515 123.625C235.924 123.86 236.399 123.977 236.941 123.977C237.293 123.977 237.612 123.928 237.896 123.83C238.183 123.727 238.432 123.576 238.64 123.375C238.848 123.17 239.009 122.917 239.123 122.614L240.418 122.977C240.282 123.417 240.053 123.803 239.731 124.136C239.409 124.466 239.011 124.723 238.538 124.909C238.064 125.091 237.532 125.182 236.941 125.182ZM250.89 116.273V117.409H246.367V116.273H250.89ZM247.685 114.182H249.026V122.5C249.026 122.879 249.081 123.163 249.191 123.352C249.305 123.538 249.449 123.663 249.623 123.727C249.801 123.788 249.988 123.818 250.185 123.818C250.333 123.818 250.454 123.811 250.549 123.795C250.644 123.777 250.719 123.761 250.776 123.75L251.049 124.955C250.958 124.989 250.831 125.023 250.668 125.057C250.505 125.095 250.299 125.114 250.049 125.114C249.67 125.114 249.299 125.032 248.935 124.869C248.576 124.706 248.276 124.458 248.038 124.125C247.803 123.792 247.685 123.371 247.685 122.864V114.182ZM256.359 125.182C255.571 125.182 254.879 124.994 254.285 124.619C253.694 124.244 253.232 123.72 252.898 123.045C252.569 122.371 252.404 121.583 252.404 120.682C252.404 119.773 252.569 118.979 252.898 118.301C253.232 117.623 253.694 117.097 254.285 116.722C254.879 116.347 255.571 116.159 256.359 116.159C257.147 116.159 257.836 116.347 258.427 116.722C259.022 117.097 259.484 117.623 259.813 118.301C260.147 118.979 260.313 119.773 260.313 120.682C260.313 121.583 260.147 122.371 259.813 123.045C259.484 123.72 259.022 124.244 258.427 124.619C257.836 124.994 257.147 125.182 256.359 125.182ZM256.359 123.977C256.957 123.977 257.45 123.824 257.836 123.517C258.222 123.21 258.508 122.807 258.694 122.307C258.879 121.807 258.972 121.265 258.972 120.682C258.972 120.098 258.879 119.555 258.694 119.051C258.508 118.547 258.222 118.14 257.836 117.83C257.45 117.519 256.957 117.364 256.359 117.364C255.76 117.364 255.268 117.519 254.881 117.83C254.495 118.14 254.209 118.547 254.023 119.051C253.838 119.555 253.745 120.098 253.745 120.682C253.745 121.265 253.838 121.807 254.023 122.307C254.209 122.807 254.495 123.21 254.881 123.517C255.268 123.824 255.76 123.977 256.359 123.977ZM266.86 125V116.273H268.156V117.591H268.246C268.406 117.159 268.693 116.809 269.11 116.54C269.527 116.271 269.996 116.136 270.519 116.136C270.618 116.136 270.741 116.138 270.888 116.142C271.036 116.146 271.148 116.152 271.224 116.159V117.523C271.178 117.511 271.074 117.494 270.911 117.472C270.752 117.445 270.584 117.432 270.406 117.432C269.981 117.432 269.603 117.521 269.269 117.699C268.94 117.873 268.678 118.116 268.485 118.426C268.296 118.733 268.201 119.083 268.201 119.477V125H266.86ZM276.093 125.182C275.305 125.182 274.614 124.994 274.019 124.619C273.428 124.244 272.966 123.72 272.633 123.045C272.303 122.371 272.138 121.583 272.138 120.682C272.138 119.773 272.303 118.979 272.633 118.301C272.966 117.623 273.428 117.097 274.019 116.722C274.614 116.347 275.305 116.159 276.093 116.159C276.881 116.159 277.57 116.347 278.161 116.722C278.756 117.097 279.218 117.623 279.548 118.301C279.881 118.979 280.048 119.773 280.048 120.682C280.048 121.583 279.881 122.371 279.548 123.045C279.218 123.72 278.756 124.244 278.161 124.619C277.57 124.994 276.881 125.182 276.093 125.182ZM276.093 123.977C276.692 123.977 277.184 123.824 277.57 123.517C277.957 123.21 278.243 122.807 278.428 122.307C278.614 121.807 278.707 121.265 278.707 120.682C278.707 120.098 278.614 119.555 278.428 119.051C278.243 118.547 277.957 118.14 277.57 117.83C277.184 117.519 276.692 117.364 276.093 117.364C275.495 117.364 275.002 117.519 274.616 117.83C274.229 118.14 273.943 118.547 273.758 119.051C273.572 119.555 273.479 120.098 273.479 120.682C273.479 121.265 273.572 121.807 273.758 122.307C273.943 122.807 274.229 123.21 274.616 123.517C275.002 123.824 275.495 123.977 276.093 123.977ZM287.594 121.432V116.273H288.935V125H287.594V123.523H287.504C287.299 123.966 286.981 124.343 286.549 124.653C286.117 124.96 285.572 125.114 284.913 125.114C284.367 125.114 283.882 124.994 283.458 124.756C283.034 124.513 282.701 124.15 282.458 123.665C282.216 123.176 282.094 122.561 282.094 121.818V116.273H283.435V121.727C283.435 122.364 283.613 122.871 283.969 123.25C284.329 123.629 284.788 123.818 285.344 123.818C285.678 123.818 286.017 123.733 286.362 123.562C286.71 123.392 287.002 123.131 287.237 122.778C287.475 122.426 287.594 121.977 287.594 121.432ZM295.187 116.273V117.409H290.664V116.273H295.187ZM291.982 114.182H293.323V122.5C293.323 122.879 293.378 123.163 293.488 123.352C293.602 123.538 293.746 123.663 293.92 123.727C294.098 123.788 294.285 123.818 294.482 123.818C294.63 123.818 294.751 123.811 294.846 123.795C294.941 123.777 295.016 123.761 295.073 123.75L295.346 124.955C295.255 124.989 295.128 125.023 294.965 125.057C294.802 125.095 294.596 125.114 294.346 125.114C293.967 125.114 293.596 125.032 293.232 124.869C292.872 124.706 292.573 124.458 292.335 124.125C292.1 123.792 291.982 123.371 291.982 122.864V114.182ZM300.769 125.182C299.928 125.182 299.203 124.996 298.593 124.625C297.987 124.25 297.519 123.727 297.19 123.057C296.864 122.383 296.701 121.598 296.701 120.705C296.701 119.811 296.864 119.023 297.19 118.341C297.519 117.655 297.978 117.121 298.565 116.739C299.156 116.352 299.845 116.159 300.633 116.159C301.087 116.159 301.536 116.235 301.979 116.386C302.423 116.538 302.826 116.784 303.19 117.125C303.553 117.462 303.843 117.909 304.059 118.466C304.275 119.023 304.383 119.708 304.383 120.523V121.091H297.656V119.932H303.019C303.019 119.439 302.921 119 302.724 118.614C302.531 118.227 302.254 117.922 301.894 117.699C301.538 117.475 301.118 117.364 300.633 117.364C300.099 117.364 299.637 117.496 299.246 117.761C298.86 118.023 298.563 118.364 298.354 118.784C298.146 119.205 298.042 119.655 298.042 120.136V120.909C298.042 121.568 298.156 122.127 298.383 122.585C298.614 123.04 298.934 123.386 299.343 123.625C299.752 123.86 300.228 123.977 300.769 123.977C301.121 123.977 301.44 123.928 301.724 123.83C302.012 123.727 302.26 123.576 302.468 123.375C302.676 123.17 302.837 122.917 302.951 122.614L304.246 122.977C304.11 123.417 303.881 123.803 303.559 124.136C303.237 124.466 302.839 124.723 302.366 124.909C301.892 125.091 301.36 125.182 300.769 125.182Z" fill="black"/>
<path d="M355 143L350 140.113V145.887L355 143ZM126 143V143.5H350.5V143V142.5H126V143Z" fill="black"/>
<path d="M411.729 154.227L410.525 154.568C410.449 154.367 410.337 154.172 410.19 153.983C410.046 153.79 409.849 153.631 409.599 153.506C409.349 153.381 409.029 153.318 408.638 153.318C408.104 153.318 407.659 153.441 407.303 153.688C406.951 153.93 406.775 154.239 406.775 154.614C406.775 154.947 406.896 155.21 407.138 155.403C407.381 155.597 407.76 155.758 408.275 155.886L409.57 156.205C410.351 156.394 410.932 156.684 411.315 157.074C411.697 157.46 411.888 157.958 411.888 158.568C411.888 159.068 411.745 159.515 411.457 159.909C411.173 160.303 410.775 160.614 410.263 160.841C409.752 161.068 409.157 161.182 408.479 161.182C407.589 161.182 406.853 160.989 406.269 160.602C405.686 160.216 405.317 159.652 405.161 158.909L406.434 158.591C406.555 159.061 406.784 159.413 407.121 159.648C407.462 159.883 407.907 160 408.457 160C409.082 160 409.578 159.867 409.945 159.602C410.317 159.333 410.502 159.011 410.502 158.636C410.502 158.333 410.396 158.08 410.184 157.875C409.972 157.667 409.646 157.511 409.207 157.409L407.752 157.068C406.953 156.879 406.366 156.585 405.991 156.188C405.62 155.786 405.434 155.284 405.434 154.682C405.434 154.189 405.572 153.754 405.849 153.375C406.129 152.996 406.51 152.699 406.991 152.483C407.476 152.267 408.025 152.159 408.638 152.159C409.502 152.159 410.18 152.348 410.673 152.727C411.169 153.106 411.521 153.606 411.729 154.227ZM417.566 161.182C416.725 161.182 416 160.996 415.39 160.625C414.784 160.25 414.316 159.727 413.987 159.057C413.661 158.383 413.498 157.598 413.498 156.705C413.498 155.811 413.661 155.023 413.987 154.341C414.316 153.655 414.774 153.121 415.362 152.739C415.952 152.352 416.642 152.159 417.43 152.159C417.884 152.159 418.333 152.235 418.776 152.386C419.219 152.538 419.623 152.784 419.987 153.125C420.35 153.462 420.64 153.909 420.856 154.466C421.072 155.023 421.18 155.708 421.18 156.523V157.091H414.452V155.932H419.816C419.816 155.439 419.718 155 419.521 154.614C419.327 154.227 419.051 153.922 418.691 153.699C418.335 153.475 417.915 153.364 417.43 153.364C416.896 153.364 416.433 153.496 416.043 153.761C415.657 154.023 415.36 154.364 415.151 154.784C414.943 155.205 414.839 155.655 414.839 156.136V156.909C414.839 157.568 414.952 158.127 415.18 158.585C415.411 159.04 415.731 159.386 416.14 159.625C416.549 159.86 417.024 159.977 417.566 159.977C417.918 159.977 418.237 159.928 418.521 159.83C418.808 159.727 419.057 159.576 419.265 159.375C419.473 159.17 419.634 158.917 419.748 158.614L421.043 158.977C420.907 159.417 420.678 159.803 420.356 160.136C420.034 160.466 419.636 160.723 419.163 160.909C418.689 161.091 418.157 161.182 417.566 161.182ZM423.219 161V152.273H424.515V153.591H424.606C424.765 153.159 425.053 152.809 425.469 152.54C425.886 152.271 426.356 152.136 426.879 152.136C426.977 152.136 427.1 152.138 427.248 152.142C427.396 152.146 427.507 152.152 427.583 152.159V153.523C427.538 153.511 427.433 153.494 427.271 153.472C427.112 153.445 426.943 153.432 426.765 153.432C426.341 153.432 425.962 153.521 425.629 153.699C425.299 153.873 425.038 154.116 424.844 154.426C424.655 154.733 424.56 155.083 424.56 155.477V161H423.219ZM436.575 152.273L433.347 161H431.984L428.756 152.273H430.211L432.62 159.227H432.711L435.12 152.273H436.575ZM441.691 161.182C440.85 161.182 440.125 160.996 439.515 160.625C438.909 160.25 438.441 159.727 438.112 159.057C437.786 158.383 437.623 157.598 437.623 156.705C437.623 155.811 437.786 155.023 438.112 154.341C438.441 153.655 438.899 153.121 439.487 152.739C440.077 152.352 440.767 152.159 441.555 152.159C442.009 152.159 442.458 152.235 442.901 152.386C443.344 152.538 443.748 152.784 444.112 153.125C444.475 153.462 444.765 153.909 444.981 154.466C445.197 155.023 445.305 155.708 445.305 156.523V157.091H438.577V155.932H443.941C443.941 155.439 443.843 155 443.646 154.614C443.452 154.227 443.176 153.922 442.816 153.699C442.46 153.475 442.04 153.364 441.555 153.364C441.021 153.364 440.558 153.496 440.168 153.761C439.782 154.023 439.485 154.364 439.276 154.784C439.068 155.205 438.964 155.655 438.964 156.136V156.909C438.964 157.568 439.077 158.127 439.305 158.585C439.536 159.04 439.856 159.386 440.265 159.625C440.674 159.86 441.149 159.977 441.691 159.977C442.043 159.977 442.362 159.928 442.646 159.83C442.933 159.727 443.182 159.576 443.39 159.375C443.598 159.17 443.759 158.917 443.873 158.614L445.168 158.977C445.032 159.417 444.803 159.803 444.481 160.136C444.159 160.466 443.761 160.723 443.288 160.909C442.814 161.091 442.282 161.182 441.691 161.182ZM455.731 152.273V153.409H451.026V152.273H455.731ZM452.435 161V151.068C452.435 150.568 452.553 150.152 452.788 149.818C453.022 149.485 453.327 149.235 453.702 149.068C454.077 148.902 454.473 148.818 454.89 148.818C455.219 148.818 455.488 148.845 455.697 148.898C455.905 148.951 456.06 149 456.163 149.045L455.776 150.205C455.708 150.182 455.613 150.153 455.492 150.119C455.375 150.085 455.219 150.068 455.026 150.068C454.583 150.068 454.263 150.18 454.066 150.403C453.873 150.627 453.776 150.955 453.776 151.386V161H452.435ZM457.61 161V152.273H458.906V153.591H458.996C459.156 153.159 459.443 152.809 459.86 152.54C460.277 152.271 460.746 152.136 461.269 152.136C461.368 152.136 461.491 152.138 461.638 152.142C461.786 152.146 461.898 152.152 461.974 152.159V153.523C461.928 153.511 461.824 153.494 461.661 153.472C461.502 153.445 461.334 153.432 461.156 153.432C460.731 153.432 460.353 153.521 460.019 153.699C459.69 153.873 459.428 154.116 459.235 154.426C459.046 154.733 458.951 155.083 458.951 155.477V161H457.61ZM466.843 161.182C466.055 161.182 465.364 160.994 464.769 160.619C464.178 160.244 463.716 159.72 463.383 159.045C463.053 158.371 462.888 157.583 462.888 156.682C462.888 155.773 463.053 154.979 463.383 154.301C463.716 153.623 464.178 153.097 464.769 152.722C465.364 152.347 466.055 152.159 466.843 152.159C467.631 152.159 468.32 152.347 468.911 152.722C469.506 153.097 469.968 153.623 470.298 154.301C470.631 154.979 470.798 155.773 470.798 156.682C470.798 157.583 470.631 158.371 470.298 159.045C469.968 159.72 469.506 160.244 468.911 160.619C468.32 160.994 467.631 161.182 466.843 161.182ZM466.843 159.977C467.442 159.977 467.934 159.824 468.32 159.517C468.707 159.21 468.993 158.807 469.178 158.307C469.364 157.807 469.457 157.265 469.457 156.682C469.457 156.098 469.364 155.555 469.178 155.051C468.993 154.547 468.707 154.14 468.32 153.83C467.934 153.519 467.442 153.364 466.843 153.364C466.245 153.364 465.752 153.519 465.366 153.83C464.979 154.14 464.693 154.547 464.508 155.051C464.322 155.555 464.229 156.098 464.229 156.682C464.229 157.265 464.322 157.807 464.508 158.307C464.693 158.807 464.979 159.21 465.366 159.517C465.752 159.824 466.245 159.977 466.843 159.977ZM472.844 161V152.273H474.14V153.636H474.254C474.435 153.17 474.729 152.809 475.134 152.551C475.54 152.29 476.026 152.159 476.594 152.159C477.17 152.159 477.649 152.29 478.032 152.551C478.418 152.809 478.719 153.17 478.935 153.636H479.026C479.25 153.186 479.585 152.828 480.032 152.562C480.479 152.294 481.015 152.159 481.64 152.159C482.42 152.159 483.058 152.403 483.555 152.892C484.051 153.377 484.299 154.133 484.299 155.159V161H482.958V155.159C482.958 154.515 482.782 154.055 482.43 153.778C482.077 153.502 481.663 153.364 481.185 153.364C480.572 153.364 480.096 153.549 479.759 153.92C479.422 154.288 479.254 154.754 479.254 155.318V161H477.89V155.023C477.89 154.527 477.729 154.127 477.407 153.824C477.085 153.517 476.67 153.364 476.163 153.364C475.814 153.364 475.488 153.456 475.185 153.642C474.886 153.828 474.644 154.085 474.458 154.415C474.276 154.741 474.185 155.117 474.185 155.545V161H472.844ZM494.796 161.182C493.978 161.182 493.273 160.989 492.683 160.602C492.092 160.216 491.637 159.684 491.319 159.006C491.001 158.328 490.842 157.553 490.842 156.682C490.842 155.795 491.004 155.013 491.33 154.335C491.66 153.653 492.118 153.121 492.705 152.739C493.296 152.352 493.986 152.159 494.773 152.159C495.387 152.159 495.94 152.273 496.433 152.5C496.925 152.727 497.328 153.045 497.643 153.455C497.957 153.864 498.152 154.341 498.228 154.886H496.887C496.785 154.489 496.558 154.136 496.205 153.83C495.857 153.519 495.387 153.364 494.796 153.364C494.273 153.364 493.815 153.5 493.421 153.773C493.031 154.042 492.726 154.422 492.506 154.915C492.29 155.403 492.183 155.977 492.183 156.636C492.183 157.311 492.289 157.898 492.501 158.398C492.717 158.898 493.02 159.286 493.41 159.562C493.804 159.839 494.266 159.977 494.796 159.977C495.145 159.977 495.461 159.917 495.745 159.795C496.029 159.674 496.27 159.5 496.467 159.273C496.664 159.045 496.804 158.773 496.887 158.455H498.228C498.152 158.97 497.965 159.434 497.665 159.847C497.37 160.256 496.978 160.581 496.489 160.824C496.004 161.062 495.44 161.182 494.796 161.182ZM502.756 161.205C502.203 161.205 501.701 161.1 501.251 160.892C500.8 160.68 500.442 160.375 500.177 159.977C499.912 159.576 499.779 159.091 499.779 158.523C499.779 158.023 499.878 157.617 500.075 157.307C500.272 156.992 500.535 156.746 500.864 156.568C501.194 156.39 501.558 156.258 501.955 156.17C502.357 156.08 502.76 156.008 503.165 155.955C503.696 155.886 504.126 155.835 504.455 155.801C504.789 155.763 505.031 155.701 505.183 155.614C505.338 155.527 505.415 155.375 505.415 155.159V155.114C505.415 154.553 505.262 154.117 504.955 153.807C504.652 153.496 504.192 153.341 503.575 153.341C502.934 153.341 502.433 153.481 502.069 153.761C501.705 154.042 501.45 154.341 501.302 154.659L500.029 154.205C500.256 153.674 500.559 153.261 500.938 152.966C501.321 152.667 501.737 152.458 502.188 152.341C502.643 152.22 503.09 152.159 503.529 152.159C503.809 152.159 504.131 152.193 504.495 152.261C504.862 152.326 505.217 152.46 505.558 152.665C505.902 152.869 506.188 153.178 506.415 153.591C506.643 154.004 506.756 154.557 506.756 155.25V161H505.415V159.818H505.347C505.256 160.008 505.105 160.21 504.893 160.426C504.681 160.642 504.398 160.826 504.046 160.977C503.694 161.129 503.264 161.205 502.756 161.205ZM502.961 160C503.491 160 503.938 159.896 504.302 159.688C504.669 159.479 504.946 159.21 505.131 158.881C505.321 158.551 505.415 158.205 505.415 157.841V156.614C505.359 156.682 505.234 156.744 505.04 156.801C504.851 156.854 504.631 156.902 504.381 156.943C504.135 156.981 503.895 157.015 503.66 157.045C503.429 157.072 503.241 157.095 503.097 157.114C502.749 157.159 502.423 157.233 502.12 157.335C501.821 157.434 501.578 157.583 501.393 157.784C501.211 157.981 501.12 158.25 501.12 158.591C501.12 159.057 501.292 159.409 501.637 159.648C501.986 159.883 502.427 160 502.961 160ZM512.749 161.182C511.931 161.182 511.227 160.989 510.636 160.602C510.045 160.216 509.59 159.684 509.272 159.006C508.954 158.328 508.795 157.553 508.795 156.682C508.795 155.795 508.958 155.013 509.283 154.335C509.613 153.653 510.071 153.121 510.658 152.739C511.249 152.352 511.939 152.159 512.727 152.159C513.34 152.159 513.893 152.273 514.386 152.5C514.878 152.727 515.281 153.045 515.596 153.455C515.91 153.864 516.105 154.341 516.181 154.886H514.84C514.738 154.489 514.511 154.136 514.158 153.83C513.81 153.519 513.34 153.364 512.749 153.364C512.227 153.364 511.768 153.5 511.374 153.773C510.984 154.042 510.679 154.422 510.46 154.915C510.244 155.403 510.136 155.977 510.136 156.636C510.136 157.311 510.242 157.898 510.454 158.398C510.67 158.898 510.973 159.286 511.363 159.562C511.757 159.839 512.219 159.977 512.749 159.977C513.098 159.977 513.414 159.917 513.698 159.795C513.982 159.674 514.223 159.5 514.42 159.273C514.617 159.045 514.757 158.773 514.84 158.455H516.181C516.105 158.97 515.918 159.434 515.619 159.847C515.323 160.256 514.931 160.581 514.442 160.824C513.958 161.062 513.393 161.182 512.749 161.182ZM519.482 155.75V161H518.141V149.364H519.482V153.636H519.596C519.8 153.186 520.107 152.828 520.516 152.562C520.929 152.294 521.478 152.159 522.164 152.159C522.759 152.159 523.28 152.278 523.727 152.517C524.174 152.752 524.52 153.114 524.766 153.602C525.016 154.087 525.141 154.705 525.141 155.455V161H523.8V155.545C523.8 154.852 523.621 154.316 523.261 153.938C522.905 153.555 522.41 153.364 521.778 153.364C521.338 153.364 520.944 153.456 520.596 153.642C520.251 153.828 519.978 154.098 519.778 154.455C519.581 154.811 519.482 155.242 519.482 155.75ZM531.254 161.182C530.413 161.182 529.687 160.996 529.077 160.625C528.471 160.25 528.004 159.727 527.674 159.057C527.348 158.383 527.185 157.598 527.185 156.705C527.185 155.811 527.348 155.023 527.674 154.341C528.004 153.655 528.462 153.121 529.049 152.739C529.64 152.352 530.329 152.159 531.117 152.159C531.572 152.159 532.021 152.235 532.464 152.386C532.907 152.538 533.31 152.784 533.674 153.125C534.038 153.462 534.327 153.909 534.543 154.466C534.759 155.023 534.867 155.708 534.867 156.523V157.091H528.14V155.932H533.504C533.504 155.439 533.405 155 533.208 154.614C533.015 154.227 532.738 153.922 532.379 153.699C532.022 153.475 531.602 153.364 531.117 153.364C530.583 153.364 530.121 153.496 529.731 153.761C529.344 154.023 529.047 154.364 528.839 154.784C528.63 155.205 528.526 155.655 528.526 156.136V156.909C528.526 157.568 528.64 158.127 528.867 158.585C529.098 159.04 529.418 159.386 529.827 159.625C530.237 159.86 530.712 159.977 531.254 159.977C531.606 159.977 531.924 159.928 532.208 159.83C532.496 159.727 532.744 159.576 532.952 159.375C533.161 159.17 533.322 158.917 533.435 158.614L534.731 158.977C534.594 159.417 534.365 159.803 534.043 160.136C533.721 160.466 533.324 160.723 532.85 160.909C532.377 161.091 531.844 161.182 531.254 161.182Z" fill="black"/>
<path d="M579 175L574 172.113V177.887L579 175ZM360 175V175.5H574.5V175V174.5H360V175Z" fill="black"/>
<path d="M418.702 224.182C417.884 224.182 417.18 223.989 416.589 223.602C415.998 223.216 415.543 222.684 415.225 222.006C414.907 221.328 414.748 220.553 414.748 219.682C414.748 218.795 414.911 218.013 415.237 217.335C415.566 216.653 416.024 216.121 416.612 215.739C417.202 215.352 417.892 215.159 418.68 215.159C419.293 215.159 419.846 215.273 420.339 215.5C420.831 215.727 421.235 216.045 421.549 216.455C421.863 216.864 422.058 217.341 422.134 217.886H420.793C420.691 217.489 420.464 217.136 420.112 216.83C419.763 216.519 419.293 216.364 418.702 216.364C418.18 216.364 417.721 216.5 417.327 216.773C416.937 217.042 416.632 217.422 416.413 217.915C416.197 218.403 416.089 218.977 416.089 219.636C416.089 220.311 416.195 220.898 416.407 221.398C416.623 221.898 416.926 222.286 417.316 222.562C417.71 222.839 418.172 222.977 418.702 222.977C419.051 222.977 419.367 222.917 419.651 222.795C419.935 222.674 420.176 222.5 420.373 222.273C420.57 222.045 420.71 221.773 420.793 221.455H422.134C422.058 221.97 421.871 222.434 421.572 222.847C421.276 223.256 420.884 223.581 420.396 223.824C419.911 224.062 419.346 224.182 418.702 224.182ZM426.663 224.205C426.11 224.205 425.608 224.1 425.157 223.892C424.706 223.68 424.348 223.375 424.083 222.977C423.818 222.576 423.685 222.091 423.685 221.523C423.685 221.023 423.784 220.617 423.981 220.307C424.178 219.992 424.441 219.746 424.771 219.568C425.1 219.39 425.464 219.258 425.862 219.17C426.263 219.08 426.666 219.008 427.072 218.955C427.602 218.886 428.032 218.835 428.362 218.801C428.695 218.763 428.937 218.701 429.089 218.614C429.244 218.527 429.322 218.375 429.322 218.159V218.114C429.322 217.553 429.168 217.117 428.862 216.807C428.558 216.496 428.098 216.341 427.481 216.341C426.841 216.341 426.339 216.481 425.975 216.761C425.612 217.042 425.356 217.341 425.208 217.659L423.935 217.205C424.163 216.674 424.466 216.261 424.844 215.966C425.227 215.667 425.644 215.458 426.094 215.341C426.549 215.22 426.996 215.159 427.435 215.159C427.716 215.159 428.038 215.193 428.401 215.261C428.769 215.326 429.123 215.46 429.464 215.665C429.808 215.869 430.094 216.178 430.322 216.591C430.549 217.004 430.663 217.557 430.663 218.25V224H429.322V222.818H429.254C429.163 223.008 429.011 223.21 428.799 223.426C428.587 223.642 428.305 223.826 427.952 223.977C427.6 224.129 427.17 224.205 426.663 224.205ZM426.867 223C427.397 223 427.844 222.896 428.208 222.688C428.576 222.479 428.852 222.21 429.038 221.881C429.227 221.551 429.322 221.205 429.322 220.841V219.614C429.265 219.682 429.14 219.744 428.947 219.801C428.757 219.854 428.538 219.902 428.288 219.943C428.041 219.981 427.801 220.015 427.566 220.045C427.335 220.072 427.147 220.095 427.004 220.114C426.655 220.159 426.329 220.233 426.026 220.335C425.727 220.434 425.485 220.583 425.299 220.784C425.117 220.981 425.026 221.25 425.026 221.591C425.026 222.057 425.199 222.409 425.543 222.648C425.892 222.883 426.333 223 426.867 223ZM436.656 224.182C435.837 224.182 435.133 223.989 434.542 223.602C433.951 223.216 433.496 222.684 433.178 222.006C432.86 221.328 432.701 220.553 432.701 219.682C432.701 218.795 432.864 218.013 433.19 217.335C433.519 216.653 433.978 216.121 434.565 215.739C435.156 215.352 435.845 215.159 436.633 215.159C437.246 215.159 437.799 215.273 438.292 215.5C438.784 215.727 439.188 216.045 439.502 216.455C439.817 216.864 440.012 217.341 440.087 217.886H438.746C438.644 217.489 438.417 217.136 438.065 216.83C437.716 216.519 437.246 216.364 436.656 216.364C436.133 216.364 435.674 216.5 435.281 216.773C434.89 217.042 434.585 217.422 434.366 217.915C434.15 218.403 434.042 218.977 434.042 219.636C434.042 220.311 434.148 220.898 434.36 221.398C434.576 221.898 434.879 222.286 435.269 222.562C435.663 222.839 436.125 222.977 436.656 222.977C437.004 222.977 437.32 222.917 437.604 222.795C437.888 222.674 438.129 222.5 438.326 222.273C438.523 222.045 438.663 221.773 438.746 221.455H440.087C440.012 221.97 439.824 222.434 439.525 222.847C439.229 223.256 438.837 223.581 438.349 223.824C437.864 224.062 437.299 224.182 436.656 224.182ZM443.388 218.75V224H442.048V212.364H443.388V216.636H443.502C443.707 216.186 444.013 215.828 444.423 215.562C444.835 215.294 445.385 215.159 446.07 215.159C446.665 215.159 447.186 215.278 447.633 215.517C448.08 215.752 448.426 216.114 448.673 216.602C448.923 217.087 449.048 217.705 449.048 218.455V224H447.707V218.545C447.707 217.852 447.527 217.316 447.167 216.938C446.811 216.555 446.317 216.364 445.684 216.364C445.245 216.364 444.851 216.456 444.502 216.642C444.157 216.828 443.885 217.098 443.684 217.455C443.487 217.811 443.388 218.242 443.388 218.75ZM455.16 224.182C454.319 224.182 453.594 223.996 452.984 223.625C452.378 223.25 451.91 222.727 451.58 222.057C451.254 221.383 451.092 220.598 451.092 219.705C451.092 218.811 451.254 218.023 451.58 217.341C451.91 216.655 452.368 216.121 452.955 215.739C453.546 215.352 454.236 215.159 455.023 215.159C455.478 215.159 455.927 215.235 456.37 215.386C456.813 215.538 457.217 215.784 457.58 216.125C457.944 216.462 458.234 216.909 458.45 217.466C458.665 218.023 458.773 218.708 458.773 219.523V220.091H452.046V218.932H457.41C457.41 218.439 457.311 218 457.114 217.614C456.921 217.227 456.645 216.922 456.285 216.699C455.929 216.475 455.508 216.364 455.023 216.364C454.489 216.364 454.027 216.496 453.637 216.761C453.251 217.023 452.953 217.364 452.745 217.784C452.537 218.205 452.433 218.655 452.433 219.136V219.909C452.433 220.568 452.546 221.127 452.773 221.585C453.004 222.04 453.325 222.386 453.734 222.625C454.143 222.86 454.618 222.977 455.16 222.977C455.512 222.977 455.83 222.928 456.114 222.83C456.402 222.727 456.65 222.576 456.859 222.375C457.067 222.17 457.228 221.917 457.342 221.614L458.637 221.977C458.501 222.417 458.272 222.803 457.95 223.136C457.628 223.466 457.23 223.723 456.756 223.909C456.283 224.091 455.751 224.182 455.16 224.182ZM464.109 224.182C463.381 224.182 462.739 223.998 462.183 223.631C461.626 223.259 461.19 222.737 460.876 222.062C460.561 221.384 460.404 220.583 460.404 219.659C460.404 218.742 460.561 217.947 460.876 217.273C461.19 216.598 461.628 216.078 462.188 215.71C462.749 215.343 463.397 215.159 464.131 215.159C464.7 215.159 465.148 215.254 465.478 215.443C465.811 215.629 466.065 215.841 466.239 216.08C466.417 216.314 466.556 216.508 466.654 216.659H466.768V212.364H468.109V224H466.813V222.659H466.654C466.556 222.818 466.415 223.019 466.234 223.261C466.052 223.5 465.792 223.714 465.455 223.903C465.118 224.089 464.669 224.182 464.109 224.182ZM464.29 222.977C464.828 222.977 465.283 222.837 465.654 222.557C466.025 222.273 466.308 221.881 466.501 221.381C466.694 220.877 466.79 220.295 466.79 219.636C466.79 218.985 466.696 218.415 466.506 217.926C466.317 217.434 466.037 217.051 465.665 216.778C465.294 216.502 464.836 216.364 464.29 216.364C463.722 216.364 463.249 216.509 462.87 216.801C462.495 217.089 462.213 217.481 462.023 217.977C461.838 218.47 461.745 219.023 461.745 219.636C461.745 220.258 461.84 220.822 462.029 221.33C462.222 221.833 462.506 222.235 462.881 222.534C463.26 222.83 463.73 222.977 464.29 222.977ZM478.796 224.182C477.978 224.182 477.273 223.989 476.683 223.602C476.092 223.216 475.637 222.684 475.319 222.006C475.001 221.328 474.842 220.553 474.842 219.682C474.842 218.795 475.004 218.013 475.33 217.335C475.66 216.653 476.118 216.121 476.705 215.739C477.296 215.352 477.986 215.159 478.773 215.159C479.387 215.159 479.94 215.273 480.433 215.5C480.925 215.727 481.328 216.045 481.643 216.455C481.957 216.864 482.152 217.341 482.228 217.886H480.887C480.785 217.489 480.558 217.136 480.205 216.83C479.857 216.519 479.387 216.364 478.796 216.364C478.273 216.364 477.815 216.5 477.421 216.773C477.031 217.042 476.726 217.422 476.506 217.915C476.29 218.403 476.183 218.977 476.183 219.636C476.183 220.311 476.289 220.898 476.501 221.398C476.717 221.898 477.02 222.286 477.41 222.562C477.804 222.839 478.266 222.977 478.796 222.977C479.145 222.977 479.461 222.917 479.745 222.795C480.029 222.674 480.27 222.5 480.467 222.273C480.664 222.045 480.804 221.773 480.887 221.455H482.228C482.152 221.97 481.965 222.434 481.665 222.847C481.37 223.256 480.978 223.581 480.489 223.824C480.004 224.062 479.44 224.182 478.796 224.182ZM487.734 224.182C486.946 224.182 486.254 223.994 485.66 223.619C485.069 223.244 484.607 222.72 484.273 222.045C483.944 221.371 483.779 220.583 483.779 219.682C483.779 218.773 483.944 217.979 484.273 217.301C484.607 216.623 485.069 216.097 485.66 215.722C486.254 215.347 486.946 215.159 487.734 215.159C488.522 215.159 489.211 215.347 489.802 215.722C490.397 216.097 490.859 216.623 491.188 217.301C491.522 217.979 491.688 218.773 491.688 219.682C491.688 220.583 491.522 221.371 491.188 222.045C490.859 222.72 490.397 223.244 489.802 223.619C489.211 223.994 488.522 224.182 487.734 224.182ZM487.734 222.977C488.332 222.977 488.825 222.824 489.211 222.517C489.597 222.21 489.883 221.807 490.069 221.307C490.254 220.807 490.347 220.265 490.347 219.682C490.347 219.098 490.254 218.555 490.069 218.051C489.883 217.547 489.597 217.14 489.211 216.83C488.825 216.519 488.332 216.364 487.734 216.364C487.135 216.364 486.643 216.519 486.256 216.83C485.87 217.14 485.584 217.547 485.398 218.051C485.213 218.555 485.12 219.098 485.12 219.682C485.12 220.265 485.213 220.807 485.398 221.307C485.584 221.807 485.87 222.21 486.256 222.517C486.643 222.824 487.135 222.977 487.734 222.977ZM495.076 218.75V224H493.735V215.273H495.031V216.636H495.144C495.349 216.193 495.659 215.837 496.076 215.568C496.493 215.295 497.031 215.159 497.69 215.159C498.281 215.159 498.798 215.28 499.241 215.523C499.684 215.761 500.029 216.125 500.275 216.614C500.521 217.098 500.644 217.712 500.644 218.455V224H499.303V218.545C499.303 217.86 499.125 217.326 498.769 216.943C498.413 216.557 497.924 216.364 497.303 216.364C496.875 216.364 496.493 216.456 496.156 216.642C495.822 216.828 495.559 217.098 495.366 217.455C495.173 217.811 495.076 218.242 495.076 218.75ZM506.89 215.273V216.409H502.367V215.273H506.89ZM503.685 213.182H505.026V221.5C505.026 221.879 505.081 222.163 505.191 222.352C505.305 222.538 505.449 222.663 505.623 222.727C505.801 222.788 505.988 222.818 506.185 222.818C506.333 222.818 506.454 222.811 506.549 222.795C506.644 222.777 506.719 222.761 506.776 222.75L507.049 223.955C506.958 223.989 506.831 224.023 506.668 224.057C506.505 224.095 506.299 224.114 506.049 224.114C505.67 224.114 505.299 224.032 504.935 223.869C504.576 223.706 504.276 223.458 504.038 223.125C503.803 222.792 503.685 222.371 503.685 221.864V213.182ZM512.472 224.182C511.631 224.182 510.906 223.996 510.296 223.625C509.69 223.25 509.222 222.727 508.893 222.057C508.567 221.383 508.404 220.598 508.404 219.705C508.404 218.811 508.567 218.023 508.893 217.341C509.222 216.655 509.681 216.121 510.268 215.739C510.859 215.352 511.548 215.159 512.336 215.159C512.79 215.159 513.239 215.235 513.683 215.386C514.126 215.538 514.529 215.784 514.893 216.125C515.256 216.462 515.546 216.909 515.762 217.466C515.978 218.023 516.086 218.708 516.086 219.523V220.091H509.359V218.932H514.722C514.722 218.439 514.624 218 514.427 217.614C514.234 217.227 513.957 216.922 513.597 216.699C513.241 216.475 512.821 216.364 512.336 216.364C511.802 216.364 511.34 216.496 510.95 216.761C510.563 217.023 510.266 217.364 510.058 217.784C509.849 218.205 509.745 218.655 509.745 219.136V219.909C509.745 220.568 509.859 221.127 510.086 221.585C510.317 222.04 510.637 222.386 511.046 222.625C511.455 222.86 511.931 222.977 512.472 222.977C512.825 222.977 513.143 222.928 513.427 222.83C513.715 222.727 513.963 222.576 514.171 222.375C514.379 222.17 514.54 221.917 514.654 221.614L515.95 221.977C515.813 222.417 515.584 222.803 515.262 223.136C514.94 223.466 514.542 223.723 514.069 223.909C513.595 224.091 513.063 224.182 512.472 224.182ZM519.467 218.75V224H518.126V215.273H519.421V216.636H519.535C519.739 216.193 520.05 215.837 520.467 215.568C520.883 215.295 521.421 215.159 522.08 215.159C522.671 215.159 523.188 215.28 523.631 215.523C524.075 215.761 524.419 216.125 524.665 216.614C524.912 217.098 525.035 217.712 525.035 218.455V224H523.694V218.545C523.694 217.86 523.516 217.326 523.16 216.943C522.804 216.557 522.315 216.364 521.694 216.364C521.266 216.364 520.883 216.456 520.546 216.642C520.213 216.828 519.95 217.098 519.756 217.455C519.563 217.811 519.467 218.242 519.467 218.75ZM531.281 215.273V216.409H526.758V215.273H531.281ZM528.076 213.182H529.417V221.5C529.417 221.879 529.472 222.163 529.582 222.352C529.695 222.538 529.839 222.663 530.013 222.727C530.192 222.788 530.379 222.818 530.576 222.818C530.724 222.818 530.845 222.811 530.94 222.795C531.034 222.777 531.11 222.761 531.167 222.75L531.44 223.955C531.349 223.989 531.222 224.023 531.059 224.057C530.896 224.095 530.69 224.114 530.44 224.114C530.061 224.114 529.69 224.032 529.326 223.869C528.966 223.706 528.667 223.458 528.428 223.125C528.193 222.792 528.076 222.371 528.076 221.864V213.182Z" fill="black"/>
<path d="M363 239L368 241.887V236.113L363 239ZM365.986 239V239.5H367.977V239V238.5H365.986V239ZM369.968 239V239.5H371.959V239V238.5H369.968V239ZM373.95 239V239.5H375.941V239V238.5H373.95V239ZM377.932 239V239.5H379.923V239V238.5H377.932V239ZM381.914 239V239.5H383.905V239V238.5H381.914V239ZM385.895 239V239.5H387.886V239V238.5H385.895V239ZM389.877 239V239.5H391.868V239V238.5H389.877V239ZM393.859 239V239.5H395.85V239V238.5H393.859V239ZM397.841 239V239.5H399.832V239V238.5H397.841V239ZM401.823 239V239.5H403.814V239V238.5H401.823V239ZM405.805 239V239.5H407.795V239V238.5H405.805V239ZM409.786 239V239.5H411.777V239V238.5H409.786V239ZM413.768 239V239.5H415.759V239V238.5H413.768V239ZM417.75 239V239.5H419.741V239V238.5H417.75V239ZM421.732 239V239.5H423.723V239V238.5H421.732V239ZM425.714 239V239.5H427.705V239V238.5H425.714V239ZM429.695 239V239.5H431.686V239V238.5H429.695V239ZM433.677 239V239.5H435.668V239V238.5H433.677V239ZM437.659 239V239.5H439.65V239V238.5H437.659V239ZM441.641 239V239.5H443.632V239V238.5H441.641V239ZM445.623 239V239.5H447.614V239V238.5H445.623V239ZM449.605 239V239.5H451.595V239V238.5H449.605V239ZM453.586 239V239.5H455.577V239V238.5H453.586V239ZM457.568 239V239.5H459.559V239V238.5H457.568V239ZM461.55 239V239.5H463.541V239V238.5H461.55V239ZM465.532 239V239.5H467.523V239V238.5H465.532V239ZM469.514 239V239.5H471.504V239V238.5H469.514V239ZM473.495 239V239.5H475.486V239V238.5H473.495V239ZM477.477 239V239.5H479.468V239V238.5H477.477V239ZM481.459 239V239.5H483.45V239V238.5H481.459V239ZM485.441 239V239.5H487.432V239V238.5H485.441V239ZM489.423 239V239.5H491.414V239V238.5H489.423V239ZM493.404 239V239.5H495.395V239V238.5H493.404V239ZM497.386 239V239.5H499.377V239V238.5H497.386V239ZM501.368 239V239.5H503.359V239V238.5H501.368V239ZM505.35 239V239.5H507.341V239V238.5H505.35V239ZM509.332 239V239.5H511.323V239V238.5H509.332V239ZM513.314 239V239.5H515.304V239V238.5H513.314V239ZM517.295 239V239.5H519.286V239V238.5H517.295V239ZM521.277 239V239.5H523.268V239V238.5H521.277V239ZM525.259 239V239.5H527.25V239V238.5H525.259V239ZM529.241 239V239.5H531.232V239V238.5H529.241V239ZM533.223 239V239.5H535.213V239V238.5H533.223V239ZM537.204 239V239.5H539.195V239V238.5H537.204V239ZM541.186 239V239.5H543.177V239V238.5H541.186V239ZM545.168 239V239.5H547.159V239V238.5H545.168V239ZM549.15 239V239.5H551.141V239V238.5H549.15V239ZM553.132 239V239.5H555.123V239V238.5H553.132V239ZM557.113 239V239.5H559.104V239V238.5H557.113V239ZM561.095 239V239.5H563.086V239V238.5H561.095V239ZM565.077 239V239.5H567.068V239V238.5H565.077V239ZM569.059 239V239.5H571.05V239V238.5H569.059V239ZM573.041 239V239.5H575.032V239V238.5H573.041V239ZM577.022 239V239.5H579.013V239V238.5H577.022V239ZM581.004 239V239.5H582V239V238.5H581.004V239ZM363 239L368 241.887V236.113L363 239ZM365.986 239V239.5H367.977V239V238.5H365.986V239ZM369.968 239V239.5H371.959V239V238.5H369.968V239ZM373.95 239V239.5H375.941V239V238.5H373.95V239ZM377.932 239V239.5H379.923V239V238.5H377.932V239ZM381.914 239V239.5H383.905V239V238.5H381.914V239ZM385.895 239V239.5H387.886V239V238.5H385.895V239ZM389.877 239V239.5H391.868V239V238.5H389.877V239ZM393.859 239V239.5H395.85V239V238.5H393.859V239ZM397.841 239V239.5H399.832V239V238.5H397.841V239ZM401.823 239V239.5H403.814V239V238.5H401.823V239ZM405.805 239V239.5H407.795V239V238.5H405.805V239ZM409.786 239V239.5H411.777V239V238.5H409.786V239ZM413.768 239V239.5H415.759V239V238.5H413.768V239ZM417.75 239V239.5H419.741V239V238.5H417.75V239ZM421.732 239V239.5H423.723V239V238.5H421.732V239ZM425.714 239V239.5H427.705V239V238.5H425.714V239ZM429.695 239V239.5H431.686V239V238.5H429.695V239ZM433.677 239V239.5H435.668V239V238.5H433.677V239ZM437.659 239V239.5H439.65V239V238.5H437.659V239ZM441.641 239V239.5H443.632V239V238.5H441.641V239ZM445.623 239V239.5H447.614V239V238.5H445.623V239ZM449.605 239V239.5H451.595V239V238.5H449.605V239ZM453.586 239V239.5H455.577V239V238.5H453.586V239ZM457.568 239V239.5H459.559V239V238.5H457.568V239ZM461.55 239V239.5H463.541V239V238.5H461.55V239ZM465.532 239V239.5H467.523V239V238.5H465.532V239ZM469.514 239V239.5H471.504V239V238.5H469.514V239ZM473.495 239V239.5H475.486V239V238.5H473.495V239ZM477.477 239V239.5H479.468V239V238.5H477.477V239ZM481.459 239V239.5H483.45V239V238.5H481.459V239ZM485.441 239V239.5H487.432V239V238.5H485.441V239ZM489.423 239V239.5H491.414V239V238.5H489.423V239ZM493.404 239V239.5H495.395V239V238.5H493.404V239ZM497.386 239V239.5H499.377V239V238.5H497.386V239ZM501.368 239V239.5H503.359V239V238.5H501.368V239ZM505.35 239V239.5H507.341V239V238.5H505.35V239ZM509.332 239V239.5H511.323V239V238.5H509.332V239ZM513.314 239V239.5H515.304V239V238.5H513.314V239ZM517.295 239V239.5H519.286V239V238.5H517.295V239ZM521.277 239V239.5H523.268V239V238.5H521.277V239ZM525.259 239V239.5H527.25V239V238.5H525.259V239ZM529.241 239V239.5H531.232V239V238.5H529.241V239ZM533.223 239V239.5H535.213V239V238.5H533.223V239ZM537.204 239V239.5H539.195V239V238.5H537.204V239ZM541.186 239V239.5H543.177V239V238.5H541.186V239ZM545.168 239V239.5H547.159V239V238.5H545.168V239ZM549.15 239V239.5H551.141V239V238.5H549.15V239ZM553.132 239V239.5H555.123V239V238.5H553.132V239ZM557.113 239V239.5H559.104V239V238.5H557.113V239ZM561.095 239V239.5H563.086V239V238.5H561.095V239ZM565.077 239V239.5H567.068V239V238.5H565.077V239ZM569.059 239V239.5H571.05V239V238.5H569.059V239ZM573.041 239V239.5H575.032V239V238.5H573.041V239ZM577.022 239V239.5H579.013V239V238.5H577.022V239ZM581.004 239V239.5H582V239V238.5H581.004V239Z" fill="black"/>
<path d="M198.415 245V236.273H199.71V237.591H199.801C199.96 237.159 200.248 236.809 200.665 236.54C201.081 236.271 201.551 236.136 202.074 236.136C202.172 236.136 202.295 236.138 202.443 236.142C202.591 236.146 202.703 236.152 202.778 236.159V237.523C202.733 237.511 202.629 237.494 202.466 237.472C202.307 237.445 202.138 237.432 201.96 237.432C201.536 237.432 201.157 237.521 200.824 237.699C200.494 237.873 200.233 238.116 200.04 238.426C199.85 238.733 199.756 239.083 199.756 239.477V245H198.415ZM207.761 245.182C206.92 245.182 206.195 244.996 205.585 244.625C204.979 244.25 204.511 243.727 204.182 243.057C203.856 242.383 203.693 241.598 203.693 240.705C203.693 239.811 203.856 239.023 204.182 238.341C204.511 237.655 204.97 237.121 205.557 236.739C206.148 236.352 206.837 236.159 207.625 236.159C208.08 236.159 208.528 236.235 208.972 236.386C209.415 236.538 209.818 236.784 210.182 237.125C210.545 237.462 210.835 237.909 211.051 238.466C211.267 239.023 211.375 239.708 211.375 240.523V241.091H204.648V239.932H210.011C210.011 239.439 209.913 239 209.716 238.614C209.523 238.227 209.246 237.922 208.886 237.699C208.53 237.475 208.11 237.364 207.625 237.364C207.091 237.364 206.629 237.496 206.239 237.761C205.852 238.023 205.555 238.364 205.347 238.784C205.138 239.205 205.034 239.655 205.034 240.136V240.909C205.034 241.568 205.148 242.127 205.375 242.585C205.606 243.04 205.926 243.386 206.335 243.625C206.744 243.86 207.22 243.977 207.761 243.977C208.114 243.977 208.432 243.928 208.716 243.83C209.004 243.727 209.252 243.576 209.46 243.375C209.669 243.17 209.83 242.917 209.943 242.614L211.239 242.977C211.102 243.417 210.873 243.803 210.551 244.136C210.229 244.466 209.831 244.723 209.358 244.909C208.884 245.091 208.352 245.182 207.761 245.182ZM214.756 239.75V245H213.415V236.273H214.71V237.636H214.824C215.028 237.193 215.339 236.837 215.756 236.568C216.172 236.295 216.71 236.159 217.369 236.159C217.96 236.159 218.477 236.28 218.92 236.523C219.364 236.761 219.708 237.125 219.955 237.614C220.201 238.098 220.324 238.712 220.324 239.455V245H218.983V239.545C218.983 238.86 218.805 238.326 218.449 237.943C218.093 237.557 217.604 237.364 216.983 237.364C216.555 237.364 216.172 237.456 215.835 237.642C215.502 237.828 215.239 238.098 215.045 238.455C214.852 238.811 214.756 239.242 214.756 239.75ZM226.07 245.182C225.342 245.182 224.7 244.998 224.143 244.631C223.587 244.259 223.151 243.737 222.837 243.062C222.522 242.384 222.365 241.583 222.365 240.659C222.365 239.742 222.522 238.947 222.837 238.273C223.151 237.598 223.589 237.078 224.149 236.71C224.71 236.343 225.357 236.159 226.092 236.159C226.661 236.159 227.109 236.254 227.439 236.443C227.772 236.629 228.026 236.841 228.2 237.08C228.378 237.314 228.517 237.508 228.615 237.659H228.729V233.364H230.07V245H228.774V243.659H228.615C228.517 243.818 228.376 244.019 228.195 244.261C228.013 244.5 227.753 244.714 227.416 244.903C227.079 245.089 226.63 245.182 226.07 245.182ZM226.251 243.977C226.789 243.977 227.244 243.837 227.615 243.557C227.986 243.273 228.268 242.881 228.462 242.381C228.655 241.877 228.751 241.295 228.751 240.636C228.751 239.985 228.657 239.415 228.467 238.926C228.278 238.434 227.998 238.051 227.626 237.778C227.255 237.502 226.797 237.364 226.251 237.364C225.683 237.364 225.21 237.509 224.831 237.801C224.456 238.089 224.174 238.481 223.984 238.977C223.799 239.47 223.706 240.023 223.706 240.636C223.706 241.258 223.801 241.822 223.99 242.33C224.183 242.833 224.467 243.235 224.842 243.534C225.221 243.83 225.691 243.977 226.251 243.977ZM236.371 245.182C235.53 245.182 234.804 244.996 234.195 244.625C233.589 244.25 233.121 243.727 232.791 243.057C232.465 242.383 232.303 241.598 232.303 240.705C232.303 239.811 232.465 239.023 232.791 238.341C233.121 237.655 233.579 237.121 234.166 236.739C234.757 236.352 235.446 236.159 236.234 236.159C236.689 236.159 237.138 236.235 237.581 236.386C238.024 236.538 238.428 236.784 238.791 237.125C239.155 237.462 239.445 237.909 239.661 238.466C239.876 239.023 239.984 239.708 239.984 240.523V241.091H233.257V239.932H238.621C238.621 239.439 238.522 239 238.325 238.614C238.132 238.227 237.856 237.922 237.496 237.699C237.14 237.475 236.719 237.364 236.234 237.364C235.7 237.364 235.238 237.496 234.848 237.761C234.462 238.023 234.164 238.364 233.956 238.784C233.748 239.205 233.643 239.655 233.643 240.136V240.909C233.643 241.568 233.757 242.127 233.984 242.585C234.215 243.04 234.536 243.386 234.945 243.625C235.354 243.86 235.829 243.977 236.371 243.977C236.723 243.977 237.041 243.928 237.325 243.83C237.613 243.727 237.861 243.576 238.07 243.375C238.278 243.17 238.439 242.917 238.553 242.614L239.848 242.977C239.712 243.417 239.482 243.803 239.161 244.136C238.839 244.466 238.441 244.723 237.967 244.909C237.494 245.091 236.962 245.182 236.371 245.182ZM242.024 245V236.273H243.32V237.591H243.411C243.57 237.159 243.857 236.809 244.274 236.54C244.691 236.271 245.161 236.136 245.683 236.136C245.782 236.136 245.905 236.138 246.053 236.142C246.2 236.146 246.312 236.152 246.388 236.159V237.523C246.342 237.511 246.238 237.494 246.075 237.472C245.916 237.445 245.748 237.432 245.57 237.432C245.145 237.432 244.767 237.521 244.433 237.699C244.104 237.873 243.842 238.116 243.649 238.426C243.46 238.733 243.365 239.083 243.365 239.477V245H242.024ZM252.477 245V236.273H253.773V237.591H253.864C254.023 237.159 254.311 236.809 254.727 236.54C255.144 236.271 255.614 236.136 256.136 236.136C256.235 236.136 256.358 236.138 256.506 236.142C256.653 236.146 256.765 236.152 256.841 236.159V237.523C256.795 237.511 256.691 237.494 256.528 237.472C256.369 237.445 256.201 237.432 256.023 237.432C255.598 237.432 255.22 237.521 254.886 237.699C254.557 237.873 254.295 238.116 254.102 238.426C253.913 238.733 253.818 239.083 253.818 239.477V245H252.477ZM261.71 245.182C260.922 245.182 260.231 244.994 259.636 244.619C259.045 244.244 258.583 243.72 258.25 243.045C257.92 242.371 257.756 241.583 257.756 240.682C257.756 239.773 257.92 238.979 258.25 238.301C258.583 237.623 259.045 237.097 259.636 236.722C260.231 236.347 260.922 236.159 261.71 236.159C262.498 236.159 263.188 236.347 263.778 236.722C264.373 237.097 264.835 237.623 265.165 238.301C265.498 238.979 265.665 239.773 265.665 240.682C265.665 241.583 265.498 242.371 265.165 243.045C264.835 243.72 264.373 244.244 263.778 244.619C263.188 244.994 262.498 245.182 261.71 245.182ZM261.71 243.977C262.309 243.977 262.801 243.824 263.188 243.517C263.574 243.21 263.86 242.807 264.045 242.307C264.231 241.807 264.324 241.265 264.324 240.682C264.324 240.098 264.231 239.555 264.045 239.051C263.86 238.547 263.574 238.14 263.188 237.83C262.801 237.519 262.309 237.364 261.71 237.364C261.112 237.364 260.619 237.519 260.233 237.83C259.847 238.14 259.561 238.547 259.375 239.051C259.189 239.555 259.097 240.098 259.097 240.682C259.097 241.265 259.189 241.807 259.375 242.307C259.561 242.807 259.847 243.21 260.233 243.517C260.619 243.824 261.112 243.977 261.71 243.977ZM273.212 241.432V236.273H274.553V245H273.212V243.523H273.121C272.916 243.966 272.598 244.343 272.166 244.653C271.734 244.96 271.189 245.114 270.53 245.114C269.984 245.114 269.5 244.994 269.075 244.756C268.651 244.513 268.318 244.15 268.075 243.665C267.833 243.176 267.712 242.561 267.712 241.818V236.273H269.053V241.727C269.053 242.364 269.231 242.871 269.587 243.25C269.946 243.629 270.405 243.818 270.962 243.818C271.295 243.818 271.634 243.733 271.979 243.562C272.327 243.392 272.619 243.131 272.854 242.778C273.092 242.426 273.212 241.977 273.212 241.432ZM280.804 236.273V237.409H276.281V236.273H280.804ZM277.599 234.182H278.94V242.5C278.94 242.879 278.995 243.163 279.105 243.352C279.219 243.538 279.363 243.663 279.537 243.727C279.715 243.788 279.902 243.818 280.099 243.818C280.247 243.818 280.368 243.811 280.463 243.795C280.558 243.777 280.634 243.761 280.69 243.75L280.963 244.955C280.872 244.989 280.745 245.023 280.582 245.057C280.42 245.095 280.213 245.114 279.963 245.114C279.584 245.114 279.213 245.032 278.849 244.869C278.49 244.706 278.19 244.458 277.952 244.125C277.717 243.792 277.599 243.371 277.599 242.864V234.182ZM286.386 245.182C285.545 245.182 284.82 244.996 284.21 244.625C283.604 244.25 283.136 243.727 282.807 243.057C282.481 242.383 282.318 241.598 282.318 240.705C282.318 239.811 282.481 239.023 282.807 238.341C283.136 237.655 283.595 237.121 284.182 236.739C284.773 236.352 285.462 236.159 286.25 236.159C286.705 236.159 287.153 236.235 287.597 236.386C288.04 236.538 288.443 236.784 288.807 237.125C289.17 237.462 289.46 237.909 289.676 238.466C289.892 239.023 290 239.708 290 240.523V241.091H283.273V239.932H288.636C288.636 239.439 288.538 239 288.341 238.614C288.148 238.227 287.871 237.922 287.511 237.699C287.155 237.475 286.735 237.364 286.25 237.364C285.716 237.364 285.254 237.496 284.864 237.761C284.477 238.023 284.18 238.364 283.972 238.784C283.763 239.205 283.659 239.655 283.659 240.136V240.909C283.659 241.568 283.773 242.127 284 242.585C284.231 243.04 284.551 243.386 284.96 243.625C285.369 243.86 285.845 243.977 286.386 243.977C286.739 243.977 287.057 243.928 287.341 243.83C287.629 243.727 287.877 243.576 288.085 243.375C288.294 243.17 288.455 242.917 288.568 242.614L289.864 242.977C289.727 243.417 289.498 243.803 289.176 244.136C288.854 244.466 288.456 244.723 287.983 244.909C287.509 245.091 286.977 245.182 286.386 245.182Z" fill="black"/>
<path d="M129 258L134 260.887V255.113L129 258ZM132.013 258V258.5H134.022V258V257.5H132.013V258ZM136.031 258V258.5H138.039V258V257.5H136.031V258ZM140.048 258V258.5H142.057V258V257.5H140.048V258ZM144.066 258V258.5H146.075V258V257.5H144.066V258ZM148.083 258V258.5H150.092V258V257.5H148.083V258ZM152.101 258V258.5H154.11V258V257.5H152.101V258ZM156.118 258V258.5H158.127V258V257.5H156.118V258ZM160.136 258V258.5H162.145V258V257.5H160.136V258ZM164.154 258V258.5H166.162V258V257.5H164.154V258ZM168.171 258V258.5H170.18V258V257.5H168.171V258ZM172.189 258V258.5H174.197V258V257.5H172.189V258ZM176.206 258V258.5H178.215V258V257.5H176.206V258ZM180.224 258V258.5H182.232V258V257.5H180.224V258ZM184.241 258V258.5H186.25V258V257.5H184.241V258ZM188.259 258V258.5H190.268V258V257.5H188.259V258ZM192.276 258V258.5H194.285V258V257.5H192.276V258ZM196.294 258V258.5H198.303V258V257.5H196.294V258ZM200.311 258V258.5H202.32V258V257.5H200.311V258ZM204.329 258V258.5H206.338V258V257.5H204.329V258ZM208.347 258V258.5H210.355V258V257.5H208.347V258ZM212.364 258V258.5H214.373V258V257.5H212.364V258ZM216.382 258V258.5H218.39V258V257.5H216.382V258ZM220.399 258V258.5H222.408V258V257.5H220.399V258ZM224.417 258V258.5H226.425V258V257.5H224.417V258ZM228.434 258V258.5H230.443V258V257.5H228.434V258ZM232.452 258V258.5H234.461V258V257.5H232.452V258ZM236.469 258V258.5H238.478V258V257.5H236.469V258ZM240.487 258V258.5H242.496V258V257.5H240.487V258ZM244.504 258V258.5H246.513V258V257.5H244.504V258ZM248.522 258V258.5H250.531V258V257.5H248.522V258ZM252.54 258V258.5H254.548V258V257.5H252.54V258ZM256.557 258V258.5H258.566V258V257.5H256.557V258ZM260.575 258V258.5H262.583V258V257.5H260.575V258ZM264.592 258V258.5H266.601V258V257.5H264.592V258ZM268.61 258V258.5H270.619V258V257.5H268.61V258ZM272.627 258V258.5H274.636V258V257.5H272.627V258ZM276.645 258V258.5H278.654V258V257.5H276.645V258ZM280.662 258V258.5H282.671V258V257.5H280.662V258ZM284.68 258V258.5H286.689V258V257.5H284.68V258ZM288.697 258V258.5H290.706V258V257.5H288.697V258ZM292.715 258V258.5H294.724V258V257.5H292.715V258ZM296.733 258V258.5H298.741V258V257.5H296.733V258ZM300.75 258V258.5H302.759V258V257.5H300.75V258ZM304.768 258V258.5H306.776V258V257.5H304.768V258ZM308.785 258V258.5H310.794V258V257.5H308.785V258ZM312.803 258V258.5H314.812V258V257.5H312.803V258ZM316.82 258V258.5H318.829V258V257.5H316.82V258ZM320.838 258V258.5H322.847V258V257.5H320.838V258ZM324.855 258V258.5H326.864V258V257.5H324.855V258ZM328.873 258V258.5H330.882V258V257.5H328.873V258ZM332.891 258V258.5H334.899V258V257.5H332.891V258ZM336.908 258V258.5H338.917V258V257.5H336.908V258ZM340.926 258V258.5H342.934V258V257.5H340.926V258ZM344.943 258V258.5H346.952V258V257.5H344.943V258ZM348.961 258V258.5H350.969V258V257.5H348.961V258ZM352.978 258V258.5H354.987V258V257.5H352.978V258ZM356.996 258V258.5H358V258V257.5H356.996V258ZM129 258L134 260.887V255.113L129 258ZM132.013 258V258.5H134.022V258V257.5H132.013V258ZM136.031 258V258.5H138.039V258V257.5H136.031V258ZM140.048 258V258.5H142.057V258V257.5H140.048V258ZM144.066 258V258.5H146.075V258V257.5H144.066V258ZM148.083 258V258.5H150.092V258V257.5H148.083V258ZM152.101 258V258.5H154.11V258V257.5H152.101V258ZM156.118 258V258.5H158.127V258V257.5H156.118V258ZM160.136 258V258.5H162.145V258V257.5H160.136V258ZM164.154 258V258.5H166.162V258V257.5H164.154V258ZM168.171 258V258.5H170.18V258V257.5H168.171V258ZM172.189 258V258.5H174.197V258V257.5H172.189V258ZM176.206 258V258.5H178.215V258V257.5H176.206V258ZM180.224 258V258.5H182.232V258V257.5H180.224V258ZM184.241 258V258.5H186.25V258V257.5H184.241V258ZM188.259 258V258.5H190.268V258V257.5H188.259V258ZM192.276 258V258.5H194.285V258V257.5H192.276V258ZM196.294 258V258.5H198.303V258V257.5H196.294V258ZM200.311 258V258.5H202.32V258V257.5H200.311V258ZM204.329 258V258.5H206.338V258V257.5H204.329V258ZM208.347 258V258.5H210.355V258V257.5H208.347V258ZM212.364 258V258.5H214.373V258V257.5H212.364V258ZM216.382 258V258.5H218.39V258V257.5H216.382V258ZM220.399 258V258.5H222.408V258V257.5H220.399V258ZM224.417 258V258.5H226.425V258V257.5H224.417V258ZM228.434 258V258.5H230.443V258V257.5H228.434V258ZM232.452 258V258.5H234.461V258V257.5H232.452V258ZM236.469 258V258.5H238.478V258V257.5H236.469V258ZM240.487 258V258.5H242.496V258V257.5H240.487V258ZM244.504 258V258.5H246.513V258V257.5H244.504V258ZM248.522 258V258.5H250.531V258V257.5H248.522V258ZM252.54 258V258.5H254.548V258V257.5H252.54V258ZM256.557 258V258.5H258.566V258V257.5H256.557V258ZM260.575 258V258.5H262.583V258V257.5H260.575V258ZM264.592 258V258.5H266.601V258V257.5H264.592V258ZM268.61 258V258.5H270.619V258V257.5H268.61V258ZM272.627 258V258.5H274.636V258V257.5H272.627V258ZM276.645 258V258.5H278.654V258V257.5H276.645V258ZM280.662 258V258.5H282.671V258V257.5H280.662V258ZM284.68 258V258.5H286.689V258V257.5H284.68V258ZM288.697 258V258.5H290.706V258V257.5H288.697V258ZM292.715 258V258.5H294.724V258V257.5H292.715V258ZM296.733 258V258.5H298.741V258V257.5H296.733V258ZM300.75 258V258.5H302.759V258V257.5H300.75V258ZM304.768 258V258.5H306.776V258V257.5H304.768V258ZM308.785 258V258.5H310.794V258V257.5H308.785V258ZM312.803 258V258.5H314.812V258V257.5H312.803V258ZM316.82 258V258.5H318.829V258V257.5H316.82V258ZM320.838 258V258.5H322.847V258V257.5H320.838V258ZM324.855 258V258.5H326.864V258V257.5H324.855V258ZM328.873 258V258.5H330.882V258V257.5H328.873V258ZM332.891 258V258.5H334.899V258V257.5H332.891V258ZM336.908 258V258.5H338.917V258V257.5H336.908V258ZM340.926 258V258.5H342.934V258V257.5H340.926V258ZM344.943 258V258.5H346.952V258V257.5H344.943V258ZM348.961 258V258.5H350.969V258V257.5H348.961V258ZM352.978 258V258.5H354.987V258V257.5H352.978V258ZM356.996 258V258.5H358V258V257.5H356.996V258Z" fill="black"/>
</svg>
